%TF.GenerationSoftware,KiCad,Pcbnew,8.0.8*%
%TF.CreationDate,2025-02-15T16:15:48-08:00*%
%TF.ProjectId,PhonePiHat,50686f6e-6550-4694-9861-742e6b696361,rev?*%
%TF.SameCoordinates,Original*%
%TF.FileFunction,Copper,L2,Bot*%
%TF.FilePolarity,Positive*%
%FSLAX46Y46*%
G04 Gerber Fmt 4.6, Leading zero omitted, Abs format (unit mm)*
G04 Created by KiCad (PCBNEW 8.0.8) date 2025-02-15 16:15:48*
%MOMM*%
%LPD*%
G01*
G04 APERTURE LIST*
G04 Aperture macros list*
%AMRoundRect*
0 Rectangle with rounded corners*
0 $1 Rounding radius*
0 $2 $3 $4 $5 $6 $7 $8 $9 X,Y pos of 4 corners*
0 Add a 4 corners polygon primitive as box body*
4,1,4,$2,$3,$4,$5,$6,$7,$8,$9,$2,$3,0*
0 Add four circle primitives for the rounded corners*
1,1,$1+$1,$2,$3*
1,1,$1+$1,$4,$5*
1,1,$1+$1,$6,$7*
1,1,$1+$1,$8,$9*
0 Add four rect primitives between the rounded corners*
20,1,$1+$1,$2,$3,$4,$5,0*
20,1,$1+$1,$4,$5,$6,$7,0*
20,1,$1+$1,$6,$7,$8,$9,0*
20,1,$1+$1,$8,$9,$2,$3,0*%
G04 Aperture macros list end*
%TA.AperFunction,ComponentPad*%
%ADD10R,1.700000X1.700000*%
%TD*%
%TA.AperFunction,ComponentPad*%
%ADD11O,1.700000X1.700000*%
%TD*%
%TA.AperFunction,ComponentPad*%
%ADD12C,1.400000*%
%TD*%
%TA.AperFunction,ComponentPad*%
%ADD13O,1.400000X1.400000*%
%TD*%
%TA.AperFunction,ComponentPad*%
%ADD14R,2.000000X1.905000*%
%TD*%
%TA.AperFunction,ComponentPad*%
%ADD15O,2.000000X1.905000*%
%TD*%
%TA.AperFunction,ComponentPad*%
%ADD16RoundRect,0.250001X1.149999X-1.149999X1.149999X1.149999X-1.149999X1.149999X-1.149999X-1.149999X0*%
%TD*%
%TA.AperFunction,ComponentPad*%
%ADD17C,2.800000*%
%TD*%
%TA.AperFunction,ViaPad*%
%ADD18C,0.600000*%
%TD*%
%TA.AperFunction,Conductor*%
%ADD19C,0.200000*%
%TD*%
G04 APERTURE END LIST*
D10*
%TO.P,J1,1,3V3*%
%TO.N,Net-(J2-Pin_4)*%
X58970000Y-49370000D03*
D11*
%TO.P,J1,2,5V*%
%TO.N,Net-(J2-Pin_2)*%
X56430000Y-49370000D03*
%TO.P,J1,3,SDA_I2C1/GPIO02*%
%TO.N,unconnected-(J1-SDA_I2C1{slash}GPIO02-Pad3)*%
X58970000Y-51910000D03*
%TO.P,J1,4,5V*%
%TO.N,Net-(J2-Pin_2)*%
X56430000Y-51910000D03*
%TO.P,J1,5,SCL_I2C1/GPIO03*%
%TO.N,unconnected-(J1-SCL_I2C1{slash}GPIO03-Pad5)*%
X58970000Y-54450000D03*
%TO.P,J1,6,GND*%
%TO.N,Net-(J2-Pin_4)*%
X56430000Y-54450000D03*
%TO.P,J1,7,GPCLK0/GPIO04*%
%TO.N,unconnected-(J1-GPCLK0{slash}GPIO04-Pad7)*%
X58970000Y-56990000D03*
%TO.P,J1,8,GPIO14/UART_TXD*%
%TO.N,unconnected-(J1-GPIO14{slash}UART_TXD-Pad8)*%
X56430000Y-56990000D03*
%TO.P,J1,9,GND*%
%TO.N,Net-(J2-Pin_4)*%
X58970000Y-59530000D03*
%TO.P,J1,10,GPIO15/UART_RXD*%
%TO.N,unconnected-(J1-GPIO15{slash}UART_RXD-Pad10)*%
X56430000Y-59530000D03*
%TO.P,J1,11,GPIO17/SPI1_~{CE1}*%
%TO.N,Net-(J1-GPIO17{slash}SPI1_~{CE1})*%
X58970000Y-62070000D03*
%TO.P,J1,12,GPIO18/SPI1_~{CE0}/PCM_CLK/PWM0*%
%TO.N,unconnected-(J1-GPIO18{slash}SPI1_~{CE0}{slash}PCM_CLK{slash}PWM0-Pad12)*%
X56430000Y-62070000D03*
%TO.P,J1,13,GPIO27/SDIO_DAT3*%
%TO.N,Net-(J1-GPIO27{slash}SDIO_DAT3)*%
X58970000Y-64610000D03*
%TO.P,J1,14,GND*%
%TO.N,Net-(J2-Pin_4)*%
X56430000Y-64610000D03*
%TO.P,J1,15,GPIO22/SDIO_CLK*%
%TO.N,Net-(J1-GPIO22{slash}SDIO_CLK)*%
X58970000Y-67150000D03*
%TO.P,J1,16,GPIO23/SDIO_CMD*%
%TO.N,Net-(J1-GPIO23{slash}SDIO_CMD)*%
X56430000Y-67150000D03*
%TO.P,J1,17,3V3*%
%TO.N,Net-(J2-Pin_4)*%
X58970000Y-69690000D03*
%TO.P,J1,18,GPIO24/SDIO_DAT0*%
%TO.N,Net-(J1-GPIO24{slash}SDIO_DAT0)*%
X56430000Y-69690000D03*
%TO.P,J1,19,MOSI_SPI0/GPIO10*%
%TO.N,unconnected-(J1-MOSI_SPI0{slash}GPIO10-Pad19)*%
X58970000Y-72230000D03*
%TO.P,J1,20,GND*%
%TO.N,Net-(J2-Pin_4)*%
X56430000Y-72230000D03*
%TO.P,J1,21,MISO_SPI0/GPIO09*%
%TO.N,unconnected-(J1-MISO_SPI0{slash}GPIO09-Pad21)*%
X58970000Y-74770000D03*
%TO.P,J1,22,GPIO25/SDIO_DAT1*%
%TO.N,Net-(J1-GPIO25{slash}SDIO_DAT1)*%
X56430000Y-74770000D03*
%TO.P,J1,23,SCLK_SPI0/GPIO11*%
%TO.N,unconnected-(J1-SCLK_SPI0{slash}GPIO11-Pad23)*%
X58970000Y-77310000D03*
%TO.P,J1,24,~{CE0}_SPI0/GPIO08*%
%TO.N,unconnected-(J1-~{CE0}_SPI0{slash}GPIO08-Pad24)*%
X56430000Y-77310000D03*
%TO.P,J1,25,GND*%
%TO.N,Net-(J2-Pin_4)*%
X58970000Y-79850000D03*
%TO.P,J1,26,~{CE1}_SPI0/GPIO07*%
%TO.N,unconnected-(J1-~{CE1}_SPI0{slash}GPIO07-Pad26)*%
X56430000Y-79850000D03*
%TO.P,J1,27,ID_SD_I2C0/GPIO00*%
%TO.N,unconnected-(J1-ID_SD_I2C0{slash}GPIO00-Pad27)*%
X58970000Y-82390000D03*
%TO.P,J1,28,ID_SC_I2C0/GPIO01*%
%TO.N,unconnected-(J1-ID_SC_I2C0{slash}GPIO01-Pad28)*%
X56430000Y-82390000D03*
%TO.P,J1,29,GPCLK1/GPIO05*%
%TO.N,unconnected-(J1-GPCLK1{slash}GPIO05-Pad29)*%
X58970000Y-84930000D03*
%TO.P,J1,30,GND*%
%TO.N,Net-(J2-Pin_4)*%
X56430000Y-84930000D03*
%TO.P,J1,31,GPCLK2/GPIO06*%
%TO.N,unconnected-(J1-GPCLK2{slash}GPIO06-Pad31)*%
X58970000Y-87470000D03*
%TO.P,J1,32,GPIO12/PWM0*%
%TO.N,unconnected-(J1-GPIO12{slash}PWM0-Pad32)*%
X56430000Y-87470000D03*
%TO.P,J1,33,GPIO13/PWM1*%
%TO.N,unconnected-(J1-GPIO13{slash}PWM1-Pad33)*%
X58970000Y-90010000D03*
%TO.P,J1,34,GND*%
%TO.N,Net-(J2-Pin_4)*%
X56430000Y-90010000D03*
%TO.P,J1,35,GPIO19/SPI1_MISO/PCM_FS*%
%TO.N,Net-(J1-GPIO19{slash}SPI1_MISO{slash}PCM_FS)*%
X58970000Y-92550000D03*
%TO.P,J1,36,GPIO16/SPI1_~{CE2}*%
%TO.N,unconnected-(J1-GPIO16{slash}SPI1_~{CE2}-Pad36)*%
X56430000Y-92550000D03*
%TO.P,J1,37,GPIO26/SDIO_DAT2*%
%TO.N,Net-(J1-GPIO26{slash}SDIO_DAT2)*%
X58970000Y-95090000D03*
%TO.P,J1,38,GPIO20/SPI1_MOSI/PCM_DIN/PWM1*%
%TO.N,Net-(J1-GPIO20{slash}SPI1_MOSI{slash}PCM_DIN{slash}PWM1)*%
X56430000Y-95090000D03*
%TO.P,J1,39,GND*%
%TO.N,Net-(J2-Pin_4)*%
X58970000Y-97630000D03*
%TO.P,J1,40,GPIO21/SPI1_SCLK/PCM_DOUT*%
%TO.N,Net-(J1-GPIO21{slash}SPI1_SCLK{slash}PCM_DOUT)*%
X56430000Y-97630000D03*
%TD*%
D12*
%TO.P,R1,1*%
%TO.N,Net-(J1-GPIO17{slash}SPI1_~{CE1})*%
X64500000Y-49000000D03*
D13*
%TO.P,R1,2*%
%TO.N,Net-(J2-Pin_4)*%
X66400000Y-49000000D03*
%TD*%
D12*
%TO.P,R10,1*%
%TO.N,Net-(J1-GPIO19{slash}SPI1_MISO{slash}PCM_FS)*%
X64095000Y-81500000D03*
D13*
%TO.P,R10,2*%
%TO.N,Net-(J2-Pin_4)*%
X65995000Y-81500000D03*
%TD*%
D14*
%TO.P,Q1,1,G*%
%TO.N,Net-(J1-GPIO17{slash}SPI1_~{CE1})*%
X66500000Y-92580000D03*
D15*
%TO.P,Q1,2,D*%
%TO.N,Net-(J2-Pin_1)*%
X66500000Y-90040000D03*
%TO.P,Q1,3,S*%
%TO.N,Net-(J2-Pin_4)*%
X66500000Y-87500000D03*
%TD*%
D12*
%TO.P,R3,1*%
%TO.N,Net-(J1-GPIO22{slash}SDIO_CLK)*%
X64500000Y-52150000D03*
D13*
%TO.P,R3,2*%
%TO.N,Net-(J2-Pin_4)*%
X66400000Y-52150000D03*
%TD*%
D12*
%TO.P,R4,1*%
%TO.N,Net-(J1-GPIO23{slash}SDIO_CMD)*%
X64500000Y-55300000D03*
D13*
%TO.P,R4,2*%
%TO.N,Net-(J2-Pin_4)*%
X66400000Y-55300000D03*
%TD*%
D12*
%TO.P,R6,1*%
%TO.N,Net-(J1-GPIO25{slash}SDIO_DAT1)*%
X64500000Y-61600000D03*
D13*
%TO.P,R6,2*%
%TO.N,Net-(J2-Pin_4)*%
X66400000Y-61600000D03*
%TD*%
D16*
%TO.P,J2,1,Pin_1*%
%TO.N,Net-(J2-Pin_1)*%
X74000000Y-104000000D03*
D17*
%TO.P,J2,2,Pin_2*%
%TO.N,Net-(J2-Pin_2)*%
X74000000Y-99000000D03*
%TO.P,J2,3,Pin_3*%
%TO.N,Net-(J1-GPIO21{slash}SPI1_SCLK{slash}PCM_DOUT)*%
X74000000Y-94000000D03*
%TO.P,J2,4,Pin_4*%
%TO.N,Net-(J2-Pin_4)*%
X74000000Y-89000000D03*
%TO.P,J2,5,Pin_5*%
X74000000Y-84000000D03*
%TO.P,J2,6,Pin_6*%
%TO.N,Net-(J1-GPIO22{slash}SDIO_CLK)*%
X74000000Y-79000000D03*
%TO.P,J2,7,Pin_7*%
%TO.N,Net-(J1-GPIO23{slash}SDIO_CMD)*%
X74000000Y-74000000D03*
%TO.P,J2,8,Pin_8*%
%TO.N,Net-(J1-GPIO24{slash}SDIO_DAT0)*%
X74000000Y-69000000D03*
%TO.P,J2,9,Pin_9*%
%TO.N,Net-(J1-GPIO25{slash}SDIO_DAT1)*%
X74000000Y-64000000D03*
%TO.P,J2,10,Pin_10*%
%TO.N,Net-(J1-GPIO26{slash}SDIO_DAT2)*%
X74000000Y-59000000D03*
%TO.P,J2,11,Pin_11*%
%TO.N,Net-(J1-GPIO27{slash}SDIO_DAT3)*%
X74000000Y-54000000D03*
%TO.P,J2,12,Pin_12*%
%TO.N,Net-(J1-GPIO20{slash}SPI1_MOSI{slash}PCM_DIN{slash}PWM1)*%
X74000000Y-49000000D03*
%TO.P,J2,13,Pin_13*%
%TO.N,Net-(J1-GPIO19{slash}SPI1_MISO{slash}PCM_FS)*%
X74000000Y-44000000D03*
%TD*%
D12*
%TO.P,R5,1*%
%TO.N,Net-(J1-GPIO24{slash}SDIO_DAT0)*%
X64500000Y-58450000D03*
D13*
%TO.P,R5,2*%
%TO.N,Net-(J2-Pin_4)*%
X66400000Y-58450000D03*
%TD*%
D12*
%TO.P,R9,1*%
%TO.N,Net-(J1-GPIO20{slash}SPI1_MOSI{slash}PCM_DIN{slash}PWM1)*%
X64500000Y-71050000D03*
D13*
%TO.P,R9,2*%
%TO.N,Net-(J2-Pin_4)*%
X66400000Y-71050000D03*
%TD*%
D12*
%TO.P,R7,1*%
%TO.N,Net-(J1-GPIO26{slash}SDIO_DAT2)*%
X64500000Y-64750000D03*
D13*
%TO.P,R7,2*%
%TO.N,Net-(J2-Pin_4)*%
X66400000Y-64750000D03*
%TD*%
D12*
%TO.P,R8,1*%
%TO.N,Net-(J1-GPIO27{slash}SDIO_DAT3)*%
X64500000Y-67900000D03*
D13*
%TO.P,R8,2*%
%TO.N,Net-(J2-Pin_4)*%
X66400000Y-67900000D03*
%TD*%
D18*
%TO.N,Net-(J2-Pin_2)*%
X68447600Y-53180000D03*
%TO.N,Net-(J1-GPIO26{slash}SDIO_DAT2)*%
X61838600Y-64750000D03*
%TO.N,Net-(J1-GPIO25{slash}SDIO_DAT1)*%
X62842000Y-73429300D03*
%TO.N,Net-(J1-GPIO20{slash}SPI1_MOSI{slash}PCM_DIN{slash}PWM1)*%
X69794800Y-91325800D03*
X69794800Y-72097800D03*
%TO.N,Net-(J1-GPIO27{slash}SDIO_DAT3)*%
X63471600Y-63627200D03*
%TD*%
D19*
%TO.N,Net-(J2-Pin_4)*%
X57581700Y-90010000D02*
X57581700Y-89722100D01*
X58970000Y-79850000D02*
X64345000Y-79850000D01*
X58970000Y-69690000D02*
X60121700Y-69690000D01*
X58563800Y-88740000D02*
X66500000Y-88740000D01*
X65325900Y-69975800D02*
X66400000Y-68901700D01*
X66400000Y-67900000D02*
X66400000Y-68901700D01*
X56430000Y-90010000D02*
X57581700Y-90010000D01*
X75000000Y-88500000D02*
X74745800Y-88754200D01*
X66500000Y-87500000D02*
X66500000Y-88740000D01*
X74745800Y-88754200D02*
X66500000Y-88754200D01*
X64345000Y-79850000D02*
X65995000Y-81500000D01*
X65040000Y-69690000D02*
X60121700Y-69690000D01*
X66400000Y-71050000D02*
X65325900Y-69975800D01*
X66500000Y-88740000D02*
X66500000Y-88754200D01*
X57581700Y-89722100D02*
X58563800Y-88740000D01*
X65325900Y-69975800D02*
X65040000Y-69690000D01*
%TO.N,Net-(J2-Pin_2)*%
X57581700Y-51910000D02*
X57581700Y-52197900D01*
X56430000Y-51910000D02*
X57581700Y-51910000D01*
X57581700Y-52197900D02*
X58563800Y-53180000D01*
X58563800Y-53180000D02*
X68447600Y-53180000D01*
%TO.N,Net-(J1-GPIO26{slash}SDIO_DAT2)*%
X72987500Y-60512500D02*
X75000000Y-58500000D01*
X63465200Y-61147200D02*
X64099900Y-60512500D01*
X64099900Y-60512500D02*
X72987500Y-60512500D01*
X64500000Y-63804700D02*
X63465200Y-62769900D01*
X64500000Y-64750000D02*
X61838600Y-64750000D01*
X64500000Y-64750000D02*
X64500000Y-63804700D01*
X63465200Y-62769900D02*
X63465200Y-61147200D01*
%TO.N,Net-(J1-GPIO25{slash}SDIO_DAT1)*%
X62842000Y-73429300D02*
X58653900Y-73429300D01*
X58653900Y-73429300D02*
X57581700Y-74501500D01*
X75000000Y-63500000D02*
X66400000Y-63500000D01*
X56430000Y-74770000D02*
X57581700Y-74770000D01*
X66400000Y-63500000D02*
X64500000Y-61600000D01*
X57581700Y-74501500D02*
X57581700Y-74770000D01*
%TO.N,Net-(J1-GPIO19{slash}SPI1_MISO{slash}PCM_FS)*%
X55257400Y-89551200D02*
X55257400Y-90502200D01*
X55257400Y-90502200D02*
X56035200Y-91280000D01*
X64095000Y-81500000D02*
X59395000Y-86200000D01*
X56816800Y-91280000D02*
X57818300Y-92281500D01*
X57700000Y-87051600D02*
X57700000Y-87831900D01*
X59395000Y-86200000D02*
X58551600Y-86200000D01*
X56035200Y-91280000D02*
X56816800Y-91280000D01*
X56791700Y-88740200D02*
X56068400Y-88740200D01*
X58551600Y-86200000D02*
X57700000Y-87051600D01*
X58970000Y-92550000D02*
X57818300Y-92550000D01*
X56068400Y-88740200D02*
X55257400Y-89551200D01*
X57700000Y-87831900D02*
X56791700Y-88740200D01*
X57818300Y-92281500D02*
X57818300Y-92550000D01*
%TO.N,Net-(J1-GPIO21{slash}SPI1_SCLK{slash}PCM_DOUT)*%
X72021700Y-96478300D02*
X75000000Y-93500000D01*
X58445400Y-96478300D02*
X72021700Y-96478300D01*
X56430000Y-97630000D02*
X57581700Y-97630000D01*
X57581700Y-97630000D02*
X57581700Y-97342000D01*
X57581700Y-97342000D02*
X58445400Y-96478300D01*
%TO.N,Net-(J1-GPIO22{slash}SDIO_CLK)*%
X60405700Y-66866000D02*
X60121700Y-67150000D01*
X76724600Y-72734600D02*
X70856000Y-66866000D01*
X76724600Y-76775400D02*
X76724600Y-72734600D01*
X70856000Y-66866000D02*
X60405700Y-66866000D01*
X58970000Y-67150000D02*
X60121700Y-67150000D01*
X75000000Y-78500000D02*
X76724600Y-76775400D01*
%TO.N,Net-(J1-GPIO24{slash}SDIO_DAT0)*%
X58603000Y-63340000D02*
X59610000Y-63340000D01*
X57581700Y-69690000D02*
X57581700Y-66089000D01*
X72380000Y-65880000D02*
X57790700Y-65880000D01*
X57790700Y-65880000D02*
X57790700Y-64152300D01*
X59610000Y-63340000D02*
X64500000Y-58450000D01*
X75000000Y-68500000D02*
X72380000Y-65880000D01*
X56430000Y-69690000D02*
X57581700Y-69690000D01*
X57790700Y-64152300D02*
X58603000Y-63340000D01*
X57581700Y-66089000D02*
X57790700Y-65880000D01*
%TO.N,Net-(J1-GPIO20{slash}SPI1_MOSI{slash}PCM_DIN{slash}PWM1)*%
X57581700Y-95090000D02*
X57581700Y-94802000D01*
X58445400Y-93938300D02*
X61884300Y-93938300D01*
X57581700Y-94802000D02*
X58445400Y-93938300D01*
X61884300Y-93938300D02*
X64496800Y-91325800D01*
X64500000Y-71050000D02*
X65547800Y-72097800D01*
X65547800Y-72097800D02*
X69794800Y-72097800D01*
X64496800Y-91325800D02*
X69794800Y-91325800D01*
X56430000Y-95090000D02*
X57581700Y-95090000D01*
%TO.N,Net-(J1-GPIO27{slash}SDIO_DAT3)*%
X60121700Y-64610000D02*
X61692100Y-63039600D01*
X62884000Y-61160300D02*
X62884000Y-63039600D01*
X62884000Y-63039600D02*
X63471600Y-63627200D01*
X61692100Y-63039600D02*
X62884000Y-63039600D01*
X58970000Y-64610000D02*
X60121700Y-64610000D01*
X75000000Y-53500000D02*
X68641300Y-59858700D01*
X68641300Y-59858700D02*
X64185600Y-59858700D01*
X64185600Y-59858700D02*
X62884000Y-61160300D01*
%TO.N,Net-(J1-GPIO23{slash}SDIO_CMD)*%
X56705800Y-63458300D02*
X57700000Y-62464100D01*
X55257400Y-64102700D02*
X55901800Y-63458300D01*
X55228900Y-69234300D02*
X56161500Y-68301700D01*
X57700000Y-62464100D02*
X57700000Y-61651600D01*
X56046400Y-70960000D02*
X55228900Y-70142500D01*
X56142100Y-65998300D02*
X55257400Y-65113600D01*
X58551600Y-60800000D02*
X59359400Y-60800000D01*
X55257400Y-65113600D02*
X55257400Y-64102700D01*
X63763600Y-73500000D02*
X61223600Y-70960000D01*
X61223600Y-70960000D02*
X56046400Y-70960000D01*
X59359400Y-60800000D02*
X64500000Y-55659400D01*
X56430000Y-67150000D02*
X56430000Y-68301700D01*
X56430000Y-65998300D02*
X56142100Y-65998300D01*
X56430000Y-67150000D02*
X56430000Y-65998300D01*
X75000000Y-73500000D02*
X63763600Y-73500000D01*
X56161500Y-68301700D02*
X56430000Y-68301700D01*
X55901800Y-63458300D02*
X56705800Y-63458300D01*
X55228900Y-70142500D02*
X55228900Y-69234300D01*
X64500000Y-55659400D02*
X64500000Y-55300000D01*
X57700000Y-61651600D02*
X58551600Y-60800000D01*
%TD*%
M02*
