M48
; DRILL file {KiCad 8.0.8} date 2025-02-15T16:15:51-0800
; FORMAT={-:-/ absolute / inch / decimal}
; #@! TF.CreationDate,2025-02-15T16:15:51-08:00
; #@! TF.GenerationSoftware,Kicad,Pcbnew,8.0.8
; #@! TF.FileFunction,Plated,1,2,PTH
FMAT,2
INCH
; #@! TA.AperFunction,Plated,PTH,ViaDrill
T1C0.0118
; #@! TA.AperFunction,Plated,PTH,ComponentDrill
T2C0.0276
; #@! TA.AperFunction,Plated,PTH,ComponentDrill
T3C0.0394
; #@! TA.AperFunction,Plated,PTH,ComponentDrill
T4C0.0433
; #@! TA.AperFunction,Plated,PTH,ComponentDrill
T5C0.0512
%
G90
G05
T1
X2.4346Y-2.5492
X2.4741Y-2.8909
X2.4989Y-2.505
X2.6948Y-2.0937
X2.7478Y-2.8385
X2.7478Y-3.5955
T2
X2.5234Y-3.2087
X2.5394Y-1.9291
X2.5394Y-2.0531
X2.5394Y-2.1772
X2.5394Y-2.3012
X2.5394Y-2.4252
X2.5394Y-2.5492
X2.5394Y-2.6732
X2.5394Y-2.7972
X2.5982Y-3.2087
X2.6142Y-1.9291
X2.6142Y-2.0531
X2.6142Y-2.1772
X2.6142Y-2.3012
X2.6142Y-2.4252
X2.6142Y-2.5492
X2.6142Y-2.6732
X2.6142Y-2.7972
T3
X2.2217Y-1.9437
X2.2217Y-2.0437
X2.2217Y-2.1437
X2.2217Y-2.2437
X2.2217Y-2.3437
X2.2217Y-2.4437
X2.2217Y-2.5437
X2.2217Y-2.6437
X2.2217Y-2.7437
X2.2217Y-2.8437
X2.2217Y-2.9437
X2.2217Y-3.0437
X2.2217Y-3.1437
X2.2217Y-3.2437
X2.2217Y-3.3437
X2.2217Y-3.4437
X2.2217Y-3.5437
X2.2217Y-3.6437
X2.2217Y-3.7437
X2.2217Y-3.8437
X2.3217Y-1.9437
X2.3217Y-2.0437
X2.3217Y-2.1437
X2.3217Y-2.2437
X2.3217Y-2.3437
X2.3217Y-2.4437
X2.3217Y-2.5437
X2.3217Y-2.6437
X2.3217Y-2.7437
X2.3217Y-2.8437
X2.3217Y-2.9437
X2.3217Y-3.0437
X2.3217Y-3.1437
X2.3217Y-3.2437
X2.3217Y-3.3437
X2.3217Y-3.4437
X2.3217Y-3.5437
X2.3217Y-3.6437
X2.3217Y-3.7437
X2.3217Y-3.8437
T4
X2.6181Y-3.4449
X2.6181Y-3.5449
X2.6181Y-3.6449
T5
X2.9134Y-1.7323
X2.9134Y-1.9291
X2.9134Y-2.126
X2.9134Y-2.3228
X2.9134Y-2.5197
X2.9134Y-2.7165
X2.9134Y-2.9134
X2.9134Y-3.1102
X2.9134Y-3.3071
X2.9134Y-3.5039
X2.9134Y-3.7008
X2.9134Y-3.8976
X2.9134Y-4.0945
M30
