M48
INCH,TZ
T1C0.0118
T2C0.0276
T3C0.0394
T4C0.0433
T5C0.0512
%
G90
G05
T1
X14643Y-39039
X14963Y-35476
X18261Y-24740
T2
X14998Y-22047
X15157Y-28740
X15157Y-29980
X15157Y-31220
X15157Y-32461
X15157Y-33701
X15157Y-34941
X15157Y-36181
X15197Y-38327
X15746Y-22047
X15906Y-28740
X15906Y-29980
X15906Y-31220
X15906Y-32461
X15906Y-33701
X15906Y-34941
X15906Y-36181
X15945Y-38327
T3
X17807Y-19240
X17807Y-20240
X17807Y-21240
X17807Y-22240
X17807Y-23240
X17807Y-24240
X17807Y-25240
X17807Y-26240
X17807Y-27240
X17807Y-28240
X17807Y-29240
X17807Y-30240
X17807Y-31240
X17807Y-32240
X17807Y-33240
X17807Y-34240
X17807Y-35240
X17807Y-36240
X17807Y-37240
X17807Y-38240
X18807Y-19240
X18807Y-20240
X18807Y-21240
X18807Y-22240
X18807Y-23240
X18807Y-24240
X18807Y-25240
X18807Y-26240
X18807Y-27240
X18807Y-28240
X18807Y-29240
X18807Y-30240
X18807Y-31240
X18807Y-32240
X18807Y-33240
X18807Y-34240
X18807Y-35240
X18807Y-36240
X18807Y-37240
X18807Y-38240
T4
X15748Y-17717
X15748Y-18717
X15748Y-19717
T5
X12402Y-17323
X12402Y-19291
X12402Y-21260
X12402Y-23228
X12402Y-25197
X12402Y-27165
X12402Y-29134
X12402Y-31102
X12402Y-33071
X12402Y-35039
X12402Y-37008
X12402Y-38976
X12402Y-40945
M30
