%TF.GenerationSoftware,KiCad,Pcbnew,8.0.8*%
%TF.CreationDate,2025-02-15T16:15:48-08:00*%
%TF.ProjectId,PhonePiHat,50686f6e-6550-4694-9861-742e6b696361,rev?*%
%TF.SameCoordinates,Original*%
%TF.FileFunction,Copper,L1,Top*%
%TF.FilePolarity,Positive*%
%FSLAX46Y46*%
G04 Gerber Fmt 4.6, Leading zero omitted, Abs format (unit mm)*
G04 Created by KiCad (PCBNEW 8.0.8) date 2025-02-15 16:15:48*
%MOMM*%
%LPD*%
G01*
G04 APERTURE LIST*
G04 Aperture macros list*
%AMRoundRect*
0 Rectangle with rounded corners*
0 $1 Rounding radius*
0 $2 $3 $4 $5 $6 $7 $8 $9 X,Y pos of 4 corners*
0 Add a 4 corners polygon primitive as box body*
4,1,4,$2,$3,$4,$5,$6,$7,$8,$9,$2,$3,0*
0 Add four circle primitives for the rounded corners*
1,1,$1+$1,$2,$3*
1,1,$1+$1,$4,$5*
1,1,$1+$1,$6,$7*
1,1,$1+$1,$8,$9*
0 Add four rect primitives between the rounded corners*
20,1,$1+$1,$2,$3,$4,$5,0*
20,1,$1+$1,$4,$5,$6,$7,0*
20,1,$1+$1,$6,$7,$8,$9,0*
20,1,$1+$1,$8,$9,$2,$3,0*%
G04 Aperture macros list end*
%TA.AperFunction,ComponentPad*%
%ADD10R,1.700000X1.700000*%
%TD*%
%TA.AperFunction,ComponentPad*%
%ADD11O,1.700000X1.700000*%
%TD*%
%TA.AperFunction,ComponentPad*%
%ADD12C,1.400000*%
%TD*%
%TA.AperFunction,ComponentPad*%
%ADD13O,1.400000X1.400000*%
%TD*%
%TA.AperFunction,ComponentPad*%
%ADD14R,2.000000X1.905000*%
%TD*%
%TA.AperFunction,ComponentPad*%
%ADD15O,2.000000X1.905000*%
%TD*%
%TA.AperFunction,ComponentPad*%
%ADD16RoundRect,0.250001X1.149999X-1.149999X1.149999X1.149999X-1.149999X1.149999X-1.149999X-1.149999X0*%
%TD*%
%TA.AperFunction,ComponentPad*%
%ADD17C,2.800000*%
%TD*%
%TA.AperFunction,ViaPad*%
%ADD18C,0.600000*%
%TD*%
%TA.AperFunction,Conductor*%
%ADD19C,0.200000*%
%TD*%
G04 APERTURE END LIST*
D10*
%TO.P,J1,1,3V3*%
%TO.N,Net-(J2-Pin_4)*%
X58970000Y-49370000D03*
D11*
%TO.P,J1,2,5V*%
%TO.N,Net-(J2-Pin_2)*%
X56430000Y-49370000D03*
%TO.P,J1,3,SDA_I2C1/GPIO02*%
%TO.N,unconnected-(J1-SDA_I2C1{slash}GPIO02-Pad3)*%
X58970000Y-51910000D03*
%TO.P,J1,4,5V*%
%TO.N,Net-(J2-Pin_2)*%
X56430000Y-51910000D03*
%TO.P,J1,5,SCL_I2C1/GPIO03*%
%TO.N,unconnected-(J1-SCL_I2C1{slash}GPIO03-Pad5)*%
X58970000Y-54450000D03*
%TO.P,J1,6,GND*%
%TO.N,Net-(J2-Pin_4)*%
X56430000Y-54450000D03*
%TO.P,J1,7,GPCLK0/GPIO04*%
%TO.N,unconnected-(J1-GPCLK0{slash}GPIO04-Pad7)*%
X58970000Y-56990000D03*
%TO.P,J1,8,GPIO14/UART_TXD*%
%TO.N,unconnected-(J1-GPIO14{slash}UART_TXD-Pad8)*%
X56430000Y-56990000D03*
%TO.P,J1,9,GND*%
%TO.N,Net-(J2-Pin_4)*%
X58970000Y-59530000D03*
%TO.P,J1,10,GPIO15/UART_RXD*%
%TO.N,unconnected-(J1-GPIO15{slash}UART_RXD-Pad10)*%
X56430000Y-59530000D03*
%TO.P,J1,11,GPIO17/SPI1_~{CE1}*%
%TO.N,Net-(J1-GPIO17{slash}SPI1_~{CE1})*%
X58970000Y-62070000D03*
%TO.P,J1,12,GPIO18/SPI1_~{CE0}/PCM_CLK/PWM0*%
%TO.N,unconnected-(J1-GPIO18{slash}SPI1_~{CE0}{slash}PCM_CLK{slash}PWM0-Pad12)*%
X56430000Y-62070000D03*
%TO.P,J1,13,GPIO27/SDIO_DAT3*%
%TO.N,Net-(J1-GPIO27{slash}SDIO_DAT3)*%
X58970000Y-64610000D03*
%TO.P,J1,14,GND*%
%TO.N,Net-(J2-Pin_4)*%
X56430000Y-64610000D03*
%TO.P,J1,15,GPIO22/SDIO_CLK*%
%TO.N,Net-(J1-GPIO22{slash}SDIO_CLK)*%
X58970000Y-67150000D03*
%TO.P,J1,16,GPIO23/SDIO_CMD*%
%TO.N,Net-(J1-GPIO23{slash}SDIO_CMD)*%
X56430000Y-67150000D03*
%TO.P,J1,17,3V3*%
%TO.N,Net-(J2-Pin_4)*%
X58970000Y-69690000D03*
%TO.P,J1,18,GPIO24/SDIO_DAT0*%
%TO.N,Net-(J1-GPIO24{slash}SDIO_DAT0)*%
X56430000Y-69690000D03*
%TO.P,J1,19,MOSI_SPI0/GPIO10*%
%TO.N,unconnected-(J1-MOSI_SPI0{slash}GPIO10-Pad19)*%
X58970000Y-72230000D03*
%TO.P,J1,20,GND*%
%TO.N,Net-(J2-Pin_4)*%
X56430000Y-72230000D03*
%TO.P,J1,21,MISO_SPI0/GPIO09*%
%TO.N,unconnected-(J1-MISO_SPI0{slash}GPIO09-Pad21)*%
X58970000Y-74770000D03*
%TO.P,J1,22,GPIO25/SDIO_DAT1*%
%TO.N,Net-(J1-GPIO25{slash}SDIO_DAT1)*%
X56430000Y-74770000D03*
%TO.P,J1,23,SCLK_SPI0/GPIO11*%
%TO.N,unconnected-(J1-SCLK_SPI0{slash}GPIO11-Pad23)*%
X58970000Y-77310000D03*
%TO.P,J1,24,~{CE0}_SPI0/GPIO08*%
%TO.N,unconnected-(J1-~{CE0}_SPI0{slash}GPIO08-Pad24)*%
X56430000Y-77310000D03*
%TO.P,J1,25,GND*%
%TO.N,Net-(J2-Pin_4)*%
X58970000Y-79850000D03*
%TO.P,J1,26,~{CE1}_SPI0/GPIO07*%
%TO.N,unconnected-(J1-~{CE1}_SPI0{slash}GPIO07-Pad26)*%
X56430000Y-79850000D03*
%TO.P,J1,27,ID_SD_I2C0/GPIO00*%
%TO.N,unconnected-(J1-ID_SD_I2C0{slash}GPIO00-Pad27)*%
X58970000Y-82390000D03*
%TO.P,J1,28,ID_SC_I2C0/GPIO01*%
%TO.N,unconnected-(J1-ID_SC_I2C0{slash}GPIO01-Pad28)*%
X56430000Y-82390000D03*
%TO.P,J1,29,GPCLK1/GPIO05*%
%TO.N,unconnected-(J1-GPCLK1{slash}GPIO05-Pad29)*%
X58970000Y-84930000D03*
%TO.P,J1,30,GND*%
%TO.N,Net-(J2-Pin_4)*%
X56430000Y-84930000D03*
%TO.P,J1,31,GPCLK2/GPIO06*%
%TO.N,unconnected-(J1-GPCLK2{slash}GPIO06-Pad31)*%
X58970000Y-87470000D03*
%TO.P,J1,32,GPIO12/PWM0*%
%TO.N,unconnected-(J1-GPIO12{slash}PWM0-Pad32)*%
X56430000Y-87470000D03*
%TO.P,J1,33,GPIO13/PWM1*%
%TO.N,unconnected-(J1-GPIO13{slash}PWM1-Pad33)*%
X58970000Y-90010000D03*
%TO.P,J1,34,GND*%
%TO.N,Net-(J2-Pin_4)*%
X56430000Y-90010000D03*
%TO.P,J1,35,GPIO19/SPI1_MISO/PCM_FS*%
%TO.N,Net-(J1-GPIO19{slash}SPI1_MISO{slash}PCM_FS)*%
X58970000Y-92550000D03*
%TO.P,J1,36,GPIO16/SPI1_~{CE2}*%
%TO.N,unconnected-(J1-GPIO16{slash}SPI1_~{CE2}-Pad36)*%
X56430000Y-92550000D03*
%TO.P,J1,37,GPIO26/SDIO_DAT2*%
%TO.N,Net-(J1-GPIO26{slash}SDIO_DAT2)*%
X58970000Y-95090000D03*
%TO.P,J1,38,GPIO20/SPI1_MOSI/PCM_DIN/PWM1*%
%TO.N,Net-(J1-GPIO20{slash}SPI1_MOSI{slash}PCM_DIN{slash}PWM1)*%
X56430000Y-95090000D03*
%TO.P,J1,39,GND*%
%TO.N,Net-(J2-Pin_4)*%
X58970000Y-97630000D03*
%TO.P,J1,40,GPIO21/SPI1_SCLK/PCM_DOUT*%
%TO.N,Net-(J1-GPIO21{slash}SPI1_SCLK{slash}PCM_DOUT)*%
X56430000Y-97630000D03*
%TD*%
D12*
%TO.P,R1,1*%
%TO.N,Net-(J1-GPIO17{slash}SPI1_~{CE1})*%
X64500000Y-49000000D03*
D13*
%TO.P,R1,2*%
%TO.N,Net-(J2-Pin_4)*%
X66400000Y-49000000D03*
%TD*%
D12*
%TO.P,R10,1*%
%TO.N,Net-(J1-GPIO19{slash}SPI1_MISO{slash}PCM_FS)*%
X64095000Y-81500000D03*
D13*
%TO.P,R10,2*%
%TO.N,Net-(J2-Pin_4)*%
X65995000Y-81500000D03*
%TD*%
D14*
%TO.P,Q1,1,G*%
%TO.N,Net-(J1-GPIO17{slash}SPI1_~{CE1})*%
X66500000Y-92580000D03*
D15*
%TO.P,Q1,2,D*%
%TO.N,Net-(J2-Pin_1)*%
X66500000Y-90040000D03*
%TO.P,Q1,3,S*%
%TO.N,Net-(J2-Pin_4)*%
X66500000Y-87500000D03*
%TD*%
D12*
%TO.P,R3,1*%
%TO.N,Net-(J1-GPIO22{slash}SDIO_CLK)*%
X64500000Y-52150000D03*
D13*
%TO.P,R3,2*%
%TO.N,Net-(J2-Pin_4)*%
X66400000Y-52150000D03*
%TD*%
D12*
%TO.P,R4,1*%
%TO.N,Net-(J1-GPIO23{slash}SDIO_CMD)*%
X64500000Y-55300000D03*
D13*
%TO.P,R4,2*%
%TO.N,Net-(J2-Pin_4)*%
X66400000Y-55300000D03*
%TD*%
D12*
%TO.P,R6,1*%
%TO.N,Net-(J1-GPIO25{slash}SDIO_DAT1)*%
X64500000Y-61600000D03*
D13*
%TO.P,R6,2*%
%TO.N,Net-(J2-Pin_4)*%
X66400000Y-61600000D03*
%TD*%
D16*
%TO.P,J2,1,Pin_1*%
%TO.N,Net-(J2-Pin_1)*%
X74000000Y-104000000D03*
D17*
%TO.P,J2,2,Pin_2*%
%TO.N,Net-(J2-Pin_2)*%
X74000000Y-99000000D03*
%TO.P,J2,3,Pin_3*%
%TO.N,Net-(J1-GPIO21{slash}SPI1_SCLK{slash}PCM_DOUT)*%
X74000000Y-94000000D03*
%TO.P,J2,4,Pin_4*%
%TO.N,Net-(J2-Pin_4)*%
X74000000Y-89000000D03*
%TO.P,J2,5,Pin_5*%
X74000000Y-84000000D03*
%TO.P,J2,6,Pin_6*%
%TO.N,Net-(J1-GPIO22{slash}SDIO_CLK)*%
X74000000Y-79000000D03*
%TO.P,J2,7,Pin_7*%
%TO.N,Net-(J1-GPIO23{slash}SDIO_CMD)*%
X74000000Y-74000000D03*
%TO.P,J2,8,Pin_8*%
%TO.N,Net-(J1-GPIO24{slash}SDIO_DAT0)*%
X74000000Y-69000000D03*
%TO.P,J2,9,Pin_9*%
%TO.N,Net-(J1-GPIO25{slash}SDIO_DAT1)*%
X74000000Y-64000000D03*
%TO.P,J2,10,Pin_10*%
%TO.N,Net-(J1-GPIO26{slash}SDIO_DAT2)*%
X74000000Y-59000000D03*
%TO.P,J2,11,Pin_11*%
%TO.N,Net-(J1-GPIO27{slash}SDIO_DAT3)*%
X74000000Y-54000000D03*
%TO.P,J2,12,Pin_12*%
%TO.N,Net-(J1-GPIO20{slash}SPI1_MOSI{slash}PCM_DIN{slash}PWM1)*%
X74000000Y-49000000D03*
%TO.P,J2,13,Pin_13*%
%TO.N,Net-(J1-GPIO19{slash}SPI1_MISO{slash}PCM_FS)*%
X74000000Y-44000000D03*
%TD*%
D12*
%TO.P,R5,1*%
%TO.N,Net-(J1-GPIO24{slash}SDIO_DAT0)*%
X64500000Y-58450000D03*
D13*
%TO.P,R5,2*%
%TO.N,Net-(J2-Pin_4)*%
X66400000Y-58450000D03*
%TD*%
D12*
%TO.P,R9,1*%
%TO.N,Net-(J1-GPIO20{slash}SPI1_MOSI{slash}PCM_DIN{slash}PWM1)*%
X64500000Y-71050000D03*
D13*
%TO.P,R9,2*%
%TO.N,Net-(J2-Pin_4)*%
X66400000Y-71050000D03*
%TD*%
D12*
%TO.P,R7,1*%
%TO.N,Net-(J1-GPIO26{slash}SDIO_DAT2)*%
X64500000Y-64750000D03*
D13*
%TO.P,R7,2*%
%TO.N,Net-(J2-Pin_4)*%
X66400000Y-64750000D03*
%TD*%
D12*
%TO.P,R8,1*%
%TO.N,Net-(J1-GPIO27{slash}SDIO_DAT3)*%
X64500000Y-67900000D03*
D13*
%TO.P,R8,2*%
%TO.N,Net-(J2-Pin_4)*%
X66400000Y-67900000D03*
%TD*%
D18*
%TO.N,Net-(J2-Pin_2)*%
X68447600Y-53180000D03*
%TO.N,Net-(J1-GPIO26{slash}SDIO_DAT2)*%
X61838600Y-64750000D03*
%TO.N,Net-(J1-GPIO25{slash}SDIO_DAT1)*%
X62842000Y-73429300D03*
%TO.N,Net-(J1-GPIO20{slash}SPI1_MOSI{slash}PCM_DIN{slash}PWM1)*%
X69794800Y-91325800D03*
X69794800Y-72097800D03*
%TO.N,Net-(J1-GPIO27{slash}SDIO_DAT3)*%
X63471600Y-63627200D03*
%TD*%
D19*
%TO.N,Net-(J2-Pin_4)*%
X56430000Y-55601700D02*
X56717900Y-55601700D01*
X56640100Y-65761700D02*
X56430000Y-65761700D01*
X66400000Y-64750000D02*
X66400000Y-61600000D01*
X58970000Y-59530000D02*
X57818300Y-59530000D01*
X56709700Y-68325400D02*
X57818300Y-69434000D01*
X56430000Y-72230000D02*
X56430000Y-71078300D01*
X56430000Y-71078300D02*
X56717900Y-71078300D01*
X56430000Y-54450000D02*
X56430000Y-55601700D01*
X56430000Y-84930000D02*
X56430000Y-86081700D01*
X58970000Y-49370000D02*
X58970000Y-50521700D01*
X65995000Y-82501700D02*
X66400000Y-82501700D01*
X66500000Y-86245800D02*
X66400000Y-86145800D01*
X57818300Y-54501300D02*
X56717900Y-55601700D01*
X57700000Y-56583800D02*
X57700000Y-59530000D01*
X55976600Y-68325400D02*
X56709700Y-68325400D01*
X58682000Y-50521700D02*
X57818300Y-51385400D01*
X56698500Y-65703300D02*
X56640100Y-65761700D01*
X56717900Y-86081700D02*
X57615800Y-86979600D01*
X56698500Y-64221700D02*
X56698500Y-65703300D01*
X66400000Y-55300000D02*
X66400000Y-52150000D01*
X57615800Y-95392600D02*
X58701500Y-96478300D01*
X56189500Y-65761700D02*
X55278300Y-66672900D01*
X57700000Y-63220200D02*
X56698500Y-64221700D01*
X57818300Y-51385400D02*
X57818300Y-54501300D01*
X56430000Y-90010000D02*
X56430000Y-88858300D01*
X56430000Y-65761700D02*
X56189500Y-65761700D01*
X55278300Y-67627100D02*
X55976600Y-68325400D01*
X57615800Y-88858300D02*
X56430000Y-88858300D01*
X58970000Y-97630000D02*
X58970000Y-96478300D01*
X66400000Y-86145800D02*
X66400000Y-82501700D01*
X58701500Y-96478300D02*
X58970000Y-96478300D01*
X66400000Y-61600000D02*
X66400000Y-58450000D01*
X56430000Y-86081700D02*
X56717900Y-86081700D01*
X58970000Y-50521700D02*
X58682000Y-50521700D01*
X57818300Y-69434000D02*
X57818300Y-69690000D01*
X66500000Y-87500000D02*
X66500000Y-86245800D01*
X66400000Y-67900000D02*
X66400000Y-64750000D01*
X57615800Y-88858300D02*
X57615800Y-95392600D01*
X57615800Y-86979600D02*
X57615800Y-88858300D01*
X66400000Y-82501700D02*
X66400000Y-71050000D01*
X58970000Y-69690000D02*
X57818300Y-69690000D01*
X55278300Y-66672900D02*
X55278300Y-67627100D01*
X56430000Y-64610000D02*
X56430000Y-65761700D01*
X57700000Y-59530000D02*
X57700000Y-63220200D01*
X56717900Y-71078300D02*
X57818300Y-69977900D01*
X66400000Y-52150000D02*
X66400000Y-49000000D01*
X75000000Y-83500000D02*
X75000000Y-88500000D01*
X56717900Y-55601700D02*
X57700000Y-56583800D01*
X57818300Y-59530000D02*
X57700000Y-59530000D01*
X65995000Y-81500000D02*
X65995000Y-82501700D01*
X57818300Y-69977900D02*
X57818300Y-69690000D01*
X66400000Y-58450000D02*
X66400000Y-55300000D01*
%TO.N,Net-(J2-Pin_1)*%
X66500000Y-91294200D02*
X67595300Y-91294200D01*
X67935300Y-96435300D02*
X75000000Y-103500000D01*
X67935300Y-91634200D02*
X67935300Y-96435300D01*
X66500000Y-90040000D02*
X66500000Y-91294200D01*
X67595300Y-91294200D02*
X67935300Y-91634200D01*
%TO.N,Net-(J1-GPIO17{slash}SPI1_~{CE1})*%
X60162900Y-53337100D02*
X60162900Y-59993900D01*
X62529500Y-64586900D02*
X62069100Y-64126500D01*
X59447100Y-68301700D02*
X58492900Y-68301700D01*
X57818300Y-64132900D02*
X58729500Y-63221700D01*
X57818300Y-67627100D02*
X57818300Y-64132900D01*
X58729500Y-63221700D02*
X58970000Y-63221700D01*
X58970000Y-62070000D02*
X58970000Y-63221700D01*
X62240300Y-73180200D02*
X62529500Y-72891000D01*
X60162900Y-59993900D02*
X59238500Y-60918300D01*
X62069100Y-64126500D02*
X61586700Y-64126500D01*
X64500000Y-49000000D02*
X60162900Y-53337100D01*
X62529500Y-72891000D02*
X62529500Y-64586900D01*
X62240300Y-88320300D02*
X62240300Y-73180200D01*
X61125000Y-66623800D02*
X59447100Y-68301700D01*
X59238500Y-60918300D02*
X58970000Y-60918300D01*
X66500000Y-92580000D02*
X62240300Y-88320300D01*
X58970000Y-62070000D02*
X58970000Y-60918300D01*
X61586700Y-64126500D02*
X61125000Y-64588200D01*
X61125000Y-64588200D02*
X61125000Y-66623800D01*
X58492900Y-68301700D02*
X57818300Y-67627100D01*
%TO.N,Net-(J2-Pin_2)*%
X68447600Y-53180000D02*
X68447600Y-91947600D01*
X56430000Y-51910000D02*
X56430000Y-49370000D01*
X68447600Y-91947600D02*
X75000000Y-98500000D01*
%TO.N,Net-(J1-GPIO26{slash}SDIO_DAT2)*%
X58970000Y-95090000D02*
X58970000Y-93938300D01*
X61838600Y-91338200D02*
X61838600Y-64750000D01*
X59238500Y-93938300D02*
X61838600Y-91338200D01*
X58970000Y-93938300D02*
X59238500Y-93938300D01*
%TO.N,Net-(J1-GPIO25{slash}SDIO_DAT1)*%
X64500000Y-61600000D02*
X62847700Y-63252300D01*
X63043100Y-64049500D02*
X63043100Y-73228200D01*
X62847700Y-63252300D02*
X62847700Y-63854100D01*
X63043100Y-73228200D02*
X62842000Y-73429300D01*
X62847700Y-63854100D02*
X63043100Y-64049500D01*
%TO.N,Net-(J1-GPIO19{slash}SPI1_MISO{slash}PCM_FS)*%
X63444800Y-70656700D02*
X64742500Y-69359000D01*
X64742500Y-69359000D02*
X66386400Y-69359000D01*
X67606800Y-50893200D02*
X75000000Y-43500000D01*
X67606800Y-68138600D02*
X67606800Y-50893200D01*
X64095000Y-81500000D02*
X63444800Y-80849800D01*
X63444800Y-80849800D02*
X63444800Y-70656700D01*
X66386400Y-69359000D02*
X67606800Y-68138600D01*
%TO.N,Net-(J1-GPIO22{slash}SDIO_CLK)*%
X60723300Y-64513500D02*
X59238500Y-65998300D01*
X58970000Y-67150000D02*
X58970000Y-65998300D01*
X59238500Y-65998300D02*
X58970000Y-65998300D01*
X60723300Y-55926700D02*
X60723300Y-64513500D01*
X64500000Y-52150000D02*
X60723300Y-55926700D01*
%TO.N,Net-(J1-GPIO20{slash}SPI1_MOSI{slash}PCM_DIN{slash}PWM1)*%
X69794800Y-53705200D02*
X69794800Y-72097800D01*
X75000000Y-48500000D02*
X69794800Y-53705200D01*
X69794800Y-72097800D02*
X69794800Y-91325800D01*
%TO.N,Net-(J1-GPIO27{slash}SDIO_DAT3)*%
X63471600Y-63627200D02*
X63471600Y-66871600D01*
X63471600Y-66871600D02*
X64500000Y-67900000D01*
%TD*%
M02*
