%TF.GenerationSoftware,KiCad,Pcbnew,8.0.8*%
%TF.CreationDate,2025-02-15T16:15:48-08:00*%
%TF.ProjectId,PhonePiHat,50686f6e-6550-4694-9861-742e6b696361,rev?*%
%TF.SameCoordinates,Original*%
%TF.FileFunction,Legend,Top*%
%TF.FilePolarity,Positive*%
%FSLAX46Y46*%
G04 Gerber Fmt 4.6, Leading zero omitted, Abs format (unit mm)*
G04 Created by KiCad (PCBNEW 8.0.8) date 2025-02-15 16:15:48*
%MOMM*%
%LPD*%
G01*
G04 APERTURE LIST*
%ADD10C,0.100000*%
%ADD11C,0.150000*%
%ADD12C,0.120000*%
G04 APERTURE END LIST*
D10*
X79783884Y-105932419D02*
X79783884Y-104932419D01*
X79783884Y-104932419D02*
X80164836Y-104932419D01*
X80164836Y-104932419D02*
X80260074Y-104980038D01*
X80260074Y-104980038D02*
X80307693Y-105027657D01*
X80307693Y-105027657D02*
X80355312Y-105122895D01*
X80355312Y-105122895D02*
X80355312Y-105265752D01*
X80355312Y-105265752D02*
X80307693Y-105360990D01*
X80307693Y-105360990D02*
X80260074Y-105408609D01*
X80260074Y-105408609D02*
X80164836Y-105456228D01*
X80164836Y-105456228D02*
X79783884Y-105456228D01*
X81212455Y-105265752D02*
X81212455Y-105932419D01*
X80783884Y-105265752D02*
X80783884Y-105789561D01*
X80783884Y-105789561D02*
X80831503Y-105884800D01*
X80831503Y-105884800D02*
X80926741Y-105932419D01*
X80926741Y-105932419D02*
X81069598Y-105932419D01*
X81069598Y-105932419D02*
X81164836Y-105884800D01*
X81164836Y-105884800D02*
X81212455Y-105837180D01*
X81641027Y-105884800D02*
X81736265Y-105932419D01*
X81736265Y-105932419D02*
X81926741Y-105932419D01*
X81926741Y-105932419D02*
X82021979Y-105884800D01*
X82021979Y-105884800D02*
X82069598Y-105789561D01*
X82069598Y-105789561D02*
X82069598Y-105741942D01*
X82069598Y-105741942D02*
X82021979Y-105646704D01*
X82021979Y-105646704D02*
X81926741Y-105599085D01*
X81926741Y-105599085D02*
X81783884Y-105599085D01*
X81783884Y-105599085D02*
X81688646Y-105551466D01*
X81688646Y-105551466D02*
X81641027Y-105456228D01*
X81641027Y-105456228D02*
X81641027Y-105408609D01*
X81641027Y-105408609D02*
X81688646Y-105313371D01*
X81688646Y-105313371D02*
X81783884Y-105265752D01*
X81783884Y-105265752D02*
X81926741Y-105265752D01*
X81926741Y-105265752D02*
X82021979Y-105313371D01*
X82498170Y-105932419D02*
X82498170Y-104932419D01*
X82926741Y-105932419D02*
X82926741Y-105408609D01*
X82926741Y-105408609D02*
X82879122Y-105313371D01*
X82879122Y-105313371D02*
X82783884Y-105265752D01*
X82783884Y-105265752D02*
X82641027Y-105265752D01*
X82641027Y-105265752D02*
X82545789Y-105313371D01*
X82545789Y-105313371D02*
X82498170Y-105360990D01*
X84307694Y-105360990D02*
X84212456Y-105313371D01*
X84212456Y-105313371D02*
X84164837Y-105265752D01*
X84164837Y-105265752D02*
X84117218Y-105170514D01*
X84117218Y-105170514D02*
X84117218Y-105122895D01*
X84117218Y-105122895D02*
X84164837Y-105027657D01*
X84164837Y-105027657D02*
X84212456Y-104980038D01*
X84212456Y-104980038D02*
X84307694Y-104932419D01*
X84307694Y-104932419D02*
X84498170Y-104932419D01*
X84498170Y-104932419D02*
X84593408Y-104980038D01*
X84593408Y-104980038D02*
X84641027Y-105027657D01*
X84641027Y-105027657D02*
X84688646Y-105122895D01*
X84688646Y-105122895D02*
X84688646Y-105170514D01*
X84688646Y-105170514D02*
X84641027Y-105265752D01*
X84641027Y-105265752D02*
X84593408Y-105313371D01*
X84593408Y-105313371D02*
X84498170Y-105360990D01*
X84498170Y-105360990D02*
X84307694Y-105360990D01*
X84307694Y-105360990D02*
X84212456Y-105408609D01*
X84212456Y-105408609D02*
X84164837Y-105456228D01*
X84164837Y-105456228D02*
X84117218Y-105551466D01*
X84117218Y-105551466D02*
X84117218Y-105741942D01*
X84117218Y-105741942D02*
X84164837Y-105837180D01*
X84164837Y-105837180D02*
X84212456Y-105884800D01*
X84212456Y-105884800D02*
X84307694Y-105932419D01*
X84307694Y-105932419D02*
X84498170Y-105932419D01*
X84498170Y-105932419D02*
X84593408Y-105884800D01*
X84593408Y-105884800D02*
X84641027Y-105837180D01*
X84641027Y-105837180D02*
X84688646Y-105741942D01*
X84688646Y-105741942D02*
X84688646Y-105551466D01*
X84688646Y-105551466D02*
X84641027Y-105456228D01*
X84641027Y-105456228D02*
X84593408Y-105408609D01*
X84593408Y-105408609D02*
X84498170Y-105360990D01*
X79803884Y-98872419D02*
X79803884Y-97872419D01*
X79803884Y-97872419D02*
X80184836Y-97872419D01*
X80184836Y-97872419D02*
X80280074Y-97920038D01*
X80280074Y-97920038D02*
X80327693Y-97967657D01*
X80327693Y-97967657D02*
X80375312Y-98062895D01*
X80375312Y-98062895D02*
X80375312Y-98205752D01*
X80375312Y-98205752D02*
X80327693Y-98300990D01*
X80327693Y-98300990D02*
X80280074Y-98348609D01*
X80280074Y-98348609D02*
X80184836Y-98396228D01*
X80184836Y-98396228D02*
X79803884Y-98396228D01*
X81232455Y-98205752D02*
X81232455Y-98872419D01*
X80803884Y-98205752D02*
X80803884Y-98729561D01*
X80803884Y-98729561D02*
X80851503Y-98824800D01*
X80851503Y-98824800D02*
X80946741Y-98872419D01*
X80946741Y-98872419D02*
X81089598Y-98872419D01*
X81089598Y-98872419D02*
X81184836Y-98824800D01*
X81184836Y-98824800D02*
X81232455Y-98777180D01*
X81661027Y-98824800D02*
X81756265Y-98872419D01*
X81756265Y-98872419D02*
X81946741Y-98872419D01*
X81946741Y-98872419D02*
X82041979Y-98824800D01*
X82041979Y-98824800D02*
X82089598Y-98729561D01*
X82089598Y-98729561D02*
X82089598Y-98681942D01*
X82089598Y-98681942D02*
X82041979Y-98586704D01*
X82041979Y-98586704D02*
X81946741Y-98539085D01*
X81946741Y-98539085D02*
X81803884Y-98539085D01*
X81803884Y-98539085D02*
X81708646Y-98491466D01*
X81708646Y-98491466D02*
X81661027Y-98396228D01*
X81661027Y-98396228D02*
X81661027Y-98348609D01*
X81661027Y-98348609D02*
X81708646Y-98253371D01*
X81708646Y-98253371D02*
X81803884Y-98205752D01*
X81803884Y-98205752D02*
X81946741Y-98205752D01*
X81946741Y-98205752D02*
X82041979Y-98253371D01*
X82518170Y-98872419D02*
X82518170Y-97872419D01*
X82946741Y-98872419D02*
X82946741Y-98348609D01*
X82946741Y-98348609D02*
X82899122Y-98253371D01*
X82899122Y-98253371D02*
X82803884Y-98205752D01*
X82803884Y-98205752D02*
X82661027Y-98205752D01*
X82661027Y-98205752D02*
X82565789Y-98253371D01*
X82565789Y-98253371D02*
X82518170Y-98300990D01*
X84089599Y-97872419D02*
X84756265Y-97872419D01*
X84756265Y-97872419D02*
X84327694Y-98872419D01*
X80303884Y-94372419D02*
X80303884Y-93372419D01*
X80303884Y-93372419D02*
X80684836Y-93372419D01*
X80684836Y-93372419D02*
X80780074Y-93420038D01*
X80780074Y-93420038D02*
X80827693Y-93467657D01*
X80827693Y-93467657D02*
X80875312Y-93562895D01*
X80875312Y-93562895D02*
X80875312Y-93705752D01*
X80875312Y-93705752D02*
X80827693Y-93800990D01*
X80827693Y-93800990D02*
X80780074Y-93848609D01*
X80780074Y-93848609D02*
X80684836Y-93896228D01*
X80684836Y-93896228D02*
X80303884Y-93896228D01*
X81732455Y-93705752D02*
X81732455Y-94372419D01*
X81303884Y-93705752D02*
X81303884Y-94229561D01*
X81303884Y-94229561D02*
X81351503Y-94324800D01*
X81351503Y-94324800D02*
X81446741Y-94372419D01*
X81446741Y-94372419D02*
X81589598Y-94372419D01*
X81589598Y-94372419D02*
X81684836Y-94324800D01*
X81684836Y-94324800D02*
X81732455Y-94277180D01*
X82161027Y-94324800D02*
X82256265Y-94372419D01*
X82256265Y-94372419D02*
X82446741Y-94372419D01*
X82446741Y-94372419D02*
X82541979Y-94324800D01*
X82541979Y-94324800D02*
X82589598Y-94229561D01*
X82589598Y-94229561D02*
X82589598Y-94181942D01*
X82589598Y-94181942D02*
X82541979Y-94086704D01*
X82541979Y-94086704D02*
X82446741Y-94039085D01*
X82446741Y-94039085D02*
X82303884Y-94039085D01*
X82303884Y-94039085D02*
X82208646Y-93991466D01*
X82208646Y-93991466D02*
X82161027Y-93896228D01*
X82161027Y-93896228D02*
X82161027Y-93848609D01*
X82161027Y-93848609D02*
X82208646Y-93753371D01*
X82208646Y-93753371D02*
X82303884Y-93705752D01*
X82303884Y-93705752D02*
X82446741Y-93705752D01*
X82446741Y-93705752D02*
X82541979Y-93753371D01*
X83018170Y-94372419D02*
X83018170Y-93372419D01*
X83446741Y-94372419D02*
X83446741Y-93848609D01*
X83446741Y-93848609D02*
X83399122Y-93753371D01*
X83399122Y-93753371D02*
X83303884Y-93705752D01*
X83303884Y-93705752D02*
X83161027Y-93705752D01*
X83161027Y-93705752D02*
X83065789Y-93753371D01*
X83065789Y-93753371D02*
X83018170Y-93800990D01*
X85113408Y-93372419D02*
X84922932Y-93372419D01*
X84922932Y-93372419D02*
X84827694Y-93420038D01*
X84827694Y-93420038D02*
X84780075Y-93467657D01*
X84780075Y-93467657D02*
X84684837Y-93610514D01*
X84684837Y-93610514D02*
X84637218Y-93800990D01*
X84637218Y-93800990D02*
X84637218Y-94181942D01*
X84637218Y-94181942D02*
X84684837Y-94277180D01*
X84684837Y-94277180D02*
X84732456Y-94324800D01*
X84732456Y-94324800D02*
X84827694Y-94372419D01*
X84827694Y-94372419D02*
X85018170Y-94372419D01*
X85018170Y-94372419D02*
X85113408Y-94324800D01*
X85113408Y-94324800D02*
X85161027Y-94277180D01*
X85161027Y-94277180D02*
X85208646Y-94181942D01*
X85208646Y-94181942D02*
X85208646Y-93943847D01*
X85208646Y-93943847D02*
X85161027Y-93848609D01*
X85161027Y-93848609D02*
X85113408Y-93800990D01*
X85113408Y-93800990D02*
X85018170Y-93753371D01*
X85018170Y-93753371D02*
X84827694Y-93753371D01*
X84827694Y-93753371D02*
X84732456Y-93800990D01*
X84732456Y-93800990D02*
X84684837Y-93848609D01*
X84684837Y-93848609D02*
X84637218Y-93943847D01*
X80303884Y-89372419D02*
X80303884Y-88372419D01*
X80303884Y-88372419D02*
X80684836Y-88372419D01*
X80684836Y-88372419D02*
X80780074Y-88420038D01*
X80780074Y-88420038D02*
X80827693Y-88467657D01*
X80827693Y-88467657D02*
X80875312Y-88562895D01*
X80875312Y-88562895D02*
X80875312Y-88705752D01*
X80875312Y-88705752D02*
X80827693Y-88800990D01*
X80827693Y-88800990D02*
X80780074Y-88848609D01*
X80780074Y-88848609D02*
X80684836Y-88896228D01*
X80684836Y-88896228D02*
X80303884Y-88896228D01*
X81732455Y-88705752D02*
X81732455Y-89372419D01*
X81303884Y-88705752D02*
X81303884Y-89229561D01*
X81303884Y-89229561D02*
X81351503Y-89324800D01*
X81351503Y-89324800D02*
X81446741Y-89372419D01*
X81446741Y-89372419D02*
X81589598Y-89372419D01*
X81589598Y-89372419D02*
X81684836Y-89324800D01*
X81684836Y-89324800D02*
X81732455Y-89277180D01*
X82161027Y-89324800D02*
X82256265Y-89372419D01*
X82256265Y-89372419D02*
X82446741Y-89372419D01*
X82446741Y-89372419D02*
X82541979Y-89324800D01*
X82541979Y-89324800D02*
X82589598Y-89229561D01*
X82589598Y-89229561D02*
X82589598Y-89181942D01*
X82589598Y-89181942D02*
X82541979Y-89086704D01*
X82541979Y-89086704D02*
X82446741Y-89039085D01*
X82446741Y-89039085D02*
X82303884Y-89039085D01*
X82303884Y-89039085D02*
X82208646Y-88991466D01*
X82208646Y-88991466D02*
X82161027Y-88896228D01*
X82161027Y-88896228D02*
X82161027Y-88848609D01*
X82161027Y-88848609D02*
X82208646Y-88753371D01*
X82208646Y-88753371D02*
X82303884Y-88705752D01*
X82303884Y-88705752D02*
X82446741Y-88705752D01*
X82446741Y-88705752D02*
X82541979Y-88753371D01*
X83018170Y-89372419D02*
X83018170Y-88372419D01*
X83446741Y-89372419D02*
X83446741Y-88848609D01*
X83446741Y-88848609D02*
X83399122Y-88753371D01*
X83399122Y-88753371D02*
X83303884Y-88705752D01*
X83303884Y-88705752D02*
X83161027Y-88705752D01*
X83161027Y-88705752D02*
X83065789Y-88753371D01*
X83065789Y-88753371D02*
X83018170Y-88800990D01*
X85161027Y-88372419D02*
X84684837Y-88372419D01*
X84684837Y-88372419D02*
X84637218Y-88848609D01*
X84637218Y-88848609D02*
X84684837Y-88800990D01*
X84684837Y-88800990D02*
X84780075Y-88753371D01*
X84780075Y-88753371D02*
X85018170Y-88753371D01*
X85018170Y-88753371D02*
X85113408Y-88800990D01*
X85113408Y-88800990D02*
X85161027Y-88848609D01*
X85161027Y-88848609D02*
X85208646Y-88943847D01*
X85208646Y-88943847D02*
X85208646Y-89181942D01*
X85208646Y-89181942D02*
X85161027Y-89277180D01*
X85161027Y-89277180D02*
X85113408Y-89324800D01*
X85113408Y-89324800D02*
X85018170Y-89372419D01*
X85018170Y-89372419D02*
X84780075Y-89372419D01*
X84780075Y-89372419D02*
X84684837Y-89324800D01*
X84684837Y-89324800D02*
X84637218Y-89277180D01*
X80303884Y-84372419D02*
X80303884Y-83372419D01*
X80303884Y-83372419D02*
X80684836Y-83372419D01*
X80684836Y-83372419D02*
X80780074Y-83420038D01*
X80780074Y-83420038D02*
X80827693Y-83467657D01*
X80827693Y-83467657D02*
X80875312Y-83562895D01*
X80875312Y-83562895D02*
X80875312Y-83705752D01*
X80875312Y-83705752D02*
X80827693Y-83800990D01*
X80827693Y-83800990D02*
X80780074Y-83848609D01*
X80780074Y-83848609D02*
X80684836Y-83896228D01*
X80684836Y-83896228D02*
X80303884Y-83896228D01*
X81732455Y-83705752D02*
X81732455Y-84372419D01*
X81303884Y-83705752D02*
X81303884Y-84229561D01*
X81303884Y-84229561D02*
X81351503Y-84324800D01*
X81351503Y-84324800D02*
X81446741Y-84372419D01*
X81446741Y-84372419D02*
X81589598Y-84372419D01*
X81589598Y-84372419D02*
X81684836Y-84324800D01*
X81684836Y-84324800D02*
X81732455Y-84277180D01*
X82161027Y-84324800D02*
X82256265Y-84372419D01*
X82256265Y-84372419D02*
X82446741Y-84372419D01*
X82446741Y-84372419D02*
X82541979Y-84324800D01*
X82541979Y-84324800D02*
X82589598Y-84229561D01*
X82589598Y-84229561D02*
X82589598Y-84181942D01*
X82589598Y-84181942D02*
X82541979Y-84086704D01*
X82541979Y-84086704D02*
X82446741Y-84039085D01*
X82446741Y-84039085D02*
X82303884Y-84039085D01*
X82303884Y-84039085D02*
X82208646Y-83991466D01*
X82208646Y-83991466D02*
X82161027Y-83896228D01*
X82161027Y-83896228D02*
X82161027Y-83848609D01*
X82161027Y-83848609D02*
X82208646Y-83753371D01*
X82208646Y-83753371D02*
X82303884Y-83705752D01*
X82303884Y-83705752D02*
X82446741Y-83705752D01*
X82446741Y-83705752D02*
X82541979Y-83753371D01*
X83018170Y-84372419D02*
X83018170Y-83372419D01*
X83446741Y-84372419D02*
X83446741Y-83848609D01*
X83446741Y-83848609D02*
X83399122Y-83753371D01*
X83399122Y-83753371D02*
X83303884Y-83705752D01*
X83303884Y-83705752D02*
X83161027Y-83705752D01*
X83161027Y-83705752D02*
X83065789Y-83753371D01*
X83065789Y-83753371D02*
X83018170Y-83800990D01*
X85113408Y-83705752D02*
X85113408Y-84372419D01*
X84875313Y-83324800D02*
X84637218Y-84039085D01*
X84637218Y-84039085D02*
X85256265Y-84039085D01*
X80303884Y-79372419D02*
X80303884Y-78372419D01*
X80303884Y-78372419D02*
X80684836Y-78372419D01*
X80684836Y-78372419D02*
X80780074Y-78420038D01*
X80780074Y-78420038D02*
X80827693Y-78467657D01*
X80827693Y-78467657D02*
X80875312Y-78562895D01*
X80875312Y-78562895D02*
X80875312Y-78705752D01*
X80875312Y-78705752D02*
X80827693Y-78800990D01*
X80827693Y-78800990D02*
X80780074Y-78848609D01*
X80780074Y-78848609D02*
X80684836Y-78896228D01*
X80684836Y-78896228D02*
X80303884Y-78896228D01*
X81732455Y-78705752D02*
X81732455Y-79372419D01*
X81303884Y-78705752D02*
X81303884Y-79229561D01*
X81303884Y-79229561D02*
X81351503Y-79324800D01*
X81351503Y-79324800D02*
X81446741Y-79372419D01*
X81446741Y-79372419D02*
X81589598Y-79372419D01*
X81589598Y-79372419D02*
X81684836Y-79324800D01*
X81684836Y-79324800D02*
X81732455Y-79277180D01*
X82161027Y-79324800D02*
X82256265Y-79372419D01*
X82256265Y-79372419D02*
X82446741Y-79372419D01*
X82446741Y-79372419D02*
X82541979Y-79324800D01*
X82541979Y-79324800D02*
X82589598Y-79229561D01*
X82589598Y-79229561D02*
X82589598Y-79181942D01*
X82589598Y-79181942D02*
X82541979Y-79086704D01*
X82541979Y-79086704D02*
X82446741Y-79039085D01*
X82446741Y-79039085D02*
X82303884Y-79039085D01*
X82303884Y-79039085D02*
X82208646Y-78991466D01*
X82208646Y-78991466D02*
X82161027Y-78896228D01*
X82161027Y-78896228D02*
X82161027Y-78848609D01*
X82161027Y-78848609D02*
X82208646Y-78753371D01*
X82208646Y-78753371D02*
X82303884Y-78705752D01*
X82303884Y-78705752D02*
X82446741Y-78705752D01*
X82446741Y-78705752D02*
X82541979Y-78753371D01*
X83018170Y-79372419D02*
X83018170Y-78372419D01*
X83446741Y-79372419D02*
X83446741Y-78848609D01*
X83446741Y-78848609D02*
X83399122Y-78753371D01*
X83399122Y-78753371D02*
X83303884Y-78705752D01*
X83303884Y-78705752D02*
X83161027Y-78705752D01*
X83161027Y-78705752D02*
X83065789Y-78753371D01*
X83065789Y-78753371D02*
X83018170Y-78800990D01*
X84589599Y-78372419D02*
X85208646Y-78372419D01*
X85208646Y-78372419D02*
X84875313Y-78753371D01*
X84875313Y-78753371D02*
X85018170Y-78753371D01*
X85018170Y-78753371D02*
X85113408Y-78800990D01*
X85113408Y-78800990D02*
X85161027Y-78848609D01*
X85161027Y-78848609D02*
X85208646Y-78943847D01*
X85208646Y-78943847D02*
X85208646Y-79181942D01*
X85208646Y-79181942D02*
X85161027Y-79277180D01*
X85161027Y-79277180D02*
X85113408Y-79324800D01*
X85113408Y-79324800D02*
X85018170Y-79372419D01*
X85018170Y-79372419D02*
X84732456Y-79372419D01*
X84732456Y-79372419D02*
X84637218Y-79324800D01*
X84637218Y-79324800D02*
X84589599Y-79277180D01*
X80303884Y-74372419D02*
X80303884Y-73372419D01*
X80303884Y-73372419D02*
X80684836Y-73372419D01*
X80684836Y-73372419D02*
X80780074Y-73420038D01*
X80780074Y-73420038D02*
X80827693Y-73467657D01*
X80827693Y-73467657D02*
X80875312Y-73562895D01*
X80875312Y-73562895D02*
X80875312Y-73705752D01*
X80875312Y-73705752D02*
X80827693Y-73800990D01*
X80827693Y-73800990D02*
X80780074Y-73848609D01*
X80780074Y-73848609D02*
X80684836Y-73896228D01*
X80684836Y-73896228D02*
X80303884Y-73896228D01*
X81732455Y-73705752D02*
X81732455Y-74372419D01*
X81303884Y-73705752D02*
X81303884Y-74229561D01*
X81303884Y-74229561D02*
X81351503Y-74324800D01*
X81351503Y-74324800D02*
X81446741Y-74372419D01*
X81446741Y-74372419D02*
X81589598Y-74372419D01*
X81589598Y-74372419D02*
X81684836Y-74324800D01*
X81684836Y-74324800D02*
X81732455Y-74277180D01*
X82161027Y-74324800D02*
X82256265Y-74372419D01*
X82256265Y-74372419D02*
X82446741Y-74372419D01*
X82446741Y-74372419D02*
X82541979Y-74324800D01*
X82541979Y-74324800D02*
X82589598Y-74229561D01*
X82589598Y-74229561D02*
X82589598Y-74181942D01*
X82589598Y-74181942D02*
X82541979Y-74086704D01*
X82541979Y-74086704D02*
X82446741Y-74039085D01*
X82446741Y-74039085D02*
X82303884Y-74039085D01*
X82303884Y-74039085D02*
X82208646Y-73991466D01*
X82208646Y-73991466D02*
X82161027Y-73896228D01*
X82161027Y-73896228D02*
X82161027Y-73848609D01*
X82161027Y-73848609D02*
X82208646Y-73753371D01*
X82208646Y-73753371D02*
X82303884Y-73705752D01*
X82303884Y-73705752D02*
X82446741Y-73705752D01*
X82446741Y-73705752D02*
X82541979Y-73753371D01*
X83018170Y-74372419D02*
X83018170Y-73372419D01*
X83446741Y-74372419D02*
X83446741Y-73848609D01*
X83446741Y-73848609D02*
X83399122Y-73753371D01*
X83399122Y-73753371D02*
X83303884Y-73705752D01*
X83303884Y-73705752D02*
X83161027Y-73705752D01*
X83161027Y-73705752D02*
X83065789Y-73753371D01*
X83065789Y-73753371D02*
X83018170Y-73800990D01*
X84637218Y-73467657D02*
X84684837Y-73420038D01*
X84684837Y-73420038D02*
X84780075Y-73372419D01*
X84780075Y-73372419D02*
X85018170Y-73372419D01*
X85018170Y-73372419D02*
X85113408Y-73420038D01*
X85113408Y-73420038D02*
X85161027Y-73467657D01*
X85161027Y-73467657D02*
X85208646Y-73562895D01*
X85208646Y-73562895D02*
X85208646Y-73658133D01*
X85208646Y-73658133D02*
X85161027Y-73800990D01*
X85161027Y-73800990D02*
X84589599Y-74372419D01*
X84589599Y-74372419D02*
X85208646Y-74372419D01*
X80303884Y-69372419D02*
X80303884Y-68372419D01*
X80303884Y-68372419D02*
X80684836Y-68372419D01*
X80684836Y-68372419D02*
X80780074Y-68420038D01*
X80780074Y-68420038D02*
X80827693Y-68467657D01*
X80827693Y-68467657D02*
X80875312Y-68562895D01*
X80875312Y-68562895D02*
X80875312Y-68705752D01*
X80875312Y-68705752D02*
X80827693Y-68800990D01*
X80827693Y-68800990D02*
X80780074Y-68848609D01*
X80780074Y-68848609D02*
X80684836Y-68896228D01*
X80684836Y-68896228D02*
X80303884Y-68896228D01*
X81732455Y-68705752D02*
X81732455Y-69372419D01*
X81303884Y-68705752D02*
X81303884Y-69229561D01*
X81303884Y-69229561D02*
X81351503Y-69324800D01*
X81351503Y-69324800D02*
X81446741Y-69372419D01*
X81446741Y-69372419D02*
X81589598Y-69372419D01*
X81589598Y-69372419D02*
X81684836Y-69324800D01*
X81684836Y-69324800D02*
X81732455Y-69277180D01*
X82161027Y-69324800D02*
X82256265Y-69372419D01*
X82256265Y-69372419D02*
X82446741Y-69372419D01*
X82446741Y-69372419D02*
X82541979Y-69324800D01*
X82541979Y-69324800D02*
X82589598Y-69229561D01*
X82589598Y-69229561D02*
X82589598Y-69181942D01*
X82589598Y-69181942D02*
X82541979Y-69086704D01*
X82541979Y-69086704D02*
X82446741Y-69039085D01*
X82446741Y-69039085D02*
X82303884Y-69039085D01*
X82303884Y-69039085D02*
X82208646Y-68991466D01*
X82208646Y-68991466D02*
X82161027Y-68896228D01*
X82161027Y-68896228D02*
X82161027Y-68848609D01*
X82161027Y-68848609D02*
X82208646Y-68753371D01*
X82208646Y-68753371D02*
X82303884Y-68705752D01*
X82303884Y-68705752D02*
X82446741Y-68705752D01*
X82446741Y-68705752D02*
X82541979Y-68753371D01*
X83018170Y-69372419D02*
X83018170Y-68372419D01*
X83446741Y-69372419D02*
X83446741Y-68848609D01*
X83446741Y-68848609D02*
X83399122Y-68753371D01*
X83399122Y-68753371D02*
X83303884Y-68705752D01*
X83303884Y-68705752D02*
X83161027Y-68705752D01*
X83161027Y-68705752D02*
X83065789Y-68753371D01*
X83065789Y-68753371D02*
X83018170Y-68800990D01*
X85208646Y-69372419D02*
X84637218Y-69372419D01*
X84922932Y-69372419D02*
X84922932Y-68372419D01*
X84922932Y-68372419D02*
X84827694Y-68515276D01*
X84827694Y-68515276D02*
X84732456Y-68610514D01*
X84732456Y-68610514D02*
X84637218Y-68658133D01*
X80375312Y-63777180D02*
X80327693Y-63824800D01*
X80327693Y-63824800D02*
X80184836Y-63872419D01*
X80184836Y-63872419D02*
X80089598Y-63872419D01*
X80089598Y-63872419D02*
X79946741Y-63824800D01*
X79946741Y-63824800D02*
X79851503Y-63729561D01*
X79851503Y-63729561D02*
X79803884Y-63634323D01*
X79803884Y-63634323D02*
X79756265Y-63443847D01*
X79756265Y-63443847D02*
X79756265Y-63300990D01*
X79756265Y-63300990D02*
X79803884Y-63110514D01*
X79803884Y-63110514D02*
X79851503Y-63015276D01*
X79851503Y-63015276D02*
X79946741Y-62920038D01*
X79946741Y-62920038D02*
X80089598Y-62872419D01*
X80089598Y-62872419D02*
X80184836Y-62872419D01*
X80184836Y-62872419D02*
X80327693Y-62920038D01*
X80327693Y-62920038D02*
X80375312Y-62967657D01*
X80946741Y-63872419D02*
X80851503Y-63824800D01*
X80851503Y-63824800D02*
X80803884Y-63777180D01*
X80803884Y-63777180D02*
X80756265Y-63681942D01*
X80756265Y-63681942D02*
X80756265Y-63396228D01*
X80756265Y-63396228D02*
X80803884Y-63300990D01*
X80803884Y-63300990D02*
X80851503Y-63253371D01*
X80851503Y-63253371D02*
X80946741Y-63205752D01*
X80946741Y-63205752D02*
X81089598Y-63205752D01*
X81089598Y-63205752D02*
X81184836Y-63253371D01*
X81184836Y-63253371D02*
X81232455Y-63300990D01*
X81232455Y-63300990D02*
X81280074Y-63396228D01*
X81280074Y-63396228D02*
X81280074Y-63681942D01*
X81280074Y-63681942D02*
X81232455Y-63777180D01*
X81232455Y-63777180D02*
X81184836Y-63824800D01*
X81184836Y-63824800D02*
X81089598Y-63872419D01*
X81089598Y-63872419D02*
X80946741Y-63872419D01*
X81708646Y-63872419D02*
X81708646Y-63205752D01*
X81708646Y-63300990D02*
X81756265Y-63253371D01*
X81756265Y-63253371D02*
X81851503Y-63205752D01*
X81851503Y-63205752D02*
X81994360Y-63205752D01*
X81994360Y-63205752D02*
X82089598Y-63253371D01*
X82089598Y-63253371D02*
X82137217Y-63348609D01*
X82137217Y-63348609D02*
X82137217Y-63872419D01*
X82137217Y-63348609D02*
X82184836Y-63253371D01*
X82184836Y-63253371D02*
X82280074Y-63205752D01*
X82280074Y-63205752D02*
X82422931Y-63205752D01*
X82422931Y-63205752D02*
X82518170Y-63253371D01*
X82518170Y-63253371D02*
X82565789Y-63348609D01*
X82565789Y-63348609D02*
X82565789Y-63872419D01*
X83041979Y-63872419D02*
X83041979Y-63205752D01*
X83041979Y-63300990D02*
X83089598Y-63253371D01*
X83089598Y-63253371D02*
X83184836Y-63205752D01*
X83184836Y-63205752D02*
X83327693Y-63205752D01*
X83327693Y-63205752D02*
X83422931Y-63253371D01*
X83422931Y-63253371D02*
X83470550Y-63348609D01*
X83470550Y-63348609D02*
X83470550Y-63872419D01*
X83470550Y-63348609D02*
X83518169Y-63253371D01*
X83518169Y-63253371D02*
X83613407Y-63205752D01*
X83613407Y-63205752D02*
X83756264Y-63205752D01*
X83756264Y-63205752D02*
X83851503Y-63253371D01*
X83851503Y-63253371D02*
X83899122Y-63348609D01*
X83899122Y-63348609D02*
X83899122Y-63872419D01*
X84518169Y-63872419D02*
X84422931Y-63824800D01*
X84422931Y-63824800D02*
X84375312Y-63777180D01*
X84375312Y-63777180D02*
X84327693Y-63681942D01*
X84327693Y-63681942D02*
X84327693Y-63396228D01*
X84327693Y-63396228D02*
X84375312Y-63300990D01*
X84375312Y-63300990D02*
X84422931Y-63253371D01*
X84422931Y-63253371D02*
X84518169Y-63205752D01*
X84518169Y-63205752D02*
X84661026Y-63205752D01*
X84661026Y-63205752D02*
X84756264Y-63253371D01*
X84756264Y-63253371D02*
X84803883Y-63300990D01*
X84803883Y-63300990D02*
X84851502Y-63396228D01*
X84851502Y-63396228D02*
X84851502Y-63681942D01*
X84851502Y-63681942D02*
X84803883Y-63777180D01*
X84803883Y-63777180D02*
X84756264Y-63824800D01*
X84756264Y-63824800D02*
X84661026Y-63872419D01*
X84661026Y-63872419D02*
X84518169Y-63872419D01*
X85280074Y-63205752D02*
X85280074Y-63872419D01*
X85280074Y-63300990D02*
X85327693Y-63253371D01*
X85327693Y-63253371D02*
X85422931Y-63205752D01*
X85422931Y-63205752D02*
X85565788Y-63205752D01*
X85565788Y-63205752D02*
X85661026Y-63253371D01*
X85661026Y-63253371D02*
X85708645Y-63348609D01*
X85708645Y-63348609D02*
X85708645Y-63872419D01*
X82303884Y-59372419D02*
X82303884Y-58372419D01*
X82303884Y-58848609D02*
X82875312Y-58848609D01*
X82875312Y-59372419D02*
X82875312Y-58372419D01*
X83494360Y-59372419D02*
X83399122Y-59324800D01*
X83399122Y-59324800D02*
X83351503Y-59277180D01*
X83351503Y-59277180D02*
X83303884Y-59181942D01*
X83303884Y-59181942D02*
X83303884Y-58896228D01*
X83303884Y-58896228D02*
X83351503Y-58800990D01*
X83351503Y-58800990D02*
X83399122Y-58753371D01*
X83399122Y-58753371D02*
X83494360Y-58705752D01*
X83494360Y-58705752D02*
X83637217Y-58705752D01*
X83637217Y-58705752D02*
X83732455Y-58753371D01*
X83732455Y-58753371D02*
X83780074Y-58800990D01*
X83780074Y-58800990D02*
X83827693Y-58896228D01*
X83827693Y-58896228D02*
X83827693Y-59181942D01*
X83827693Y-59181942D02*
X83780074Y-59277180D01*
X83780074Y-59277180D02*
X83732455Y-59324800D01*
X83732455Y-59324800D02*
X83637217Y-59372419D01*
X83637217Y-59372419D02*
X83494360Y-59372419D01*
X84399122Y-59372419D02*
X84303884Y-59324800D01*
X84303884Y-59324800D02*
X84256265Y-59277180D01*
X84256265Y-59277180D02*
X84208646Y-59181942D01*
X84208646Y-59181942D02*
X84208646Y-58896228D01*
X84208646Y-58896228D02*
X84256265Y-58800990D01*
X84256265Y-58800990D02*
X84303884Y-58753371D01*
X84303884Y-58753371D02*
X84399122Y-58705752D01*
X84399122Y-58705752D02*
X84541979Y-58705752D01*
X84541979Y-58705752D02*
X84637217Y-58753371D01*
X84637217Y-58753371D02*
X84684836Y-58800990D01*
X84684836Y-58800990D02*
X84732455Y-58896228D01*
X84732455Y-58896228D02*
X84732455Y-59181942D01*
X84732455Y-59181942D02*
X84684836Y-59277180D01*
X84684836Y-59277180D02*
X84637217Y-59324800D01*
X84637217Y-59324800D02*
X84541979Y-59372419D01*
X84541979Y-59372419D02*
X84399122Y-59372419D01*
X85161027Y-59372419D02*
X85161027Y-58372419D01*
X85256265Y-58991466D02*
X85541979Y-59372419D01*
X85541979Y-58705752D02*
X85161027Y-59086704D01*
X82303884Y-53872419D02*
X82303884Y-52872419D01*
X82303884Y-53348609D02*
X82875312Y-53348609D01*
X82875312Y-53872419D02*
X82875312Y-52872419D01*
X83494360Y-53872419D02*
X83399122Y-53824800D01*
X83399122Y-53824800D02*
X83351503Y-53777180D01*
X83351503Y-53777180D02*
X83303884Y-53681942D01*
X83303884Y-53681942D02*
X83303884Y-53396228D01*
X83303884Y-53396228D02*
X83351503Y-53300990D01*
X83351503Y-53300990D02*
X83399122Y-53253371D01*
X83399122Y-53253371D02*
X83494360Y-53205752D01*
X83494360Y-53205752D02*
X83637217Y-53205752D01*
X83637217Y-53205752D02*
X83732455Y-53253371D01*
X83732455Y-53253371D02*
X83780074Y-53300990D01*
X83780074Y-53300990D02*
X83827693Y-53396228D01*
X83827693Y-53396228D02*
X83827693Y-53681942D01*
X83827693Y-53681942D02*
X83780074Y-53777180D01*
X83780074Y-53777180D02*
X83732455Y-53824800D01*
X83732455Y-53824800D02*
X83637217Y-53872419D01*
X83637217Y-53872419D02*
X83494360Y-53872419D01*
X84399122Y-53872419D02*
X84303884Y-53824800D01*
X84303884Y-53824800D02*
X84256265Y-53777180D01*
X84256265Y-53777180D02*
X84208646Y-53681942D01*
X84208646Y-53681942D02*
X84208646Y-53396228D01*
X84208646Y-53396228D02*
X84256265Y-53300990D01*
X84256265Y-53300990D02*
X84303884Y-53253371D01*
X84303884Y-53253371D02*
X84399122Y-53205752D01*
X84399122Y-53205752D02*
X84541979Y-53205752D01*
X84541979Y-53205752D02*
X84637217Y-53253371D01*
X84637217Y-53253371D02*
X84684836Y-53300990D01*
X84684836Y-53300990D02*
X84732455Y-53396228D01*
X84732455Y-53396228D02*
X84732455Y-53681942D01*
X84732455Y-53681942D02*
X84684836Y-53777180D01*
X84684836Y-53777180D02*
X84637217Y-53824800D01*
X84637217Y-53824800D02*
X84541979Y-53872419D01*
X84541979Y-53872419D02*
X84399122Y-53872419D01*
X85161027Y-53872419D02*
X85161027Y-52872419D01*
X85256265Y-53491466D02*
X85541979Y-53872419D01*
X85541979Y-53205752D02*
X85161027Y-53586704D01*
D11*
X83170112Y-48346009D02*
X83312969Y-48393628D01*
X83312969Y-48393628D02*
X83360588Y-48441247D01*
X83360588Y-48441247D02*
X83408207Y-48536485D01*
X83408207Y-48536485D02*
X83408207Y-48679342D01*
X83408207Y-48679342D02*
X83360588Y-48774580D01*
X83360588Y-48774580D02*
X83312969Y-48822200D01*
X83312969Y-48822200D02*
X83217731Y-48869819D01*
X83217731Y-48869819D02*
X82836779Y-48869819D01*
X82836779Y-48869819D02*
X82836779Y-47869819D01*
X82836779Y-47869819D02*
X83170112Y-47869819D01*
X83170112Y-47869819D02*
X83265350Y-47917438D01*
X83265350Y-47917438D02*
X83312969Y-47965057D01*
X83312969Y-47965057D02*
X83360588Y-48060295D01*
X83360588Y-48060295D02*
X83360588Y-48155533D01*
X83360588Y-48155533D02*
X83312969Y-48250771D01*
X83312969Y-48250771D02*
X83265350Y-48298390D01*
X83265350Y-48298390D02*
X83170112Y-48346009D01*
X83170112Y-48346009D02*
X82836779Y-48346009D01*
X84217731Y-48822200D02*
X84122493Y-48869819D01*
X84122493Y-48869819D02*
X83932017Y-48869819D01*
X83932017Y-48869819D02*
X83836779Y-48822200D01*
X83836779Y-48822200D02*
X83789160Y-48726961D01*
X83789160Y-48726961D02*
X83789160Y-48346009D01*
X83789160Y-48346009D02*
X83836779Y-48250771D01*
X83836779Y-48250771D02*
X83932017Y-48203152D01*
X83932017Y-48203152D02*
X84122493Y-48203152D01*
X84122493Y-48203152D02*
X84217731Y-48250771D01*
X84217731Y-48250771D02*
X84265350Y-48346009D01*
X84265350Y-48346009D02*
X84265350Y-48441247D01*
X84265350Y-48441247D02*
X83789160Y-48536485D01*
X84836779Y-48869819D02*
X84741541Y-48822200D01*
X84741541Y-48822200D02*
X84693922Y-48726961D01*
X84693922Y-48726961D02*
X84693922Y-47869819D01*
X85360589Y-48869819D02*
X85265351Y-48822200D01*
X85265351Y-48822200D02*
X85217732Y-48726961D01*
X85217732Y-48726961D02*
X85217732Y-47869819D01*
X83170112Y-44346009D02*
X83312969Y-44393628D01*
X83312969Y-44393628D02*
X83360588Y-44441247D01*
X83360588Y-44441247D02*
X83408207Y-44536485D01*
X83408207Y-44536485D02*
X83408207Y-44679342D01*
X83408207Y-44679342D02*
X83360588Y-44774580D01*
X83360588Y-44774580D02*
X83312969Y-44822200D01*
X83312969Y-44822200D02*
X83217731Y-44869819D01*
X83217731Y-44869819D02*
X82836779Y-44869819D01*
X82836779Y-44869819D02*
X82836779Y-43869819D01*
X82836779Y-43869819D02*
X83170112Y-43869819D01*
X83170112Y-43869819D02*
X83265350Y-43917438D01*
X83265350Y-43917438D02*
X83312969Y-43965057D01*
X83312969Y-43965057D02*
X83360588Y-44060295D01*
X83360588Y-44060295D02*
X83360588Y-44155533D01*
X83360588Y-44155533D02*
X83312969Y-44250771D01*
X83312969Y-44250771D02*
X83265350Y-44298390D01*
X83265350Y-44298390D02*
X83170112Y-44346009D01*
X83170112Y-44346009D02*
X82836779Y-44346009D01*
X84217731Y-44822200D02*
X84122493Y-44869819D01*
X84122493Y-44869819D02*
X83932017Y-44869819D01*
X83932017Y-44869819D02*
X83836779Y-44822200D01*
X83836779Y-44822200D02*
X83789160Y-44726961D01*
X83789160Y-44726961D02*
X83789160Y-44346009D01*
X83789160Y-44346009D02*
X83836779Y-44250771D01*
X83836779Y-44250771D02*
X83932017Y-44203152D01*
X83932017Y-44203152D02*
X84122493Y-44203152D01*
X84122493Y-44203152D02*
X84217731Y-44250771D01*
X84217731Y-44250771D02*
X84265350Y-44346009D01*
X84265350Y-44346009D02*
X84265350Y-44441247D01*
X84265350Y-44441247D02*
X83789160Y-44536485D01*
X84836779Y-44869819D02*
X84741541Y-44822200D01*
X84741541Y-44822200D02*
X84693922Y-44726961D01*
X84693922Y-44726961D02*
X84693922Y-43869819D01*
X85360589Y-44869819D02*
X85265351Y-44822200D01*
X85265351Y-44822200D02*
X85217732Y-44726961D01*
X85217732Y-44726961D02*
X85217732Y-43869819D01*
X52154819Y-73833333D02*
X52869104Y-73833333D01*
X52869104Y-73833333D02*
X53011961Y-73880952D01*
X53011961Y-73880952D02*
X53107200Y-73976190D01*
X53107200Y-73976190D02*
X53154819Y-74119047D01*
X53154819Y-74119047D02*
X53154819Y-74214285D01*
X53154819Y-72833333D02*
X53154819Y-73404761D01*
X53154819Y-73119047D02*
X52154819Y-73119047D01*
X52154819Y-73119047D02*
X52297676Y-73214285D01*
X52297676Y-73214285D02*
X52392914Y-73309523D01*
X52392914Y-73309523D02*
X52440533Y-73404761D01*
X65283333Y-47534819D02*
X64950000Y-47058628D01*
X64711905Y-47534819D02*
X64711905Y-46534819D01*
X64711905Y-46534819D02*
X65092857Y-46534819D01*
X65092857Y-46534819D02*
X65188095Y-46582438D01*
X65188095Y-46582438D02*
X65235714Y-46630057D01*
X65235714Y-46630057D02*
X65283333Y-46725295D01*
X65283333Y-46725295D02*
X65283333Y-46868152D01*
X65283333Y-46868152D02*
X65235714Y-46963390D01*
X65235714Y-46963390D02*
X65188095Y-47011009D01*
X65188095Y-47011009D02*
X65092857Y-47058628D01*
X65092857Y-47058628D02*
X64711905Y-47058628D01*
X66235714Y-47534819D02*
X65664286Y-47534819D01*
X65950000Y-47534819D02*
X65950000Y-46534819D01*
X65950000Y-46534819D02*
X65854762Y-46677676D01*
X65854762Y-46677676D02*
X65759524Y-46772914D01*
X65759524Y-46772914D02*
X65664286Y-46820533D01*
X64402142Y-80034819D02*
X64068809Y-79558628D01*
X63830714Y-80034819D02*
X63830714Y-79034819D01*
X63830714Y-79034819D02*
X64211666Y-79034819D01*
X64211666Y-79034819D02*
X64306904Y-79082438D01*
X64306904Y-79082438D02*
X64354523Y-79130057D01*
X64354523Y-79130057D02*
X64402142Y-79225295D01*
X64402142Y-79225295D02*
X64402142Y-79368152D01*
X64402142Y-79368152D02*
X64354523Y-79463390D01*
X64354523Y-79463390D02*
X64306904Y-79511009D01*
X64306904Y-79511009D02*
X64211666Y-79558628D01*
X64211666Y-79558628D02*
X63830714Y-79558628D01*
X65354523Y-80034819D02*
X64783095Y-80034819D01*
X65068809Y-80034819D02*
X65068809Y-79034819D01*
X65068809Y-79034819D02*
X64973571Y-79177676D01*
X64973571Y-79177676D02*
X64878333Y-79272914D01*
X64878333Y-79272914D02*
X64783095Y-79320533D01*
X65973571Y-79034819D02*
X66068809Y-79034819D01*
X66068809Y-79034819D02*
X66164047Y-79082438D01*
X66164047Y-79082438D02*
X66211666Y-79130057D01*
X66211666Y-79130057D02*
X66259285Y-79225295D01*
X66259285Y-79225295D02*
X66306904Y-79415771D01*
X66306904Y-79415771D02*
X66306904Y-79653866D01*
X66306904Y-79653866D02*
X66259285Y-79844342D01*
X66259285Y-79844342D02*
X66211666Y-79939580D01*
X66211666Y-79939580D02*
X66164047Y-79987200D01*
X66164047Y-79987200D02*
X66068809Y-80034819D01*
X66068809Y-80034819D02*
X65973571Y-80034819D01*
X65973571Y-80034819D02*
X65878333Y-79987200D01*
X65878333Y-79987200D02*
X65830714Y-79939580D01*
X65830714Y-79939580D02*
X65783095Y-79844342D01*
X65783095Y-79844342D02*
X65735476Y-79653866D01*
X65735476Y-79653866D02*
X65735476Y-79415771D01*
X65735476Y-79415771D02*
X65783095Y-79225295D01*
X65783095Y-79225295D02*
X65830714Y-79130057D01*
X65830714Y-79130057D02*
X65878333Y-79082438D01*
X65878333Y-79082438D02*
X65973571Y-79034819D01*
X62780057Y-90135238D02*
X62732438Y-90230476D01*
X62732438Y-90230476D02*
X62637200Y-90325714D01*
X62637200Y-90325714D02*
X62494342Y-90468571D01*
X62494342Y-90468571D02*
X62446723Y-90563809D01*
X62446723Y-90563809D02*
X62446723Y-90659047D01*
X62684819Y-90611428D02*
X62637200Y-90706666D01*
X62637200Y-90706666D02*
X62541961Y-90801904D01*
X62541961Y-90801904D02*
X62351485Y-90849523D01*
X62351485Y-90849523D02*
X62018152Y-90849523D01*
X62018152Y-90849523D02*
X61827676Y-90801904D01*
X61827676Y-90801904D02*
X61732438Y-90706666D01*
X61732438Y-90706666D02*
X61684819Y-90611428D01*
X61684819Y-90611428D02*
X61684819Y-90420952D01*
X61684819Y-90420952D02*
X61732438Y-90325714D01*
X61732438Y-90325714D02*
X61827676Y-90230476D01*
X61827676Y-90230476D02*
X62018152Y-90182857D01*
X62018152Y-90182857D02*
X62351485Y-90182857D01*
X62351485Y-90182857D02*
X62541961Y-90230476D01*
X62541961Y-90230476D02*
X62637200Y-90325714D01*
X62637200Y-90325714D02*
X62684819Y-90420952D01*
X62684819Y-90420952D02*
X62684819Y-90611428D01*
X62684819Y-89230476D02*
X62684819Y-89801904D01*
X62684819Y-89516190D02*
X61684819Y-89516190D01*
X61684819Y-89516190D02*
X61827676Y-89611428D01*
X61827676Y-89611428D02*
X61922914Y-89706666D01*
X61922914Y-89706666D02*
X61970533Y-89801904D01*
X65283333Y-50684819D02*
X64950000Y-50208628D01*
X64711905Y-50684819D02*
X64711905Y-49684819D01*
X64711905Y-49684819D02*
X65092857Y-49684819D01*
X65092857Y-49684819D02*
X65188095Y-49732438D01*
X65188095Y-49732438D02*
X65235714Y-49780057D01*
X65235714Y-49780057D02*
X65283333Y-49875295D01*
X65283333Y-49875295D02*
X65283333Y-50018152D01*
X65283333Y-50018152D02*
X65235714Y-50113390D01*
X65235714Y-50113390D02*
X65188095Y-50161009D01*
X65188095Y-50161009D02*
X65092857Y-50208628D01*
X65092857Y-50208628D02*
X64711905Y-50208628D01*
X65616667Y-49684819D02*
X66235714Y-49684819D01*
X66235714Y-49684819D02*
X65902381Y-50065771D01*
X65902381Y-50065771D02*
X66045238Y-50065771D01*
X66045238Y-50065771D02*
X66140476Y-50113390D01*
X66140476Y-50113390D02*
X66188095Y-50161009D01*
X66188095Y-50161009D02*
X66235714Y-50256247D01*
X66235714Y-50256247D02*
X66235714Y-50494342D01*
X66235714Y-50494342D02*
X66188095Y-50589580D01*
X66188095Y-50589580D02*
X66140476Y-50637200D01*
X66140476Y-50637200D02*
X66045238Y-50684819D01*
X66045238Y-50684819D02*
X65759524Y-50684819D01*
X65759524Y-50684819D02*
X65664286Y-50637200D01*
X65664286Y-50637200D02*
X65616667Y-50589580D01*
X65283333Y-53834819D02*
X64950000Y-53358628D01*
X64711905Y-53834819D02*
X64711905Y-52834819D01*
X64711905Y-52834819D02*
X65092857Y-52834819D01*
X65092857Y-52834819D02*
X65188095Y-52882438D01*
X65188095Y-52882438D02*
X65235714Y-52930057D01*
X65235714Y-52930057D02*
X65283333Y-53025295D01*
X65283333Y-53025295D02*
X65283333Y-53168152D01*
X65283333Y-53168152D02*
X65235714Y-53263390D01*
X65235714Y-53263390D02*
X65188095Y-53311009D01*
X65188095Y-53311009D02*
X65092857Y-53358628D01*
X65092857Y-53358628D02*
X64711905Y-53358628D01*
X66140476Y-53168152D02*
X66140476Y-53834819D01*
X65902381Y-52787200D02*
X65664286Y-53501485D01*
X65664286Y-53501485D02*
X66283333Y-53501485D01*
X65283333Y-60134819D02*
X64950000Y-59658628D01*
X64711905Y-60134819D02*
X64711905Y-59134819D01*
X64711905Y-59134819D02*
X65092857Y-59134819D01*
X65092857Y-59134819D02*
X65188095Y-59182438D01*
X65188095Y-59182438D02*
X65235714Y-59230057D01*
X65235714Y-59230057D02*
X65283333Y-59325295D01*
X65283333Y-59325295D02*
X65283333Y-59468152D01*
X65283333Y-59468152D02*
X65235714Y-59563390D01*
X65235714Y-59563390D02*
X65188095Y-59611009D01*
X65188095Y-59611009D02*
X65092857Y-59658628D01*
X65092857Y-59658628D02*
X64711905Y-59658628D01*
X66140476Y-59134819D02*
X65950000Y-59134819D01*
X65950000Y-59134819D02*
X65854762Y-59182438D01*
X65854762Y-59182438D02*
X65807143Y-59230057D01*
X65807143Y-59230057D02*
X65711905Y-59372914D01*
X65711905Y-59372914D02*
X65664286Y-59563390D01*
X65664286Y-59563390D02*
X65664286Y-59944342D01*
X65664286Y-59944342D02*
X65711905Y-60039580D01*
X65711905Y-60039580D02*
X65759524Y-60087200D01*
X65759524Y-60087200D02*
X65854762Y-60134819D01*
X65854762Y-60134819D02*
X66045238Y-60134819D01*
X66045238Y-60134819D02*
X66140476Y-60087200D01*
X66140476Y-60087200D02*
X66188095Y-60039580D01*
X66188095Y-60039580D02*
X66235714Y-59944342D01*
X66235714Y-59944342D02*
X66235714Y-59706247D01*
X66235714Y-59706247D02*
X66188095Y-59611009D01*
X66188095Y-59611009D02*
X66140476Y-59563390D01*
X66140476Y-59563390D02*
X66045238Y-59515771D01*
X66045238Y-59515771D02*
X65854762Y-59515771D01*
X65854762Y-59515771D02*
X65759524Y-59563390D01*
X65759524Y-59563390D02*
X65711905Y-59611009D01*
X65711905Y-59611009D02*
X65664286Y-59706247D01*
X68334819Y-74583333D02*
X69049104Y-74583333D01*
X69049104Y-74583333D02*
X69191961Y-74630952D01*
X69191961Y-74630952D02*
X69287200Y-74726190D01*
X69287200Y-74726190D02*
X69334819Y-74869047D01*
X69334819Y-74869047D02*
X69334819Y-74964285D01*
X68430057Y-74154761D02*
X68382438Y-74107142D01*
X68382438Y-74107142D02*
X68334819Y-74011904D01*
X68334819Y-74011904D02*
X68334819Y-73773809D01*
X68334819Y-73773809D02*
X68382438Y-73678571D01*
X68382438Y-73678571D02*
X68430057Y-73630952D01*
X68430057Y-73630952D02*
X68525295Y-73583333D01*
X68525295Y-73583333D02*
X68620533Y-73583333D01*
X68620533Y-73583333D02*
X68763390Y-73630952D01*
X68763390Y-73630952D02*
X69334819Y-74202380D01*
X69334819Y-74202380D02*
X69334819Y-73583333D01*
X65283333Y-56984819D02*
X64950000Y-56508628D01*
X64711905Y-56984819D02*
X64711905Y-55984819D01*
X64711905Y-55984819D02*
X65092857Y-55984819D01*
X65092857Y-55984819D02*
X65188095Y-56032438D01*
X65188095Y-56032438D02*
X65235714Y-56080057D01*
X65235714Y-56080057D02*
X65283333Y-56175295D01*
X65283333Y-56175295D02*
X65283333Y-56318152D01*
X65283333Y-56318152D02*
X65235714Y-56413390D01*
X65235714Y-56413390D02*
X65188095Y-56461009D01*
X65188095Y-56461009D02*
X65092857Y-56508628D01*
X65092857Y-56508628D02*
X64711905Y-56508628D01*
X66188095Y-55984819D02*
X65711905Y-55984819D01*
X65711905Y-55984819D02*
X65664286Y-56461009D01*
X65664286Y-56461009D02*
X65711905Y-56413390D01*
X65711905Y-56413390D02*
X65807143Y-56365771D01*
X65807143Y-56365771D02*
X66045238Y-56365771D01*
X66045238Y-56365771D02*
X66140476Y-56413390D01*
X66140476Y-56413390D02*
X66188095Y-56461009D01*
X66188095Y-56461009D02*
X66235714Y-56556247D01*
X66235714Y-56556247D02*
X66235714Y-56794342D01*
X66235714Y-56794342D02*
X66188095Y-56889580D01*
X66188095Y-56889580D02*
X66140476Y-56937200D01*
X66140476Y-56937200D02*
X66045238Y-56984819D01*
X66045238Y-56984819D02*
X65807143Y-56984819D01*
X65807143Y-56984819D02*
X65711905Y-56937200D01*
X65711905Y-56937200D02*
X65664286Y-56889580D01*
X65283333Y-69584819D02*
X64950000Y-69108628D01*
X64711905Y-69584819D02*
X64711905Y-68584819D01*
X64711905Y-68584819D02*
X65092857Y-68584819D01*
X65092857Y-68584819D02*
X65188095Y-68632438D01*
X65188095Y-68632438D02*
X65235714Y-68680057D01*
X65235714Y-68680057D02*
X65283333Y-68775295D01*
X65283333Y-68775295D02*
X65283333Y-68918152D01*
X65283333Y-68918152D02*
X65235714Y-69013390D01*
X65235714Y-69013390D02*
X65188095Y-69061009D01*
X65188095Y-69061009D02*
X65092857Y-69108628D01*
X65092857Y-69108628D02*
X64711905Y-69108628D01*
X65759524Y-69584819D02*
X65950000Y-69584819D01*
X65950000Y-69584819D02*
X66045238Y-69537200D01*
X66045238Y-69537200D02*
X66092857Y-69489580D01*
X66092857Y-69489580D02*
X66188095Y-69346723D01*
X66188095Y-69346723D02*
X66235714Y-69156247D01*
X66235714Y-69156247D02*
X66235714Y-68775295D01*
X66235714Y-68775295D02*
X66188095Y-68680057D01*
X66188095Y-68680057D02*
X66140476Y-68632438D01*
X66140476Y-68632438D02*
X66045238Y-68584819D01*
X66045238Y-68584819D02*
X65854762Y-68584819D01*
X65854762Y-68584819D02*
X65759524Y-68632438D01*
X65759524Y-68632438D02*
X65711905Y-68680057D01*
X65711905Y-68680057D02*
X65664286Y-68775295D01*
X65664286Y-68775295D02*
X65664286Y-69013390D01*
X65664286Y-69013390D02*
X65711905Y-69108628D01*
X65711905Y-69108628D02*
X65759524Y-69156247D01*
X65759524Y-69156247D02*
X65854762Y-69203866D01*
X65854762Y-69203866D02*
X66045238Y-69203866D01*
X66045238Y-69203866D02*
X66140476Y-69156247D01*
X66140476Y-69156247D02*
X66188095Y-69108628D01*
X66188095Y-69108628D02*
X66235714Y-69013390D01*
X65283333Y-63284819D02*
X64950000Y-62808628D01*
X64711905Y-63284819D02*
X64711905Y-62284819D01*
X64711905Y-62284819D02*
X65092857Y-62284819D01*
X65092857Y-62284819D02*
X65188095Y-62332438D01*
X65188095Y-62332438D02*
X65235714Y-62380057D01*
X65235714Y-62380057D02*
X65283333Y-62475295D01*
X65283333Y-62475295D02*
X65283333Y-62618152D01*
X65283333Y-62618152D02*
X65235714Y-62713390D01*
X65235714Y-62713390D02*
X65188095Y-62761009D01*
X65188095Y-62761009D02*
X65092857Y-62808628D01*
X65092857Y-62808628D02*
X64711905Y-62808628D01*
X65616667Y-62284819D02*
X66283333Y-62284819D01*
X66283333Y-62284819D02*
X65854762Y-63284819D01*
X65283333Y-66434819D02*
X64950000Y-65958628D01*
X64711905Y-66434819D02*
X64711905Y-65434819D01*
X64711905Y-65434819D02*
X65092857Y-65434819D01*
X65092857Y-65434819D02*
X65188095Y-65482438D01*
X65188095Y-65482438D02*
X65235714Y-65530057D01*
X65235714Y-65530057D02*
X65283333Y-65625295D01*
X65283333Y-65625295D02*
X65283333Y-65768152D01*
X65283333Y-65768152D02*
X65235714Y-65863390D01*
X65235714Y-65863390D02*
X65188095Y-65911009D01*
X65188095Y-65911009D02*
X65092857Y-65958628D01*
X65092857Y-65958628D02*
X64711905Y-65958628D01*
X65854762Y-65863390D02*
X65759524Y-65815771D01*
X65759524Y-65815771D02*
X65711905Y-65768152D01*
X65711905Y-65768152D02*
X65664286Y-65672914D01*
X65664286Y-65672914D02*
X65664286Y-65625295D01*
X65664286Y-65625295D02*
X65711905Y-65530057D01*
X65711905Y-65530057D02*
X65759524Y-65482438D01*
X65759524Y-65482438D02*
X65854762Y-65434819D01*
X65854762Y-65434819D02*
X66045238Y-65434819D01*
X66045238Y-65434819D02*
X66140476Y-65482438D01*
X66140476Y-65482438D02*
X66188095Y-65530057D01*
X66188095Y-65530057D02*
X66235714Y-65625295D01*
X66235714Y-65625295D02*
X66235714Y-65672914D01*
X66235714Y-65672914D02*
X66188095Y-65768152D01*
X66188095Y-65768152D02*
X66140476Y-65815771D01*
X66140476Y-65815771D02*
X66045238Y-65863390D01*
X66045238Y-65863390D02*
X65854762Y-65863390D01*
X65854762Y-65863390D02*
X65759524Y-65911009D01*
X65759524Y-65911009D02*
X65711905Y-65958628D01*
X65711905Y-65958628D02*
X65664286Y-66053866D01*
X65664286Y-66053866D02*
X65664286Y-66244342D01*
X65664286Y-66244342D02*
X65711905Y-66339580D01*
X65711905Y-66339580D02*
X65759524Y-66387200D01*
X65759524Y-66387200D02*
X65854762Y-66434819D01*
X65854762Y-66434819D02*
X66045238Y-66434819D01*
X66045238Y-66434819D02*
X66140476Y-66387200D01*
X66140476Y-66387200D02*
X66188095Y-66339580D01*
X66188095Y-66339580D02*
X66235714Y-66244342D01*
X66235714Y-66244342D02*
X66235714Y-66053866D01*
X66235714Y-66053866D02*
X66188095Y-65958628D01*
X66188095Y-65958628D02*
X66140476Y-65911009D01*
X66140476Y-65911009D02*
X66045238Y-65863390D01*
D12*
%TO.C,J1*%
X54140000Y-103000000D02*
X54140000Y-44000000D01*
X55100000Y-48040000D02*
X55100000Y-98960000D01*
X55100000Y-48040000D02*
X57700000Y-48040000D01*
X55100000Y-98960000D02*
X60300000Y-98960000D01*
X57200000Y-40940000D02*
X81200000Y-40940000D01*
X57700000Y-48040000D02*
X57700000Y-50640000D01*
X57700000Y-50640000D02*
X60300000Y-50640000D01*
X58970000Y-48040000D02*
X60300000Y-48040000D01*
X60300000Y-48040000D02*
X60300000Y-49370000D01*
X60300000Y-50640000D02*
X60300000Y-98960000D01*
X60640000Y-106060000D02*
X57200000Y-106060000D01*
X60640000Y-106060000D02*
X60640000Y-107260000D01*
X60640000Y-107260000D02*
X77760000Y-107260000D01*
X77760000Y-106060000D02*
X81200000Y-106060000D01*
X77760000Y-107260000D02*
X77760000Y-106060000D01*
X84260000Y-47690000D02*
X84260000Y-44000000D01*
X84260000Y-59110000D02*
X84960000Y-59110000D01*
X84260000Y-78340000D02*
X84260000Y-59110000D01*
X84260000Y-86460000D02*
X86060000Y-86460000D01*
X84260000Y-90940000D02*
X84260000Y-86460000D01*
X84260000Y-99060000D02*
X86060000Y-99060000D01*
X84260000Y-103000000D02*
X84260000Y-99060000D01*
X84960000Y-47690000D02*
X84260000Y-47690000D01*
X84960000Y-59110000D02*
X84960000Y-47690000D01*
X86060000Y-78340000D02*
X84260000Y-78340000D01*
X86060000Y-86460000D02*
X86060000Y-78340000D01*
X86060000Y-90940000D02*
X84260000Y-90940000D01*
X86060000Y-99060000D02*
X86060000Y-90940000D01*
X54140000Y-44000000D02*
G75*
G02*
X57200000Y-40940000I3059999J1D01*
G01*
X57200000Y-106060000D02*
G75*
G02*
X54140000Y-103000000I-1J3059999D01*
G01*
X81200000Y-40940000D02*
G75*
G02*
X84260000Y-44000000I0J-3060000D01*
G01*
X84260000Y-103000000D02*
G75*
G02*
X81200000Y-106060000I-3060000J0D01*
G01*
%TO.C,R1*%
X64820095Y-49749359D02*
G75*
G02*
X64917133Y-48300000I-320095J749359D01*
G01*
%TO.C,R10*%
X64415095Y-82249359D02*
G75*
G02*
X64512133Y-80800000I-320095J749359D01*
G01*
%TO.C,Q1*%
X63230000Y-84920000D02*
X67871000Y-84920000D01*
X63230000Y-88189000D02*
X64740000Y-88189000D01*
X63230000Y-91890000D02*
X64740000Y-91890000D01*
X63230000Y-95160000D02*
X63230000Y-84920000D01*
X63230000Y-95160000D02*
X67871000Y-95160000D01*
X64740000Y-95160000D02*
X64740000Y-84920000D01*
X67871000Y-95160000D02*
X67871000Y-84920000D01*
%TO.C,R3*%
X64820095Y-52899359D02*
G75*
G02*
X64917133Y-51450000I-320095J749359D01*
G01*
%TO.C,R4*%
X64820095Y-56049359D02*
G75*
G02*
X64917133Y-54600000I-320095J749359D01*
G01*
%TO.C,R6*%
X64820095Y-62349359D02*
G75*
G02*
X64917133Y-60900000I-320095J749359D01*
G01*
%TO.C,J2*%
X69880000Y-41380000D02*
X77920000Y-41380000D01*
X69880000Y-107120000D02*
X69880000Y-41380000D01*
X69880000Y-107120000D02*
X77920000Y-107120000D01*
X72514000Y-42753000D02*
X72557000Y-42796000D01*
X72514000Y-47753000D02*
X72557000Y-47796000D01*
X72514000Y-52753000D02*
X72557000Y-52796000D01*
X72514000Y-57753000D02*
X72557000Y-57796000D01*
X72514000Y-62753000D02*
X72557000Y-62796000D01*
X72514000Y-67753000D02*
X72557000Y-67796000D01*
X72514000Y-72753000D02*
X72557000Y-72796000D01*
X72514000Y-77753000D02*
X72557000Y-77796000D01*
X72514000Y-82753000D02*
X72557000Y-82796000D01*
X72514000Y-87753000D02*
X72557000Y-87796000D01*
X72514000Y-92753000D02*
X72557000Y-92796000D01*
X72514000Y-97753000D02*
X72557000Y-97796000D01*
X72753000Y-42513000D02*
X72796000Y-42556000D01*
X72753000Y-47513000D02*
X72796000Y-47556000D01*
X72753000Y-52513000D02*
X72796000Y-52556000D01*
X72753000Y-57513000D02*
X72796000Y-57556000D01*
X72753000Y-62513000D02*
X72796000Y-62556000D01*
X72753000Y-67513000D02*
X72796000Y-67556000D01*
X72753000Y-72513000D02*
X72796000Y-72556000D01*
X72753000Y-77513000D02*
X72796000Y-77556000D01*
X72753000Y-82513000D02*
X72796000Y-82556000D01*
X72753000Y-87513000D02*
X72796000Y-87556000D01*
X72753000Y-92513000D02*
X72796000Y-92556000D01*
X72753000Y-97513000D02*
X72796000Y-97556000D01*
X73500000Y-42188000D02*
X73500000Y-41380000D01*
X73500000Y-47188000D02*
X73500000Y-45812000D01*
X73500000Y-52188000D02*
X73500000Y-50812000D01*
X73500000Y-57188000D02*
X73500000Y-55812000D01*
X73500000Y-62188000D02*
X73500000Y-60812000D01*
X73500000Y-67188000D02*
X73500000Y-65812000D01*
X73500000Y-72188000D02*
X73500000Y-70812000D01*
X73500000Y-77188000D02*
X73500000Y-75812000D01*
X73500000Y-82188000D02*
X73500000Y-80812000D01*
X73500000Y-87188000D02*
X73500000Y-85812000D01*
X73500000Y-92188000D02*
X73500000Y-90812000D01*
X73500000Y-97188000D02*
X73500000Y-95812000D01*
X73500000Y-102120000D02*
X73500000Y-100812000D01*
X73500000Y-107120000D02*
X73500000Y-105880000D01*
X74500000Y-42188000D02*
X74500000Y-41380000D01*
X74500000Y-47188000D02*
X74500000Y-45812000D01*
X74500000Y-52188000D02*
X74500000Y-50812000D01*
X74500000Y-57188000D02*
X74500000Y-55812000D01*
X74500000Y-62188000D02*
X74500000Y-60812000D01*
X74500000Y-67188000D02*
X74500000Y-65812000D01*
X74500000Y-72188000D02*
X74500000Y-70812000D01*
X74500000Y-77188000D02*
X74500000Y-75812000D01*
X74500000Y-82188000D02*
X74500000Y-80812000D01*
X74500000Y-87188000D02*
X74500000Y-85812000D01*
X74500000Y-92188000D02*
X74500000Y-90812000D01*
X74500000Y-97188000D02*
X74500000Y-95812000D01*
X74500000Y-102120000D02*
X74500000Y-100812000D01*
X74500000Y-107120000D02*
X74500000Y-105880000D01*
X75204000Y-45444000D02*
X75247000Y-45487000D01*
X75204000Y-50444000D02*
X75247000Y-50487000D01*
X75204000Y-55444000D02*
X75247000Y-55487000D01*
X75204000Y-60444000D02*
X75247000Y-60487000D01*
X75204000Y-65444000D02*
X75247000Y-65487000D01*
X75204000Y-70444000D02*
X75247000Y-70487000D01*
X75204000Y-75444000D02*
X75247000Y-75487000D01*
X75204000Y-80444000D02*
X75247000Y-80487000D01*
X75204000Y-85444000D02*
X75247000Y-85487000D01*
X75204000Y-90444000D02*
X75247000Y-90487000D01*
X75204000Y-95444000D02*
X75247000Y-95487000D01*
X75204000Y-100444000D02*
X75247000Y-100487000D01*
X75443000Y-45205000D02*
X75486000Y-45248000D01*
X75443000Y-50205000D02*
X75486000Y-50248000D01*
X75443000Y-55205000D02*
X75486000Y-55248000D01*
X75443000Y-60205000D02*
X75486000Y-60248000D01*
X75443000Y-65205000D02*
X75486000Y-65248000D01*
X75443000Y-70205000D02*
X75486000Y-70248000D01*
X75443000Y-75205000D02*
X75486000Y-75248000D01*
X75443000Y-80205000D02*
X75486000Y-80248000D01*
X75443000Y-85205000D02*
X75486000Y-85248000D01*
X75443000Y-90205000D02*
X75486000Y-90248000D01*
X75443000Y-95205000D02*
X75486000Y-95248000D01*
X75443000Y-100205000D02*
X75486000Y-100248000D01*
X75800000Y-43457000D02*
X75800000Y-41380000D01*
X75800000Y-48457000D02*
X75800000Y-44543000D01*
X75800000Y-53457000D02*
X75800000Y-49543000D01*
X75800000Y-58457000D02*
X75800000Y-54543000D01*
X75800000Y-63457000D02*
X75800000Y-59543000D01*
X75800000Y-68457000D02*
X75800000Y-64543000D01*
X75800000Y-73457000D02*
X75800000Y-69543000D01*
X75800000Y-78457000D02*
X75800000Y-74543000D01*
X75800000Y-83457000D02*
X75800000Y-79543000D01*
X75800000Y-88457000D02*
X75800000Y-84543000D01*
X75800000Y-93457000D02*
X75800000Y-89543000D01*
X75800000Y-98457000D02*
X75800000Y-94543000D01*
X75800000Y-102120000D02*
X75800000Y-99543000D01*
X75800000Y-107120000D02*
X75800000Y-105880000D01*
X77920000Y-103700000D02*
X77920000Y-41380000D01*
X77920000Y-107120000D02*
X77920000Y-104300000D01*
X72120000Y-104554000D02*
G75*
G02*
X72120139Y-103445528I1880000J554000D01*
G01*
X73446000Y-102120000D02*
G75*
G02*
X74554472Y-102120139I554000J-1880000D01*
G01*
X74554000Y-105880000D02*
G75*
G02*
X73445528Y-105879861I-554000J1879990D01*
G01*
X75880000Y-103446000D02*
G75*
G02*
X75879861Y-104554472I-1879990J-554000D01*
G01*
X75960000Y-44000000D02*
G75*
G02*
X72040000Y-44000000I-1960000J0D01*
G01*
X72040000Y-44000000D02*
G75*
G02*
X75960000Y-44000000I1960000J0D01*
G01*
X75960000Y-49000000D02*
G75*
G02*
X72040000Y-49000000I-1960000J0D01*
G01*
X72040000Y-49000000D02*
G75*
G02*
X75960000Y-49000000I1960000J0D01*
G01*
X75960000Y-54000000D02*
G75*
G02*
X72040000Y-54000000I-1960000J0D01*
G01*
X72040000Y-54000000D02*
G75*
G02*
X75960000Y-54000000I1960000J0D01*
G01*
X75960000Y-59000000D02*
G75*
G02*
X72040000Y-59000000I-1960000J0D01*
G01*
X72040000Y-59000000D02*
G75*
G02*
X75960000Y-59000000I1960000J0D01*
G01*
X75960000Y-64000000D02*
G75*
G02*
X72040000Y-64000000I-1960000J0D01*
G01*
X72040000Y-64000000D02*
G75*
G02*
X75960000Y-64000000I1960000J0D01*
G01*
X75960000Y-69000000D02*
G75*
G02*
X72040000Y-69000000I-1960000J0D01*
G01*
X72040000Y-69000000D02*
G75*
G02*
X75960000Y-69000000I1960000J0D01*
G01*
X75960000Y-74000000D02*
G75*
G02*
X72040000Y-74000000I-1960000J0D01*
G01*
X72040000Y-74000000D02*
G75*
G02*
X75960000Y-74000000I1960000J0D01*
G01*
X75960000Y-79000000D02*
G75*
G02*
X72040000Y-79000000I-1960000J0D01*
G01*
X72040000Y-79000000D02*
G75*
G02*
X75960000Y-79000000I1960000J0D01*
G01*
X75960000Y-84000000D02*
G75*
G02*
X72040000Y-84000000I-1960000J0D01*
G01*
X72040000Y-84000000D02*
G75*
G02*
X75960000Y-84000000I1960000J0D01*
G01*
X75960000Y-89000000D02*
G75*
G02*
X72040000Y-89000000I-1960000J0D01*
G01*
X72040000Y-89000000D02*
G75*
G02*
X75960000Y-89000000I1960000J0D01*
G01*
X75960000Y-94000000D02*
G75*
G02*
X72040000Y-94000000I-1960000J0D01*
G01*
X72040000Y-94000000D02*
G75*
G02*
X75960000Y-94000000I1960000J0D01*
G01*
X75960000Y-99000000D02*
G75*
G02*
X72040000Y-99000000I-1960000J0D01*
G01*
X72040000Y-99000000D02*
G75*
G02*
X75960000Y-99000000I1960000J0D01*
G01*
X78530000Y-104440000D02*
X77920000Y-104000000D01*
X78530000Y-103560000D01*
X78530000Y-104440000D01*
G36*
X78530000Y-104440000D02*
G01*
X77920000Y-104000000D01*
X78530000Y-103560000D01*
X78530000Y-104440000D01*
G37*
%TO.C,R5*%
X64820095Y-59199359D02*
G75*
G02*
X64917133Y-57750000I-320095J749359D01*
G01*
%TO.C,R9*%
X64820095Y-71799359D02*
G75*
G02*
X64917133Y-70350000I-320095J749359D01*
G01*
%TO.C,R7*%
X64820095Y-65499359D02*
G75*
G02*
X64917133Y-64050000I-320095J749359D01*
G01*
%TO.C,R8*%
X64820095Y-68649359D02*
G75*
G02*
X64917133Y-67200000I-320095J749359D01*
G01*
%TD*%
M02*
