%TF.GenerationSoftware,KiCad,Pcbnew,8.0.8*%
%TF.CreationDate,2025-03-16T18:45:55-07:00*%
%TF.ProjectId,PhonePiHat,50686f6e-6550-4694-9861-742e6b696361,rev?*%
%TF.SameCoordinates,Original*%
%TF.FileFunction,Legend,Top*%
%TF.FilePolarity,Positive*%
%FSLAX46Y46*%
G04 Gerber Fmt 4.6, Leading zero omitted, Abs format (unit mm)*
G04 Created by KiCad (PCBNEW 8.0.8) date 2025-03-16 18:45:55*
%MOMM*%
%LPD*%
G01*
G04 APERTURE LIST*
%ADD10C,0.100000*%
%ADD11C,0.150000*%
%ADD12C,0.120000*%
G04 APERTURE END LIST*
D10*
X20323884Y-74312419D02*
X20323884Y-73312419D01*
X20323884Y-73312419D02*
X20704836Y-73312419D01*
X20704836Y-73312419D02*
X20800074Y-73360038D01*
X20800074Y-73360038D02*
X20847693Y-73407657D01*
X20847693Y-73407657D02*
X20895312Y-73502895D01*
X20895312Y-73502895D02*
X20895312Y-73645752D01*
X20895312Y-73645752D02*
X20847693Y-73740990D01*
X20847693Y-73740990D02*
X20800074Y-73788609D01*
X20800074Y-73788609D02*
X20704836Y-73836228D01*
X20704836Y-73836228D02*
X20323884Y-73836228D01*
X21752455Y-73645752D02*
X21752455Y-74312419D01*
X21323884Y-73645752D02*
X21323884Y-74169561D01*
X21323884Y-74169561D02*
X21371503Y-74264800D01*
X21371503Y-74264800D02*
X21466741Y-74312419D01*
X21466741Y-74312419D02*
X21609598Y-74312419D01*
X21609598Y-74312419D02*
X21704836Y-74264800D01*
X21704836Y-74264800D02*
X21752455Y-74217180D01*
X22181027Y-74264800D02*
X22276265Y-74312419D01*
X22276265Y-74312419D02*
X22466741Y-74312419D01*
X22466741Y-74312419D02*
X22561979Y-74264800D01*
X22561979Y-74264800D02*
X22609598Y-74169561D01*
X22609598Y-74169561D02*
X22609598Y-74121942D01*
X22609598Y-74121942D02*
X22561979Y-74026704D01*
X22561979Y-74026704D02*
X22466741Y-73979085D01*
X22466741Y-73979085D02*
X22323884Y-73979085D01*
X22323884Y-73979085D02*
X22228646Y-73931466D01*
X22228646Y-73931466D02*
X22181027Y-73836228D01*
X22181027Y-73836228D02*
X22181027Y-73788609D01*
X22181027Y-73788609D02*
X22228646Y-73693371D01*
X22228646Y-73693371D02*
X22323884Y-73645752D01*
X22323884Y-73645752D02*
X22466741Y-73645752D01*
X22466741Y-73645752D02*
X22561979Y-73693371D01*
X23038170Y-74312419D02*
X23038170Y-73312419D01*
X23466741Y-74312419D02*
X23466741Y-73788609D01*
X23466741Y-73788609D02*
X23419122Y-73693371D01*
X23419122Y-73693371D02*
X23323884Y-73645752D01*
X23323884Y-73645752D02*
X23181027Y-73645752D01*
X23181027Y-73645752D02*
X23085789Y-73693371D01*
X23085789Y-73693371D02*
X23038170Y-73740990D01*
X24657218Y-73407657D02*
X24704837Y-73360038D01*
X24704837Y-73360038D02*
X24800075Y-73312419D01*
X24800075Y-73312419D02*
X25038170Y-73312419D01*
X25038170Y-73312419D02*
X25133408Y-73360038D01*
X25133408Y-73360038D02*
X25181027Y-73407657D01*
X25181027Y-73407657D02*
X25228646Y-73502895D01*
X25228646Y-73502895D02*
X25228646Y-73598133D01*
X25228646Y-73598133D02*
X25181027Y-73740990D01*
X25181027Y-73740990D02*
X24609599Y-74312419D01*
X24609599Y-74312419D02*
X25228646Y-74312419D01*
X39327693Y-59872419D02*
X38756265Y-59872419D01*
X39041979Y-59872419D02*
X39041979Y-58872419D01*
X39041979Y-58872419D02*
X38946741Y-59015276D01*
X38946741Y-59015276D02*
X38851503Y-59110514D01*
X38851503Y-59110514D02*
X38756265Y-59158133D01*
X39756265Y-59872419D02*
X39756265Y-58872419D01*
X39851503Y-59491466D02*
X40137217Y-59872419D01*
X40137217Y-59205752D02*
X39756265Y-59586704D01*
X19823884Y-98812419D02*
X19823884Y-97812419D01*
X19823884Y-97812419D02*
X20204836Y-97812419D01*
X20204836Y-97812419D02*
X20300074Y-97860038D01*
X20300074Y-97860038D02*
X20347693Y-97907657D01*
X20347693Y-97907657D02*
X20395312Y-98002895D01*
X20395312Y-98002895D02*
X20395312Y-98145752D01*
X20395312Y-98145752D02*
X20347693Y-98240990D01*
X20347693Y-98240990D02*
X20300074Y-98288609D01*
X20300074Y-98288609D02*
X20204836Y-98336228D01*
X20204836Y-98336228D02*
X19823884Y-98336228D01*
X21252455Y-98145752D02*
X21252455Y-98812419D01*
X20823884Y-98145752D02*
X20823884Y-98669561D01*
X20823884Y-98669561D02*
X20871503Y-98764800D01*
X20871503Y-98764800D02*
X20966741Y-98812419D01*
X20966741Y-98812419D02*
X21109598Y-98812419D01*
X21109598Y-98812419D02*
X21204836Y-98764800D01*
X21204836Y-98764800D02*
X21252455Y-98717180D01*
X21681027Y-98764800D02*
X21776265Y-98812419D01*
X21776265Y-98812419D02*
X21966741Y-98812419D01*
X21966741Y-98812419D02*
X22061979Y-98764800D01*
X22061979Y-98764800D02*
X22109598Y-98669561D01*
X22109598Y-98669561D02*
X22109598Y-98621942D01*
X22109598Y-98621942D02*
X22061979Y-98526704D01*
X22061979Y-98526704D02*
X21966741Y-98479085D01*
X21966741Y-98479085D02*
X21823884Y-98479085D01*
X21823884Y-98479085D02*
X21728646Y-98431466D01*
X21728646Y-98431466D02*
X21681027Y-98336228D01*
X21681027Y-98336228D02*
X21681027Y-98288609D01*
X21681027Y-98288609D02*
X21728646Y-98193371D01*
X21728646Y-98193371D02*
X21823884Y-98145752D01*
X21823884Y-98145752D02*
X21966741Y-98145752D01*
X21966741Y-98145752D02*
X22061979Y-98193371D01*
X22538170Y-98812419D02*
X22538170Y-97812419D01*
X22966741Y-98812419D02*
X22966741Y-98288609D01*
X22966741Y-98288609D02*
X22919122Y-98193371D01*
X22919122Y-98193371D02*
X22823884Y-98145752D01*
X22823884Y-98145752D02*
X22681027Y-98145752D01*
X22681027Y-98145752D02*
X22585789Y-98193371D01*
X22585789Y-98193371D02*
X22538170Y-98240990D01*
X24109599Y-97812419D02*
X24776265Y-97812419D01*
X24776265Y-97812419D02*
X24347694Y-98812419D01*
X19803884Y-105872419D02*
X19803884Y-104872419D01*
X19803884Y-104872419D02*
X20184836Y-104872419D01*
X20184836Y-104872419D02*
X20280074Y-104920038D01*
X20280074Y-104920038D02*
X20327693Y-104967657D01*
X20327693Y-104967657D02*
X20375312Y-105062895D01*
X20375312Y-105062895D02*
X20375312Y-105205752D01*
X20375312Y-105205752D02*
X20327693Y-105300990D01*
X20327693Y-105300990D02*
X20280074Y-105348609D01*
X20280074Y-105348609D02*
X20184836Y-105396228D01*
X20184836Y-105396228D02*
X19803884Y-105396228D01*
X21232455Y-105205752D02*
X21232455Y-105872419D01*
X20803884Y-105205752D02*
X20803884Y-105729561D01*
X20803884Y-105729561D02*
X20851503Y-105824800D01*
X20851503Y-105824800D02*
X20946741Y-105872419D01*
X20946741Y-105872419D02*
X21089598Y-105872419D01*
X21089598Y-105872419D02*
X21184836Y-105824800D01*
X21184836Y-105824800D02*
X21232455Y-105777180D01*
X21661027Y-105824800D02*
X21756265Y-105872419D01*
X21756265Y-105872419D02*
X21946741Y-105872419D01*
X21946741Y-105872419D02*
X22041979Y-105824800D01*
X22041979Y-105824800D02*
X22089598Y-105729561D01*
X22089598Y-105729561D02*
X22089598Y-105681942D01*
X22089598Y-105681942D02*
X22041979Y-105586704D01*
X22041979Y-105586704D02*
X21946741Y-105539085D01*
X21946741Y-105539085D02*
X21803884Y-105539085D01*
X21803884Y-105539085D02*
X21708646Y-105491466D01*
X21708646Y-105491466D02*
X21661027Y-105396228D01*
X21661027Y-105396228D02*
X21661027Y-105348609D01*
X21661027Y-105348609D02*
X21708646Y-105253371D01*
X21708646Y-105253371D02*
X21803884Y-105205752D01*
X21803884Y-105205752D02*
X21946741Y-105205752D01*
X21946741Y-105205752D02*
X22041979Y-105253371D01*
X22518170Y-105872419D02*
X22518170Y-104872419D01*
X22946741Y-105872419D02*
X22946741Y-105348609D01*
X22946741Y-105348609D02*
X22899122Y-105253371D01*
X22899122Y-105253371D02*
X22803884Y-105205752D01*
X22803884Y-105205752D02*
X22661027Y-105205752D01*
X22661027Y-105205752D02*
X22565789Y-105253371D01*
X22565789Y-105253371D02*
X22518170Y-105300990D01*
X24327694Y-105300990D02*
X24232456Y-105253371D01*
X24232456Y-105253371D02*
X24184837Y-105205752D01*
X24184837Y-105205752D02*
X24137218Y-105110514D01*
X24137218Y-105110514D02*
X24137218Y-105062895D01*
X24137218Y-105062895D02*
X24184837Y-104967657D01*
X24184837Y-104967657D02*
X24232456Y-104920038D01*
X24232456Y-104920038D02*
X24327694Y-104872419D01*
X24327694Y-104872419D02*
X24518170Y-104872419D01*
X24518170Y-104872419D02*
X24613408Y-104920038D01*
X24613408Y-104920038D02*
X24661027Y-104967657D01*
X24661027Y-104967657D02*
X24708646Y-105062895D01*
X24708646Y-105062895D02*
X24708646Y-105110514D01*
X24708646Y-105110514D02*
X24661027Y-105205752D01*
X24661027Y-105205752D02*
X24613408Y-105253371D01*
X24613408Y-105253371D02*
X24518170Y-105300990D01*
X24518170Y-105300990D02*
X24327694Y-105300990D01*
X24327694Y-105300990D02*
X24232456Y-105348609D01*
X24232456Y-105348609D02*
X24184837Y-105396228D01*
X24184837Y-105396228D02*
X24137218Y-105491466D01*
X24137218Y-105491466D02*
X24137218Y-105681942D01*
X24137218Y-105681942D02*
X24184837Y-105777180D01*
X24184837Y-105777180D02*
X24232456Y-105824800D01*
X24232456Y-105824800D02*
X24327694Y-105872419D01*
X24327694Y-105872419D02*
X24518170Y-105872419D01*
X24518170Y-105872419D02*
X24613408Y-105824800D01*
X24613408Y-105824800D02*
X24661027Y-105777180D01*
X24661027Y-105777180D02*
X24708646Y-105681942D01*
X24708646Y-105681942D02*
X24708646Y-105491466D01*
X24708646Y-105491466D02*
X24661027Y-105396228D01*
X24661027Y-105396228D02*
X24613408Y-105348609D01*
X24613408Y-105348609D02*
X24518170Y-105300990D01*
X20323884Y-89312419D02*
X20323884Y-88312419D01*
X20323884Y-88312419D02*
X20704836Y-88312419D01*
X20704836Y-88312419D02*
X20800074Y-88360038D01*
X20800074Y-88360038D02*
X20847693Y-88407657D01*
X20847693Y-88407657D02*
X20895312Y-88502895D01*
X20895312Y-88502895D02*
X20895312Y-88645752D01*
X20895312Y-88645752D02*
X20847693Y-88740990D01*
X20847693Y-88740990D02*
X20800074Y-88788609D01*
X20800074Y-88788609D02*
X20704836Y-88836228D01*
X20704836Y-88836228D02*
X20323884Y-88836228D01*
X21752455Y-88645752D02*
X21752455Y-89312419D01*
X21323884Y-88645752D02*
X21323884Y-89169561D01*
X21323884Y-89169561D02*
X21371503Y-89264800D01*
X21371503Y-89264800D02*
X21466741Y-89312419D01*
X21466741Y-89312419D02*
X21609598Y-89312419D01*
X21609598Y-89312419D02*
X21704836Y-89264800D01*
X21704836Y-89264800D02*
X21752455Y-89217180D01*
X22181027Y-89264800D02*
X22276265Y-89312419D01*
X22276265Y-89312419D02*
X22466741Y-89312419D01*
X22466741Y-89312419D02*
X22561979Y-89264800D01*
X22561979Y-89264800D02*
X22609598Y-89169561D01*
X22609598Y-89169561D02*
X22609598Y-89121942D01*
X22609598Y-89121942D02*
X22561979Y-89026704D01*
X22561979Y-89026704D02*
X22466741Y-88979085D01*
X22466741Y-88979085D02*
X22323884Y-88979085D01*
X22323884Y-88979085D02*
X22228646Y-88931466D01*
X22228646Y-88931466D02*
X22181027Y-88836228D01*
X22181027Y-88836228D02*
X22181027Y-88788609D01*
X22181027Y-88788609D02*
X22228646Y-88693371D01*
X22228646Y-88693371D02*
X22323884Y-88645752D01*
X22323884Y-88645752D02*
X22466741Y-88645752D01*
X22466741Y-88645752D02*
X22561979Y-88693371D01*
X23038170Y-89312419D02*
X23038170Y-88312419D01*
X23466741Y-89312419D02*
X23466741Y-88788609D01*
X23466741Y-88788609D02*
X23419122Y-88693371D01*
X23419122Y-88693371D02*
X23323884Y-88645752D01*
X23323884Y-88645752D02*
X23181027Y-88645752D01*
X23181027Y-88645752D02*
X23085789Y-88693371D01*
X23085789Y-88693371D02*
X23038170Y-88740990D01*
X25181027Y-88312419D02*
X24704837Y-88312419D01*
X24704837Y-88312419D02*
X24657218Y-88788609D01*
X24657218Y-88788609D02*
X24704837Y-88740990D01*
X24704837Y-88740990D02*
X24800075Y-88693371D01*
X24800075Y-88693371D02*
X25038170Y-88693371D01*
X25038170Y-88693371D02*
X25133408Y-88740990D01*
X25133408Y-88740990D02*
X25181027Y-88788609D01*
X25181027Y-88788609D02*
X25228646Y-88883847D01*
X25228646Y-88883847D02*
X25228646Y-89121942D01*
X25228646Y-89121942D02*
X25181027Y-89217180D01*
X25181027Y-89217180D02*
X25133408Y-89264800D01*
X25133408Y-89264800D02*
X25038170Y-89312419D01*
X25038170Y-89312419D02*
X24800075Y-89312419D01*
X24800075Y-89312419D02*
X24704837Y-89264800D01*
X24704837Y-89264800D02*
X24657218Y-89217180D01*
X22323884Y-53812419D02*
X22323884Y-52812419D01*
X22323884Y-53288609D02*
X22895312Y-53288609D01*
X22895312Y-53812419D02*
X22895312Y-52812419D01*
X23514360Y-53812419D02*
X23419122Y-53764800D01*
X23419122Y-53764800D02*
X23371503Y-53717180D01*
X23371503Y-53717180D02*
X23323884Y-53621942D01*
X23323884Y-53621942D02*
X23323884Y-53336228D01*
X23323884Y-53336228D02*
X23371503Y-53240990D01*
X23371503Y-53240990D02*
X23419122Y-53193371D01*
X23419122Y-53193371D02*
X23514360Y-53145752D01*
X23514360Y-53145752D02*
X23657217Y-53145752D01*
X23657217Y-53145752D02*
X23752455Y-53193371D01*
X23752455Y-53193371D02*
X23800074Y-53240990D01*
X23800074Y-53240990D02*
X23847693Y-53336228D01*
X23847693Y-53336228D02*
X23847693Y-53621942D01*
X23847693Y-53621942D02*
X23800074Y-53717180D01*
X23800074Y-53717180D02*
X23752455Y-53764800D01*
X23752455Y-53764800D02*
X23657217Y-53812419D01*
X23657217Y-53812419D02*
X23514360Y-53812419D01*
X24419122Y-53812419D02*
X24323884Y-53764800D01*
X24323884Y-53764800D02*
X24276265Y-53717180D01*
X24276265Y-53717180D02*
X24228646Y-53621942D01*
X24228646Y-53621942D02*
X24228646Y-53336228D01*
X24228646Y-53336228D02*
X24276265Y-53240990D01*
X24276265Y-53240990D02*
X24323884Y-53193371D01*
X24323884Y-53193371D02*
X24419122Y-53145752D01*
X24419122Y-53145752D02*
X24561979Y-53145752D01*
X24561979Y-53145752D02*
X24657217Y-53193371D01*
X24657217Y-53193371D02*
X24704836Y-53240990D01*
X24704836Y-53240990D02*
X24752455Y-53336228D01*
X24752455Y-53336228D02*
X24752455Y-53621942D01*
X24752455Y-53621942D02*
X24704836Y-53717180D01*
X24704836Y-53717180D02*
X24657217Y-53764800D01*
X24657217Y-53764800D02*
X24561979Y-53812419D01*
X24561979Y-53812419D02*
X24419122Y-53812419D01*
X25181027Y-53812419D02*
X25181027Y-52812419D01*
X25276265Y-53431466D02*
X25561979Y-53812419D01*
X25561979Y-53145752D02*
X25181027Y-53526704D01*
X22323884Y-59312419D02*
X22323884Y-58312419D01*
X22323884Y-58788609D02*
X22895312Y-58788609D01*
X22895312Y-59312419D02*
X22895312Y-58312419D01*
X23514360Y-59312419D02*
X23419122Y-59264800D01*
X23419122Y-59264800D02*
X23371503Y-59217180D01*
X23371503Y-59217180D02*
X23323884Y-59121942D01*
X23323884Y-59121942D02*
X23323884Y-58836228D01*
X23323884Y-58836228D02*
X23371503Y-58740990D01*
X23371503Y-58740990D02*
X23419122Y-58693371D01*
X23419122Y-58693371D02*
X23514360Y-58645752D01*
X23514360Y-58645752D02*
X23657217Y-58645752D01*
X23657217Y-58645752D02*
X23752455Y-58693371D01*
X23752455Y-58693371D02*
X23800074Y-58740990D01*
X23800074Y-58740990D02*
X23847693Y-58836228D01*
X23847693Y-58836228D02*
X23847693Y-59121942D01*
X23847693Y-59121942D02*
X23800074Y-59217180D01*
X23800074Y-59217180D02*
X23752455Y-59264800D01*
X23752455Y-59264800D02*
X23657217Y-59312419D01*
X23657217Y-59312419D02*
X23514360Y-59312419D01*
X24419122Y-59312419D02*
X24323884Y-59264800D01*
X24323884Y-59264800D02*
X24276265Y-59217180D01*
X24276265Y-59217180D02*
X24228646Y-59121942D01*
X24228646Y-59121942D02*
X24228646Y-58836228D01*
X24228646Y-58836228D02*
X24276265Y-58740990D01*
X24276265Y-58740990D02*
X24323884Y-58693371D01*
X24323884Y-58693371D02*
X24419122Y-58645752D01*
X24419122Y-58645752D02*
X24561979Y-58645752D01*
X24561979Y-58645752D02*
X24657217Y-58693371D01*
X24657217Y-58693371D02*
X24704836Y-58740990D01*
X24704836Y-58740990D02*
X24752455Y-58836228D01*
X24752455Y-58836228D02*
X24752455Y-59121942D01*
X24752455Y-59121942D02*
X24704836Y-59217180D01*
X24704836Y-59217180D02*
X24657217Y-59264800D01*
X24657217Y-59264800D02*
X24561979Y-59312419D01*
X24561979Y-59312419D02*
X24419122Y-59312419D01*
X25181027Y-59312419D02*
X25181027Y-58312419D01*
X25276265Y-58931466D02*
X25561979Y-59312419D01*
X25561979Y-58645752D02*
X25181027Y-59026704D01*
D11*
X24670112Y-41346009D02*
X24812969Y-41393628D01*
X24812969Y-41393628D02*
X24860588Y-41441247D01*
X24860588Y-41441247D02*
X24908207Y-41536485D01*
X24908207Y-41536485D02*
X24908207Y-41679342D01*
X24908207Y-41679342D02*
X24860588Y-41774580D01*
X24860588Y-41774580D02*
X24812969Y-41822200D01*
X24812969Y-41822200D02*
X24717731Y-41869819D01*
X24717731Y-41869819D02*
X24336779Y-41869819D01*
X24336779Y-41869819D02*
X24336779Y-40869819D01*
X24336779Y-40869819D02*
X24670112Y-40869819D01*
X24670112Y-40869819D02*
X24765350Y-40917438D01*
X24765350Y-40917438D02*
X24812969Y-40965057D01*
X24812969Y-40965057D02*
X24860588Y-41060295D01*
X24860588Y-41060295D02*
X24860588Y-41155533D01*
X24860588Y-41155533D02*
X24812969Y-41250771D01*
X24812969Y-41250771D02*
X24765350Y-41298390D01*
X24765350Y-41298390D02*
X24670112Y-41346009D01*
X24670112Y-41346009D02*
X24336779Y-41346009D01*
X25717731Y-41822200D02*
X25622493Y-41869819D01*
X25622493Y-41869819D02*
X25432017Y-41869819D01*
X25432017Y-41869819D02*
X25336779Y-41822200D01*
X25336779Y-41822200D02*
X25289160Y-41726961D01*
X25289160Y-41726961D02*
X25289160Y-41346009D01*
X25289160Y-41346009D02*
X25336779Y-41250771D01*
X25336779Y-41250771D02*
X25432017Y-41203152D01*
X25432017Y-41203152D02*
X25622493Y-41203152D01*
X25622493Y-41203152D02*
X25717731Y-41250771D01*
X25717731Y-41250771D02*
X25765350Y-41346009D01*
X25765350Y-41346009D02*
X25765350Y-41441247D01*
X25765350Y-41441247D02*
X25289160Y-41536485D01*
X26336779Y-41869819D02*
X26241541Y-41822200D01*
X26241541Y-41822200D02*
X26193922Y-41726961D01*
X26193922Y-41726961D02*
X26193922Y-40869819D01*
X26860589Y-41869819D02*
X26765351Y-41822200D01*
X26765351Y-41822200D02*
X26717732Y-41726961D01*
X26717732Y-41726961D02*
X26717732Y-40869819D01*
D10*
X37256265Y-105586704D02*
X37732455Y-105586704D01*
X37161027Y-105872419D02*
X37494360Y-104872419D01*
X37494360Y-104872419D02*
X37827693Y-105872419D01*
X38446741Y-104872419D02*
X38446741Y-105586704D01*
X38446741Y-105586704D02*
X38399122Y-105729561D01*
X38399122Y-105729561D02*
X38303884Y-105824800D01*
X38303884Y-105824800D02*
X38161027Y-105872419D01*
X38161027Y-105872419D02*
X38065789Y-105872419D01*
X38875313Y-105824800D02*
X39018170Y-105872419D01*
X39018170Y-105872419D02*
X39256265Y-105872419D01*
X39256265Y-105872419D02*
X39351503Y-105824800D01*
X39351503Y-105824800D02*
X39399122Y-105777180D01*
X39399122Y-105777180D02*
X39446741Y-105681942D01*
X39446741Y-105681942D02*
X39446741Y-105586704D01*
X39446741Y-105586704D02*
X39399122Y-105491466D01*
X39399122Y-105491466D02*
X39351503Y-105443847D01*
X39351503Y-105443847D02*
X39256265Y-105396228D01*
X39256265Y-105396228D02*
X39065789Y-105348609D01*
X39065789Y-105348609D02*
X38970551Y-105300990D01*
X38970551Y-105300990D02*
X38922932Y-105253371D01*
X38922932Y-105253371D02*
X38875313Y-105158133D01*
X38875313Y-105158133D02*
X38875313Y-105062895D01*
X38875313Y-105062895D02*
X38922932Y-104967657D01*
X38922932Y-104967657D02*
X38970551Y-104920038D01*
X38970551Y-104920038D02*
X39065789Y-104872419D01*
X39065789Y-104872419D02*
X39303884Y-104872419D01*
X39303884Y-104872419D02*
X39446741Y-104920038D01*
X40541980Y-105205752D02*
X40780075Y-105872419D01*
X40780075Y-105872419D02*
X41018170Y-105205752D01*
X41589599Y-104872419D02*
X41684837Y-104872419D01*
X41684837Y-104872419D02*
X41780075Y-104920038D01*
X41780075Y-104920038D02*
X41827694Y-104967657D01*
X41827694Y-104967657D02*
X41875313Y-105062895D01*
X41875313Y-105062895D02*
X41922932Y-105253371D01*
X41922932Y-105253371D02*
X41922932Y-105491466D01*
X41922932Y-105491466D02*
X41875313Y-105681942D01*
X41875313Y-105681942D02*
X41827694Y-105777180D01*
X41827694Y-105777180D02*
X41780075Y-105824800D01*
X41780075Y-105824800D02*
X41684837Y-105872419D01*
X41684837Y-105872419D02*
X41589599Y-105872419D01*
X41589599Y-105872419D02*
X41494361Y-105824800D01*
X41494361Y-105824800D02*
X41446742Y-105777180D01*
X41446742Y-105777180D02*
X41399123Y-105681942D01*
X41399123Y-105681942D02*
X41351504Y-105491466D01*
X41351504Y-105491466D02*
X41351504Y-105253371D01*
X41351504Y-105253371D02*
X41399123Y-105062895D01*
X41399123Y-105062895D02*
X41446742Y-104967657D01*
X41446742Y-104967657D02*
X41494361Y-104920038D01*
X41494361Y-104920038D02*
X41589599Y-104872419D01*
X42351504Y-105777180D02*
X42399123Y-105824800D01*
X42399123Y-105824800D02*
X42351504Y-105872419D01*
X42351504Y-105872419D02*
X42303885Y-105824800D01*
X42303885Y-105824800D02*
X42351504Y-105777180D01*
X42351504Y-105777180D02*
X42351504Y-105872419D01*
X43351503Y-105872419D02*
X42780075Y-105872419D01*
X43065789Y-105872419D02*
X43065789Y-104872419D01*
X43065789Y-104872419D02*
X42970551Y-105015276D01*
X42970551Y-105015276D02*
X42875313Y-105110514D01*
X42875313Y-105110514D02*
X42780075Y-105158133D01*
X39327693Y-68372419D02*
X38756265Y-68372419D01*
X39041979Y-68372419D02*
X39041979Y-67372419D01*
X39041979Y-67372419D02*
X38946741Y-67515276D01*
X38946741Y-67515276D02*
X38851503Y-67610514D01*
X38851503Y-67610514D02*
X38756265Y-67658133D01*
X39946741Y-67372419D02*
X40041979Y-67372419D01*
X40041979Y-67372419D02*
X40137217Y-67420038D01*
X40137217Y-67420038D02*
X40184836Y-67467657D01*
X40184836Y-67467657D02*
X40232455Y-67562895D01*
X40232455Y-67562895D02*
X40280074Y-67753371D01*
X40280074Y-67753371D02*
X40280074Y-67991466D01*
X40280074Y-67991466D02*
X40232455Y-68181942D01*
X40232455Y-68181942D02*
X40184836Y-68277180D01*
X40184836Y-68277180D02*
X40137217Y-68324800D01*
X40137217Y-68324800D02*
X40041979Y-68372419D01*
X40041979Y-68372419D02*
X39946741Y-68372419D01*
X39946741Y-68372419D02*
X39851503Y-68324800D01*
X39851503Y-68324800D02*
X39803884Y-68277180D01*
X39803884Y-68277180D02*
X39756265Y-68181942D01*
X39756265Y-68181942D02*
X39708646Y-67991466D01*
X39708646Y-67991466D02*
X39708646Y-67753371D01*
X39708646Y-67753371D02*
X39756265Y-67562895D01*
X39756265Y-67562895D02*
X39803884Y-67467657D01*
X39803884Y-67467657D02*
X39851503Y-67420038D01*
X39851503Y-67420038D02*
X39946741Y-67372419D01*
X40708646Y-68372419D02*
X40708646Y-67372419D01*
X40803884Y-67991466D02*
X41089598Y-68372419D01*
X41089598Y-67705752D02*
X40708646Y-68086704D01*
X36280074Y-63884657D02*
X36280074Y-62984657D01*
X36280074Y-62984657D02*
X36622931Y-62984657D01*
X36622931Y-62984657D02*
X36708646Y-63027514D01*
X36708646Y-63027514D02*
X36751503Y-63070371D01*
X36751503Y-63070371D02*
X36794360Y-63156085D01*
X36794360Y-63156085D02*
X36794360Y-63284657D01*
X36794360Y-63284657D02*
X36751503Y-63370371D01*
X36751503Y-63370371D02*
X36708646Y-63413228D01*
X36708646Y-63413228D02*
X36622931Y-63456085D01*
X36622931Y-63456085D02*
X36280074Y-63456085D01*
X37180074Y-63884657D02*
X37180074Y-62984657D01*
X37565789Y-63884657D02*
X37565789Y-63413228D01*
X37565789Y-63413228D02*
X37522931Y-63327514D01*
X37522931Y-63327514D02*
X37437217Y-63284657D01*
X37437217Y-63284657D02*
X37308646Y-63284657D01*
X37308646Y-63284657D02*
X37222931Y-63327514D01*
X37222931Y-63327514D02*
X37180074Y-63370371D01*
X38122932Y-63884657D02*
X38037217Y-63841800D01*
X38037217Y-63841800D02*
X37994360Y-63798942D01*
X37994360Y-63798942D02*
X37951503Y-63713228D01*
X37951503Y-63713228D02*
X37951503Y-63456085D01*
X37951503Y-63456085D02*
X37994360Y-63370371D01*
X37994360Y-63370371D02*
X38037217Y-63327514D01*
X38037217Y-63327514D02*
X38122932Y-63284657D01*
X38122932Y-63284657D02*
X38251503Y-63284657D01*
X38251503Y-63284657D02*
X38337217Y-63327514D01*
X38337217Y-63327514D02*
X38380075Y-63370371D01*
X38380075Y-63370371D02*
X38422932Y-63456085D01*
X38422932Y-63456085D02*
X38422932Y-63713228D01*
X38422932Y-63713228D02*
X38380075Y-63798942D01*
X38380075Y-63798942D02*
X38337217Y-63841800D01*
X38337217Y-63841800D02*
X38251503Y-63884657D01*
X38251503Y-63884657D02*
X38122932Y-63884657D01*
X38808646Y-63284657D02*
X38808646Y-63884657D01*
X38808646Y-63370371D02*
X38851503Y-63327514D01*
X38851503Y-63327514D02*
X38937218Y-63284657D01*
X38937218Y-63284657D02*
X39065789Y-63284657D01*
X39065789Y-63284657D02*
X39151503Y-63327514D01*
X39151503Y-63327514D02*
X39194361Y-63413228D01*
X39194361Y-63413228D02*
X39194361Y-63884657D01*
X39965789Y-63841800D02*
X39880075Y-63884657D01*
X39880075Y-63884657D02*
X39708647Y-63884657D01*
X39708647Y-63884657D02*
X39622932Y-63841800D01*
X39622932Y-63841800D02*
X39580075Y-63756085D01*
X39580075Y-63756085D02*
X39580075Y-63413228D01*
X39580075Y-63413228D02*
X39622932Y-63327514D01*
X39622932Y-63327514D02*
X39708647Y-63284657D01*
X39708647Y-63284657D02*
X39880075Y-63284657D01*
X39880075Y-63284657D02*
X39965789Y-63327514D01*
X39965789Y-63327514D02*
X40008647Y-63413228D01*
X40008647Y-63413228D02*
X40008647Y-63498942D01*
X40008647Y-63498942D02*
X39580075Y-63584657D01*
X40394361Y-63884657D02*
X40394361Y-62984657D01*
X40394361Y-62984657D02*
X40737218Y-62984657D01*
X40737218Y-62984657D02*
X40822933Y-63027514D01*
X40822933Y-63027514D02*
X40865790Y-63070371D01*
X40865790Y-63070371D02*
X40908647Y-63156085D01*
X40908647Y-63156085D02*
X40908647Y-63284657D01*
X40908647Y-63284657D02*
X40865790Y-63370371D01*
X40865790Y-63370371D02*
X40822933Y-63413228D01*
X40822933Y-63413228D02*
X40737218Y-63456085D01*
X40737218Y-63456085D02*
X40394361Y-63456085D01*
X41294361Y-63884657D02*
X41294361Y-63284657D01*
X41294361Y-62984657D02*
X41251504Y-63027514D01*
X41251504Y-63027514D02*
X41294361Y-63070371D01*
X41294361Y-63070371D02*
X41337218Y-63027514D01*
X41337218Y-63027514D02*
X41294361Y-62984657D01*
X41294361Y-62984657D02*
X41294361Y-63070371D01*
X41722932Y-63884657D02*
X41722932Y-62984657D01*
X41722932Y-63413228D02*
X42237218Y-63413228D01*
X42237218Y-63884657D02*
X42237218Y-62984657D01*
X43051504Y-63884657D02*
X43051504Y-63413228D01*
X43051504Y-63413228D02*
X43008646Y-63327514D01*
X43008646Y-63327514D02*
X42922932Y-63284657D01*
X42922932Y-63284657D02*
X42751504Y-63284657D01*
X42751504Y-63284657D02*
X42665789Y-63327514D01*
X43051504Y-63841800D02*
X42965789Y-63884657D01*
X42965789Y-63884657D02*
X42751504Y-63884657D01*
X42751504Y-63884657D02*
X42665789Y-63841800D01*
X42665789Y-63841800D02*
X42622932Y-63756085D01*
X42622932Y-63756085D02*
X42622932Y-63670371D01*
X42622932Y-63670371D02*
X42665789Y-63584657D01*
X42665789Y-63584657D02*
X42751504Y-63541800D01*
X42751504Y-63541800D02*
X42965789Y-63541800D01*
X42965789Y-63541800D02*
X43051504Y-63498942D01*
X43351504Y-63284657D02*
X43694361Y-63284657D01*
X43480075Y-62984657D02*
X43480075Y-63756085D01*
X43480075Y-63756085D02*
X43522932Y-63841800D01*
X43522932Y-63841800D02*
X43608647Y-63884657D01*
X43608647Y-63884657D02*
X43694361Y-63884657D01*
X20395312Y-63717180D02*
X20347693Y-63764800D01*
X20347693Y-63764800D02*
X20204836Y-63812419D01*
X20204836Y-63812419D02*
X20109598Y-63812419D01*
X20109598Y-63812419D02*
X19966741Y-63764800D01*
X19966741Y-63764800D02*
X19871503Y-63669561D01*
X19871503Y-63669561D02*
X19823884Y-63574323D01*
X19823884Y-63574323D02*
X19776265Y-63383847D01*
X19776265Y-63383847D02*
X19776265Y-63240990D01*
X19776265Y-63240990D02*
X19823884Y-63050514D01*
X19823884Y-63050514D02*
X19871503Y-62955276D01*
X19871503Y-62955276D02*
X19966741Y-62860038D01*
X19966741Y-62860038D02*
X20109598Y-62812419D01*
X20109598Y-62812419D02*
X20204836Y-62812419D01*
X20204836Y-62812419D02*
X20347693Y-62860038D01*
X20347693Y-62860038D02*
X20395312Y-62907657D01*
X20966741Y-63812419D02*
X20871503Y-63764800D01*
X20871503Y-63764800D02*
X20823884Y-63717180D01*
X20823884Y-63717180D02*
X20776265Y-63621942D01*
X20776265Y-63621942D02*
X20776265Y-63336228D01*
X20776265Y-63336228D02*
X20823884Y-63240990D01*
X20823884Y-63240990D02*
X20871503Y-63193371D01*
X20871503Y-63193371D02*
X20966741Y-63145752D01*
X20966741Y-63145752D02*
X21109598Y-63145752D01*
X21109598Y-63145752D02*
X21204836Y-63193371D01*
X21204836Y-63193371D02*
X21252455Y-63240990D01*
X21252455Y-63240990D02*
X21300074Y-63336228D01*
X21300074Y-63336228D02*
X21300074Y-63621942D01*
X21300074Y-63621942D02*
X21252455Y-63717180D01*
X21252455Y-63717180D02*
X21204836Y-63764800D01*
X21204836Y-63764800D02*
X21109598Y-63812419D01*
X21109598Y-63812419D02*
X20966741Y-63812419D01*
X21728646Y-63812419D02*
X21728646Y-63145752D01*
X21728646Y-63240990D02*
X21776265Y-63193371D01*
X21776265Y-63193371D02*
X21871503Y-63145752D01*
X21871503Y-63145752D02*
X22014360Y-63145752D01*
X22014360Y-63145752D02*
X22109598Y-63193371D01*
X22109598Y-63193371D02*
X22157217Y-63288609D01*
X22157217Y-63288609D02*
X22157217Y-63812419D01*
X22157217Y-63288609D02*
X22204836Y-63193371D01*
X22204836Y-63193371D02*
X22300074Y-63145752D01*
X22300074Y-63145752D02*
X22442931Y-63145752D01*
X22442931Y-63145752D02*
X22538170Y-63193371D01*
X22538170Y-63193371D02*
X22585789Y-63288609D01*
X22585789Y-63288609D02*
X22585789Y-63812419D01*
X23061979Y-63812419D02*
X23061979Y-63145752D01*
X23061979Y-63240990D02*
X23109598Y-63193371D01*
X23109598Y-63193371D02*
X23204836Y-63145752D01*
X23204836Y-63145752D02*
X23347693Y-63145752D01*
X23347693Y-63145752D02*
X23442931Y-63193371D01*
X23442931Y-63193371D02*
X23490550Y-63288609D01*
X23490550Y-63288609D02*
X23490550Y-63812419D01*
X23490550Y-63288609D02*
X23538169Y-63193371D01*
X23538169Y-63193371D02*
X23633407Y-63145752D01*
X23633407Y-63145752D02*
X23776264Y-63145752D01*
X23776264Y-63145752D02*
X23871503Y-63193371D01*
X23871503Y-63193371D02*
X23919122Y-63288609D01*
X23919122Y-63288609D02*
X23919122Y-63812419D01*
X24538169Y-63812419D02*
X24442931Y-63764800D01*
X24442931Y-63764800D02*
X24395312Y-63717180D01*
X24395312Y-63717180D02*
X24347693Y-63621942D01*
X24347693Y-63621942D02*
X24347693Y-63336228D01*
X24347693Y-63336228D02*
X24395312Y-63240990D01*
X24395312Y-63240990D02*
X24442931Y-63193371D01*
X24442931Y-63193371D02*
X24538169Y-63145752D01*
X24538169Y-63145752D02*
X24681026Y-63145752D01*
X24681026Y-63145752D02*
X24776264Y-63193371D01*
X24776264Y-63193371D02*
X24823883Y-63240990D01*
X24823883Y-63240990D02*
X24871502Y-63336228D01*
X24871502Y-63336228D02*
X24871502Y-63621942D01*
X24871502Y-63621942D02*
X24823883Y-63717180D01*
X24823883Y-63717180D02*
X24776264Y-63764800D01*
X24776264Y-63764800D02*
X24681026Y-63812419D01*
X24681026Y-63812419D02*
X24538169Y-63812419D01*
X25300074Y-63145752D02*
X25300074Y-63812419D01*
X25300074Y-63240990D02*
X25347693Y-63193371D01*
X25347693Y-63193371D02*
X25442931Y-63145752D01*
X25442931Y-63145752D02*
X25585788Y-63145752D01*
X25585788Y-63145752D02*
X25681026Y-63193371D01*
X25681026Y-63193371D02*
X25728645Y-63288609D01*
X25728645Y-63288609D02*
X25728645Y-63812419D01*
X20323884Y-79312419D02*
X20323884Y-78312419D01*
X20323884Y-78312419D02*
X20704836Y-78312419D01*
X20704836Y-78312419D02*
X20800074Y-78360038D01*
X20800074Y-78360038D02*
X20847693Y-78407657D01*
X20847693Y-78407657D02*
X20895312Y-78502895D01*
X20895312Y-78502895D02*
X20895312Y-78645752D01*
X20895312Y-78645752D02*
X20847693Y-78740990D01*
X20847693Y-78740990D02*
X20800074Y-78788609D01*
X20800074Y-78788609D02*
X20704836Y-78836228D01*
X20704836Y-78836228D02*
X20323884Y-78836228D01*
X21752455Y-78645752D02*
X21752455Y-79312419D01*
X21323884Y-78645752D02*
X21323884Y-79169561D01*
X21323884Y-79169561D02*
X21371503Y-79264800D01*
X21371503Y-79264800D02*
X21466741Y-79312419D01*
X21466741Y-79312419D02*
X21609598Y-79312419D01*
X21609598Y-79312419D02*
X21704836Y-79264800D01*
X21704836Y-79264800D02*
X21752455Y-79217180D01*
X22181027Y-79264800D02*
X22276265Y-79312419D01*
X22276265Y-79312419D02*
X22466741Y-79312419D01*
X22466741Y-79312419D02*
X22561979Y-79264800D01*
X22561979Y-79264800D02*
X22609598Y-79169561D01*
X22609598Y-79169561D02*
X22609598Y-79121942D01*
X22609598Y-79121942D02*
X22561979Y-79026704D01*
X22561979Y-79026704D02*
X22466741Y-78979085D01*
X22466741Y-78979085D02*
X22323884Y-78979085D01*
X22323884Y-78979085D02*
X22228646Y-78931466D01*
X22228646Y-78931466D02*
X22181027Y-78836228D01*
X22181027Y-78836228D02*
X22181027Y-78788609D01*
X22181027Y-78788609D02*
X22228646Y-78693371D01*
X22228646Y-78693371D02*
X22323884Y-78645752D01*
X22323884Y-78645752D02*
X22466741Y-78645752D01*
X22466741Y-78645752D02*
X22561979Y-78693371D01*
X23038170Y-79312419D02*
X23038170Y-78312419D01*
X23466741Y-79312419D02*
X23466741Y-78788609D01*
X23466741Y-78788609D02*
X23419122Y-78693371D01*
X23419122Y-78693371D02*
X23323884Y-78645752D01*
X23323884Y-78645752D02*
X23181027Y-78645752D01*
X23181027Y-78645752D02*
X23085789Y-78693371D01*
X23085789Y-78693371D02*
X23038170Y-78740990D01*
X24609599Y-78312419D02*
X25228646Y-78312419D01*
X25228646Y-78312419D02*
X24895313Y-78693371D01*
X24895313Y-78693371D02*
X25038170Y-78693371D01*
X25038170Y-78693371D02*
X25133408Y-78740990D01*
X25133408Y-78740990D02*
X25181027Y-78788609D01*
X25181027Y-78788609D02*
X25228646Y-78883847D01*
X25228646Y-78883847D02*
X25228646Y-79121942D01*
X25228646Y-79121942D02*
X25181027Y-79217180D01*
X25181027Y-79217180D02*
X25133408Y-79264800D01*
X25133408Y-79264800D02*
X25038170Y-79312419D01*
X25038170Y-79312419D02*
X24752456Y-79312419D01*
X24752456Y-79312419D02*
X24657218Y-79264800D01*
X24657218Y-79264800D02*
X24609599Y-79217180D01*
X20323884Y-69312419D02*
X20323884Y-68312419D01*
X20323884Y-68312419D02*
X20704836Y-68312419D01*
X20704836Y-68312419D02*
X20800074Y-68360038D01*
X20800074Y-68360038D02*
X20847693Y-68407657D01*
X20847693Y-68407657D02*
X20895312Y-68502895D01*
X20895312Y-68502895D02*
X20895312Y-68645752D01*
X20895312Y-68645752D02*
X20847693Y-68740990D01*
X20847693Y-68740990D02*
X20800074Y-68788609D01*
X20800074Y-68788609D02*
X20704836Y-68836228D01*
X20704836Y-68836228D02*
X20323884Y-68836228D01*
X21752455Y-68645752D02*
X21752455Y-69312419D01*
X21323884Y-68645752D02*
X21323884Y-69169561D01*
X21323884Y-69169561D02*
X21371503Y-69264800D01*
X21371503Y-69264800D02*
X21466741Y-69312419D01*
X21466741Y-69312419D02*
X21609598Y-69312419D01*
X21609598Y-69312419D02*
X21704836Y-69264800D01*
X21704836Y-69264800D02*
X21752455Y-69217180D01*
X22181027Y-69264800D02*
X22276265Y-69312419D01*
X22276265Y-69312419D02*
X22466741Y-69312419D01*
X22466741Y-69312419D02*
X22561979Y-69264800D01*
X22561979Y-69264800D02*
X22609598Y-69169561D01*
X22609598Y-69169561D02*
X22609598Y-69121942D01*
X22609598Y-69121942D02*
X22561979Y-69026704D01*
X22561979Y-69026704D02*
X22466741Y-68979085D01*
X22466741Y-68979085D02*
X22323884Y-68979085D01*
X22323884Y-68979085D02*
X22228646Y-68931466D01*
X22228646Y-68931466D02*
X22181027Y-68836228D01*
X22181027Y-68836228D02*
X22181027Y-68788609D01*
X22181027Y-68788609D02*
X22228646Y-68693371D01*
X22228646Y-68693371D02*
X22323884Y-68645752D01*
X22323884Y-68645752D02*
X22466741Y-68645752D01*
X22466741Y-68645752D02*
X22561979Y-68693371D01*
X23038170Y-69312419D02*
X23038170Y-68312419D01*
X23466741Y-69312419D02*
X23466741Y-68788609D01*
X23466741Y-68788609D02*
X23419122Y-68693371D01*
X23419122Y-68693371D02*
X23323884Y-68645752D01*
X23323884Y-68645752D02*
X23181027Y-68645752D01*
X23181027Y-68645752D02*
X23085789Y-68693371D01*
X23085789Y-68693371D02*
X23038170Y-68740990D01*
X25228646Y-69312419D02*
X24657218Y-69312419D01*
X24942932Y-69312419D02*
X24942932Y-68312419D01*
X24942932Y-68312419D02*
X24847694Y-68455276D01*
X24847694Y-68455276D02*
X24752456Y-68550514D01*
X24752456Y-68550514D02*
X24657218Y-68598133D01*
X20323884Y-94312419D02*
X20323884Y-93312419D01*
X20323884Y-93312419D02*
X20704836Y-93312419D01*
X20704836Y-93312419D02*
X20800074Y-93360038D01*
X20800074Y-93360038D02*
X20847693Y-93407657D01*
X20847693Y-93407657D02*
X20895312Y-93502895D01*
X20895312Y-93502895D02*
X20895312Y-93645752D01*
X20895312Y-93645752D02*
X20847693Y-93740990D01*
X20847693Y-93740990D02*
X20800074Y-93788609D01*
X20800074Y-93788609D02*
X20704836Y-93836228D01*
X20704836Y-93836228D02*
X20323884Y-93836228D01*
X21752455Y-93645752D02*
X21752455Y-94312419D01*
X21323884Y-93645752D02*
X21323884Y-94169561D01*
X21323884Y-94169561D02*
X21371503Y-94264800D01*
X21371503Y-94264800D02*
X21466741Y-94312419D01*
X21466741Y-94312419D02*
X21609598Y-94312419D01*
X21609598Y-94312419D02*
X21704836Y-94264800D01*
X21704836Y-94264800D02*
X21752455Y-94217180D01*
X22181027Y-94264800D02*
X22276265Y-94312419D01*
X22276265Y-94312419D02*
X22466741Y-94312419D01*
X22466741Y-94312419D02*
X22561979Y-94264800D01*
X22561979Y-94264800D02*
X22609598Y-94169561D01*
X22609598Y-94169561D02*
X22609598Y-94121942D01*
X22609598Y-94121942D02*
X22561979Y-94026704D01*
X22561979Y-94026704D02*
X22466741Y-93979085D01*
X22466741Y-93979085D02*
X22323884Y-93979085D01*
X22323884Y-93979085D02*
X22228646Y-93931466D01*
X22228646Y-93931466D02*
X22181027Y-93836228D01*
X22181027Y-93836228D02*
X22181027Y-93788609D01*
X22181027Y-93788609D02*
X22228646Y-93693371D01*
X22228646Y-93693371D02*
X22323884Y-93645752D01*
X22323884Y-93645752D02*
X22466741Y-93645752D01*
X22466741Y-93645752D02*
X22561979Y-93693371D01*
X23038170Y-94312419D02*
X23038170Y-93312419D01*
X23466741Y-94312419D02*
X23466741Y-93788609D01*
X23466741Y-93788609D02*
X23419122Y-93693371D01*
X23419122Y-93693371D02*
X23323884Y-93645752D01*
X23323884Y-93645752D02*
X23181027Y-93645752D01*
X23181027Y-93645752D02*
X23085789Y-93693371D01*
X23085789Y-93693371D02*
X23038170Y-93740990D01*
X25133408Y-93312419D02*
X24942932Y-93312419D01*
X24942932Y-93312419D02*
X24847694Y-93360038D01*
X24847694Y-93360038D02*
X24800075Y-93407657D01*
X24800075Y-93407657D02*
X24704837Y-93550514D01*
X24704837Y-93550514D02*
X24657218Y-93740990D01*
X24657218Y-93740990D02*
X24657218Y-94121942D01*
X24657218Y-94121942D02*
X24704837Y-94217180D01*
X24704837Y-94217180D02*
X24752456Y-94264800D01*
X24752456Y-94264800D02*
X24847694Y-94312419D01*
X24847694Y-94312419D02*
X25038170Y-94312419D01*
X25038170Y-94312419D02*
X25133408Y-94264800D01*
X25133408Y-94264800D02*
X25181027Y-94217180D01*
X25181027Y-94217180D02*
X25228646Y-94121942D01*
X25228646Y-94121942D02*
X25228646Y-93883847D01*
X25228646Y-93883847D02*
X25181027Y-93788609D01*
X25181027Y-93788609D02*
X25133408Y-93740990D01*
X25133408Y-93740990D02*
X25038170Y-93693371D01*
X25038170Y-93693371D02*
X24847694Y-93693371D01*
X24847694Y-93693371D02*
X24752456Y-93740990D01*
X24752456Y-93740990D02*
X24704837Y-93788609D01*
X24704837Y-93788609D02*
X24657218Y-93883847D01*
X20323884Y-84312419D02*
X20323884Y-83312419D01*
X20323884Y-83312419D02*
X20704836Y-83312419D01*
X20704836Y-83312419D02*
X20800074Y-83360038D01*
X20800074Y-83360038D02*
X20847693Y-83407657D01*
X20847693Y-83407657D02*
X20895312Y-83502895D01*
X20895312Y-83502895D02*
X20895312Y-83645752D01*
X20895312Y-83645752D02*
X20847693Y-83740990D01*
X20847693Y-83740990D02*
X20800074Y-83788609D01*
X20800074Y-83788609D02*
X20704836Y-83836228D01*
X20704836Y-83836228D02*
X20323884Y-83836228D01*
X21752455Y-83645752D02*
X21752455Y-84312419D01*
X21323884Y-83645752D02*
X21323884Y-84169561D01*
X21323884Y-84169561D02*
X21371503Y-84264800D01*
X21371503Y-84264800D02*
X21466741Y-84312419D01*
X21466741Y-84312419D02*
X21609598Y-84312419D01*
X21609598Y-84312419D02*
X21704836Y-84264800D01*
X21704836Y-84264800D02*
X21752455Y-84217180D01*
X22181027Y-84264800D02*
X22276265Y-84312419D01*
X22276265Y-84312419D02*
X22466741Y-84312419D01*
X22466741Y-84312419D02*
X22561979Y-84264800D01*
X22561979Y-84264800D02*
X22609598Y-84169561D01*
X22609598Y-84169561D02*
X22609598Y-84121942D01*
X22609598Y-84121942D02*
X22561979Y-84026704D01*
X22561979Y-84026704D02*
X22466741Y-83979085D01*
X22466741Y-83979085D02*
X22323884Y-83979085D01*
X22323884Y-83979085D02*
X22228646Y-83931466D01*
X22228646Y-83931466D02*
X22181027Y-83836228D01*
X22181027Y-83836228D02*
X22181027Y-83788609D01*
X22181027Y-83788609D02*
X22228646Y-83693371D01*
X22228646Y-83693371D02*
X22323884Y-83645752D01*
X22323884Y-83645752D02*
X22466741Y-83645752D01*
X22466741Y-83645752D02*
X22561979Y-83693371D01*
X23038170Y-84312419D02*
X23038170Y-83312419D01*
X23466741Y-84312419D02*
X23466741Y-83788609D01*
X23466741Y-83788609D02*
X23419122Y-83693371D01*
X23419122Y-83693371D02*
X23323884Y-83645752D01*
X23323884Y-83645752D02*
X23181027Y-83645752D01*
X23181027Y-83645752D02*
X23085789Y-83693371D01*
X23085789Y-83693371D02*
X23038170Y-83740990D01*
X25133408Y-83645752D02*
X25133408Y-84312419D01*
X24895313Y-83264800D02*
X24657218Y-83979085D01*
X24657218Y-83979085D02*
X25276265Y-83979085D01*
D11*
X23170112Y-48846009D02*
X23312969Y-48893628D01*
X23312969Y-48893628D02*
X23360588Y-48941247D01*
X23360588Y-48941247D02*
X23408207Y-49036485D01*
X23408207Y-49036485D02*
X23408207Y-49179342D01*
X23408207Y-49179342D02*
X23360588Y-49274580D01*
X23360588Y-49274580D02*
X23312969Y-49322200D01*
X23312969Y-49322200D02*
X23217731Y-49369819D01*
X23217731Y-49369819D02*
X22836779Y-49369819D01*
X22836779Y-49369819D02*
X22836779Y-48369819D01*
X22836779Y-48369819D02*
X23170112Y-48369819D01*
X23170112Y-48369819D02*
X23265350Y-48417438D01*
X23265350Y-48417438D02*
X23312969Y-48465057D01*
X23312969Y-48465057D02*
X23360588Y-48560295D01*
X23360588Y-48560295D02*
X23360588Y-48655533D01*
X23360588Y-48655533D02*
X23312969Y-48750771D01*
X23312969Y-48750771D02*
X23265350Y-48798390D01*
X23265350Y-48798390D02*
X23170112Y-48846009D01*
X23170112Y-48846009D02*
X22836779Y-48846009D01*
X24217731Y-49322200D02*
X24122493Y-49369819D01*
X24122493Y-49369819D02*
X23932017Y-49369819D01*
X23932017Y-49369819D02*
X23836779Y-49322200D01*
X23836779Y-49322200D02*
X23789160Y-49226961D01*
X23789160Y-49226961D02*
X23789160Y-48846009D01*
X23789160Y-48846009D02*
X23836779Y-48750771D01*
X23836779Y-48750771D02*
X23932017Y-48703152D01*
X23932017Y-48703152D02*
X24122493Y-48703152D01*
X24122493Y-48703152D02*
X24217731Y-48750771D01*
X24217731Y-48750771D02*
X24265350Y-48846009D01*
X24265350Y-48846009D02*
X24265350Y-48941247D01*
X24265350Y-48941247D02*
X23789160Y-49036485D01*
X24836779Y-49369819D02*
X24741541Y-49322200D01*
X24741541Y-49322200D02*
X24693922Y-49226961D01*
X24693922Y-49226961D02*
X24693922Y-48369819D01*
X25360589Y-49369819D02*
X25265351Y-49322200D01*
X25265351Y-49322200D02*
X25217732Y-49226961D01*
X25217732Y-49226961D02*
X25217732Y-48369819D01*
X38878333Y-54534819D02*
X38545000Y-54058628D01*
X38306905Y-54534819D02*
X38306905Y-53534819D01*
X38306905Y-53534819D02*
X38687857Y-53534819D01*
X38687857Y-53534819D02*
X38783095Y-53582438D01*
X38783095Y-53582438D02*
X38830714Y-53630057D01*
X38830714Y-53630057D02*
X38878333Y-53725295D01*
X38878333Y-53725295D02*
X38878333Y-53868152D01*
X38878333Y-53868152D02*
X38830714Y-53963390D01*
X38830714Y-53963390D02*
X38783095Y-54011009D01*
X38783095Y-54011009D02*
X38687857Y-54058628D01*
X38687857Y-54058628D02*
X38306905Y-54058628D01*
X39830714Y-54534819D02*
X39259286Y-54534819D01*
X39545000Y-54534819D02*
X39545000Y-53534819D01*
X39545000Y-53534819D02*
X39449762Y-53677676D01*
X39449762Y-53677676D02*
X39354524Y-53772914D01*
X39354524Y-53772914D02*
X39259286Y-53820533D01*
X38907142Y-95884819D02*
X38573809Y-95408628D01*
X38335714Y-95884819D02*
X38335714Y-94884819D01*
X38335714Y-94884819D02*
X38716666Y-94884819D01*
X38716666Y-94884819D02*
X38811904Y-94932438D01*
X38811904Y-94932438D02*
X38859523Y-94980057D01*
X38859523Y-94980057D02*
X38907142Y-95075295D01*
X38907142Y-95075295D02*
X38907142Y-95218152D01*
X38907142Y-95218152D02*
X38859523Y-95313390D01*
X38859523Y-95313390D02*
X38811904Y-95361009D01*
X38811904Y-95361009D02*
X38716666Y-95408628D01*
X38716666Y-95408628D02*
X38335714Y-95408628D01*
X39859523Y-95884819D02*
X39288095Y-95884819D01*
X39573809Y-95884819D02*
X39573809Y-94884819D01*
X39573809Y-94884819D02*
X39478571Y-95027676D01*
X39478571Y-95027676D02*
X39383333Y-95122914D01*
X39383333Y-95122914D02*
X39288095Y-95170533D01*
X40478571Y-94884819D02*
X40573809Y-94884819D01*
X40573809Y-94884819D02*
X40669047Y-94932438D01*
X40669047Y-94932438D02*
X40716666Y-94980057D01*
X40716666Y-94980057D02*
X40764285Y-95075295D01*
X40764285Y-95075295D02*
X40811904Y-95265771D01*
X40811904Y-95265771D02*
X40811904Y-95503866D01*
X40811904Y-95503866D02*
X40764285Y-95694342D01*
X40764285Y-95694342D02*
X40716666Y-95789580D01*
X40716666Y-95789580D02*
X40669047Y-95837200D01*
X40669047Y-95837200D02*
X40573809Y-95884819D01*
X40573809Y-95884819D02*
X40478571Y-95884819D01*
X40478571Y-95884819D02*
X40383333Y-95837200D01*
X40383333Y-95837200D02*
X40335714Y-95789580D01*
X40335714Y-95789580D02*
X40288095Y-95694342D01*
X40288095Y-95694342D02*
X40240476Y-95503866D01*
X40240476Y-95503866D02*
X40240476Y-95265771D01*
X40240476Y-95265771D02*
X40288095Y-95075295D01*
X40288095Y-95075295D02*
X40335714Y-94980057D01*
X40335714Y-94980057D02*
X40383333Y-94932438D01*
X40383333Y-94932438D02*
X40478571Y-94884819D01*
X36280057Y-47635238D02*
X36232438Y-47730476D01*
X36232438Y-47730476D02*
X36137200Y-47825714D01*
X36137200Y-47825714D02*
X35994342Y-47968571D01*
X35994342Y-47968571D02*
X35946723Y-48063809D01*
X35946723Y-48063809D02*
X35946723Y-48159047D01*
X36184819Y-48111428D02*
X36137200Y-48206666D01*
X36137200Y-48206666D02*
X36041961Y-48301904D01*
X36041961Y-48301904D02*
X35851485Y-48349523D01*
X35851485Y-48349523D02*
X35518152Y-48349523D01*
X35518152Y-48349523D02*
X35327676Y-48301904D01*
X35327676Y-48301904D02*
X35232438Y-48206666D01*
X35232438Y-48206666D02*
X35184819Y-48111428D01*
X35184819Y-48111428D02*
X35184819Y-47920952D01*
X35184819Y-47920952D02*
X35232438Y-47825714D01*
X35232438Y-47825714D02*
X35327676Y-47730476D01*
X35327676Y-47730476D02*
X35518152Y-47682857D01*
X35518152Y-47682857D02*
X35851485Y-47682857D01*
X35851485Y-47682857D02*
X36041961Y-47730476D01*
X36041961Y-47730476D02*
X36137200Y-47825714D01*
X36137200Y-47825714D02*
X36184819Y-47920952D01*
X36184819Y-47920952D02*
X36184819Y-48111428D01*
X36184819Y-46730476D02*
X36184819Y-47301904D01*
X36184819Y-47016190D02*
X35184819Y-47016190D01*
X35184819Y-47016190D02*
X35327676Y-47111428D01*
X35327676Y-47111428D02*
X35422914Y-47206666D01*
X35422914Y-47206666D02*
X35470533Y-47301904D01*
X39283333Y-71534819D02*
X38950000Y-71058628D01*
X38711905Y-71534819D02*
X38711905Y-70534819D01*
X38711905Y-70534819D02*
X39092857Y-70534819D01*
X39092857Y-70534819D02*
X39188095Y-70582438D01*
X39188095Y-70582438D02*
X39235714Y-70630057D01*
X39235714Y-70630057D02*
X39283333Y-70725295D01*
X39283333Y-70725295D02*
X39283333Y-70868152D01*
X39283333Y-70868152D02*
X39235714Y-70963390D01*
X39235714Y-70963390D02*
X39188095Y-71011009D01*
X39188095Y-71011009D02*
X39092857Y-71058628D01*
X39092857Y-71058628D02*
X38711905Y-71058628D01*
X39616667Y-70534819D02*
X40235714Y-70534819D01*
X40235714Y-70534819D02*
X39902381Y-70915771D01*
X39902381Y-70915771D02*
X40045238Y-70915771D01*
X40045238Y-70915771D02*
X40140476Y-70963390D01*
X40140476Y-70963390D02*
X40188095Y-71011009D01*
X40188095Y-71011009D02*
X40235714Y-71106247D01*
X40235714Y-71106247D02*
X40235714Y-71344342D01*
X40235714Y-71344342D02*
X40188095Y-71439580D01*
X40188095Y-71439580D02*
X40140476Y-71487200D01*
X40140476Y-71487200D02*
X40045238Y-71534819D01*
X40045238Y-71534819D02*
X39759524Y-71534819D01*
X39759524Y-71534819D02*
X39664286Y-71487200D01*
X39664286Y-71487200D02*
X39616667Y-71439580D01*
X39283333Y-74684819D02*
X38950000Y-74208628D01*
X38711905Y-74684819D02*
X38711905Y-73684819D01*
X38711905Y-73684819D02*
X39092857Y-73684819D01*
X39092857Y-73684819D02*
X39188095Y-73732438D01*
X39188095Y-73732438D02*
X39235714Y-73780057D01*
X39235714Y-73780057D02*
X39283333Y-73875295D01*
X39283333Y-73875295D02*
X39283333Y-74018152D01*
X39283333Y-74018152D02*
X39235714Y-74113390D01*
X39235714Y-74113390D02*
X39188095Y-74161009D01*
X39188095Y-74161009D02*
X39092857Y-74208628D01*
X39092857Y-74208628D02*
X38711905Y-74208628D01*
X40140476Y-74018152D02*
X40140476Y-74684819D01*
X39902381Y-73637200D02*
X39664286Y-74351485D01*
X39664286Y-74351485D02*
X40283333Y-74351485D01*
X39283333Y-80984819D02*
X38950000Y-80508628D01*
X38711905Y-80984819D02*
X38711905Y-79984819D01*
X38711905Y-79984819D02*
X39092857Y-79984819D01*
X39092857Y-79984819D02*
X39188095Y-80032438D01*
X39188095Y-80032438D02*
X39235714Y-80080057D01*
X39235714Y-80080057D02*
X39283333Y-80175295D01*
X39283333Y-80175295D02*
X39283333Y-80318152D01*
X39283333Y-80318152D02*
X39235714Y-80413390D01*
X39235714Y-80413390D02*
X39188095Y-80461009D01*
X39188095Y-80461009D02*
X39092857Y-80508628D01*
X39092857Y-80508628D02*
X38711905Y-80508628D01*
X40140476Y-79984819D02*
X39950000Y-79984819D01*
X39950000Y-79984819D02*
X39854762Y-80032438D01*
X39854762Y-80032438D02*
X39807143Y-80080057D01*
X39807143Y-80080057D02*
X39711905Y-80222914D01*
X39711905Y-80222914D02*
X39664286Y-80413390D01*
X39664286Y-80413390D02*
X39664286Y-80794342D01*
X39664286Y-80794342D02*
X39711905Y-80889580D01*
X39711905Y-80889580D02*
X39759524Y-80937200D01*
X39759524Y-80937200D02*
X39854762Y-80984819D01*
X39854762Y-80984819D02*
X40045238Y-80984819D01*
X40045238Y-80984819D02*
X40140476Y-80937200D01*
X40140476Y-80937200D02*
X40188095Y-80889580D01*
X40188095Y-80889580D02*
X40235714Y-80794342D01*
X40235714Y-80794342D02*
X40235714Y-80556247D01*
X40235714Y-80556247D02*
X40188095Y-80461009D01*
X40188095Y-80461009D02*
X40140476Y-80413390D01*
X40140476Y-80413390D02*
X40045238Y-80365771D01*
X40045238Y-80365771D02*
X39854762Y-80365771D01*
X39854762Y-80365771D02*
X39759524Y-80413390D01*
X39759524Y-80413390D02*
X39711905Y-80461009D01*
X39711905Y-80461009D02*
X39664286Y-80556247D01*
X36074819Y-74083333D02*
X36789104Y-74083333D01*
X36789104Y-74083333D02*
X36931961Y-74130952D01*
X36931961Y-74130952D02*
X37027200Y-74226190D01*
X37027200Y-74226190D02*
X37074819Y-74369047D01*
X37074819Y-74369047D02*
X37074819Y-74464285D01*
X36170057Y-73654761D02*
X36122438Y-73607142D01*
X36122438Y-73607142D02*
X36074819Y-73511904D01*
X36074819Y-73511904D02*
X36074819Y-73273809D01*
X36074819Y-73273809D02*
X36122438Y-73178571D01*
X36122438Y-73178571D02*
X36170057Y-73130952D01*
X36170057Y-73130952D02*
X36265295Y-73083333D01*
X36265295Y-73083333D02*
X36360533Y-73083333D01*
X36360533Y-73083333D02*
X36503390Y-73130952D01*
X36503390Y-73130952D02*
X37074819Y-73702380D01*
X37074819Y-73702380D02*
X37074819Y-73083333D01*
X39283333Y-77834819D02*
X38950000Y-77358628D01*
X38711905Y-77834819D02*
X38711905Y-76834819D01*
X38711905Y-76834819D02*
X39092857Y-76834819D01*
X39092857Y-76834819D02*
X39188095Y-76882438D01*
X39188095Y-76882438D02*
X39235714Y-76930057D01*
X39235714Y-76930057D02*
X39283333Y-77025295D01*
X39283333Y-77025295D02*
X39283333Y-77168152D01*
X39283333Y-77168152D02*
X39235714Y-77263390D01*
X39235714Y-77263390D02*
X39188095Y-77311009D01*
X39188095Y-77311009D02*
X39092857Y-77358628D01*
X39092857Y-77358628D02*
X38711905Y-77358628D01*
X40188095Y-76834819D02*
X39711905Y-76834819D01*
X39711905Y-76834819D02*
X39664286Y-77311009D01*
X39664286Y-77311009D02*
X39711905Y-77263390D01*
X39711905Y-77263390D02*
X39807143Y-77215771D01*
X39807143Y-77215771D02*
X40045238Y-77215771D01*
X40045238Y-77215771D02*
X40140476Y-77263390D01*
X40140476Y-77263390D02*
X40188095Y-77311009D01*
X40188095Y-77311009D02*
X40235714Y-77406247D01*
X40235714Y-77406247D02*
X40235714Y-77644342D01*
X40235714Y-77644342D02*
X40188095Y-77739580D01*
X40188095Y-77739580D02*
X40140476Y-77787200D01*
X40140476Y-77787200D02*
X40045238Y-77834819D01*
X40045238Y-77834819D02*
X39807143Y-77834819D01*
X39807143Y-77834819D02*
X39711905Y-77787200D01*
X39711905Y-77787200D02*
X39664286Y-77739580D01*
X39283333Y-90434819D02*
X38950000Y-89958628D01*
X38711905Y-90434819D02*
X38711905Y-89434819D01*
X38711905Y-89434819D02*
X39092857Y-89434819D01*
X39092857Y-89434819D02*
X39188095Y-89482438D01*
X39188095Y-89482438D02*
X39235714Y-89530057D01*
X39235714Y-89530057D02*
X39283333Y-89625295D01*
X39283333Y-89625295D02*
X39283333Y-89768152D01*
X39283333Y-89768152D02*
X39235714Y-89863390D01*
X39235714Y-89863390D02*
X39188095Y-89911009D01*
X39188095Y-89911009D02*
X39092857Y-89958628D01*
X39092857Y-89958628D02*
X38711905Y-89958628D01*
X39759524Y-90434819D02*
X39950000Y-90434819D01*
X39950000Y-90434819D02*
X40045238Y-90387200D01*
X40045238Y-90387200D02*
X40092857Y-90339580D01*
X40092857Y-90339580D02*
X40188095Y-90196723D01*
X40188095Y-90196723D02*
X40235714Y-90006247D01*
X40235714Y-90006247D02*
X40235714Y-89625295D01*
X40235714Y-89625295D02*
X40188095Y-89530057D01*
X40188095Y-89530057D02*
X40140476Y-89482438D01*
X40140476Y-89482438D02*
X40045238Y-89434819D01*
X40045238Y-89434819D02*
X39854762Y-89434819D01*
X39854762Y-89434819D02*
X39759524Y-89482438D01*
X39759524Y-89482438D02*
X39711905Y-89530057D01*
X39711905Y-89530057D02*
X39664286Y-89625295D01*
X39664286Y-89625295D02*
X39664286Y-89863390D01*
X39664286Y-89863390D02*
X39711905Y-89958628D01*
X39711905Y-89958628D02*
X39759524Y-90006247D01*
X39759524Y-90006247D02*
X39854762Y-90053866D01*
X39854762Y-90053866D02*
X40045238Y-90053866D01*
X40045238Y-90053866D02*
X40140476Y-90006247D01*
X40140476Y-90006247D02*
X40188095Y-89958628D01*
X40188095Y-89958628D02*
X40235714Y-89863390D01*
X39283333Y-84134819D02*
X38950000Y-83658628D01*
X38711905Y-84134819D02*
X38711905Y-83134819D01*
X38711905Y-83134819D02*
X39092857Y-83134819D01*
X39092857Y-83134819D02*
X39188095Y-83182438D01*
X39188095Y-83182438D02*
X39235714Y-83230057D01*
X39235714Y-83230057D02*
X39283333Y-83325295D01*
X39283333Y-83325295D02*
X39283333Y-83468152D01*
X39283333Y-83468152D02*
X39235714Y-83563390D01*
X39235714Y-83563390D02*
X39188095Y-83611009D01*
X39188095Y-83611009D02*
X39092857Y-83658628D01*
X39092857Y-83658628D02*
X38711905Y-83658628D01*
X39616667Y-83134819D02*
X40283333Y-83134819D01*
X40283333Y-83134819D02*
X39854762Y-84134819D01*
X39283333Y-87284819D02*
X38950000Y-86808628D01*
X38711905Y-87284819D02*
X38711905Y-86284819D01*
X38711905Y-86284819D02*
X39092857Y-86284819D01*
X39092857Y-86284819D02*
X39188095Y-86332438D01*
X39188095Y-86332438D02*
X39235714Y-86380057D01*
X39235714Y-86380057D02*
X39283333Y-86475295D01*
X39283333Y-86475295D02*
X39283333Y-86618152D01*
X39283333Y-86618152D02*
X39235714Y-86713390D01*
X39235714Y-86713390D02*
X39188095Y-86761009D01*
X39188095Y-86761009D02*
X39092857Y-86808628D01*
X39092857Y-86808628D02*
X38711905Y-86808628D01*
X39854762Y-86713390D02*
X39759524Y-86665771D01*
X39759524Y-86665771D02*
X39711905Y-86618152D01*
X39711905Y-86618152D02*
X39664286Y-86522914D01*
X39664286Y-86522914D02*
X39664286Y-86475295D01*
X39664286Y-86475295D02*
X39711905Y-86380057D01*
X39711905Y-86380057D02*
X39759524Y-86332438D01*
X39759524Y-86332438D02*
X39854762Y-86284819D01*
X39854762Y-86284819D02*
X40045238Y-86284819D01*
X40045238Y-86284819D02*
X40140476Y-86332438D01*
X40140476Y-86332438D02*
X40188095Y-86380057D01*
X40188095Y-86380057D02*
X40235714Y-86475295D01*
X40235714Y-86475295D02*
X40235714Y-86522914D01*
X40235714Y-86522914D02*
X40188095Y-86618152D01*
X40188095Y-86618152D02*
X40140476Y-86665771D01*
X40140476Y-86665771D02*
X40045238Y-86713390D01*
X40045238Y-86713390D02*
X39854762Y-86713390D01*
X39854762Y-86713390D02*
X39759524Y-86761009D01*
X39759524Y-86761009D02*
X39711905Y-86808628D01*
X39711905Y-86808628D02*
X39664286Y-86903866D01*
X39664286Y-86903866D02*
X39664286Y-87094342D01*
X39664286Y-87094342D02*
X39711905Y-87189580D01*
X39711905Y-87189580D02*
X39759524Y-87237200D01*
X39759524Y-87237200D02*
X39854762Y-87284819D01*
X39854762Y-87284819D02*
X40045238Y-87284819D01*
X40045238Y-87284819D02*
X40140476Y-87237200D01*
X40140476Y-87237200D02*
X40188095Y-87189580D01*
X40188095Y-87189580D02*
X40235714Y-87094342D01*
X40235714Y-87094342D02*
X40235714Y-86903866D01*
X40235714Y-86903866D02*
X40188095Y-86808628D01*
X40188095Y-86808628D02*
X40140476Y-86761009D01*
X40140476Y-86761009D02*
X40045238Y-86713390D01*
D12*
%TO.C,R1*%
X38415095Y-56749359D02*
G75*
G02*
X38512133Y-55300000I-320095J749359D01*
G01*
%TO.C,R10*%
X38920095Y-98099359D02*
G75*
G02*
X39017133Y-96650000I-320095J749359D01*
G01*
%TO.C,Q1*%
X36730000Y-42420000D02*
X41371000Y-42420000D01*
X36730000Y-45689000D02*
X38240000Y-45689000D01*
X36730000Y-49390000D02*
X38240000Y-49390000D01*
X36730000Y-52660000D02*
X36730000Y-42420000D01*
X36730000Y-52660000D02*
X41371000Y-52660000D01*
X38240000Y-52660000D02*
X38240000Y-42420000D01*
X41371000Y-52660000D02*
X41371000Y-42420000D01*
%TO.C,R3*%
X38820095Y-73749359D02*
G75*
G02*
X38917133Y-72300000I-320095J749359D01*
G01*
%TO.C,R4*%
X38820095Y-76899359D02*
G75*
G02*
X38917133Y-75450000I-320095J749359D01*
G01*
%TO.C,R6*%
X38820095Y-83199359D02*
G75*
G02*
X38917133Y-81750000I-320095J749359D01*
G01*
%TO.C,J2*%
X27580000Y-40880000D02*
X27580000Y-43700000D01*
X27580000Y-44300000D02*
X27580000Y-106620000D01*
X29700000Y-40880000D02*
X29700000Y-42120000D01*
X29700000Y-45880000D02*
X29700000Y-48457000D01*
X29700000Y-49543000D02*
X29700000Y-53457000D01*
X29700000Y-54543000D02*
X29700000Y-58457000D01*
X29700000Y-59543000D02*
X29700000Y-63457000D01*
X29700000Y-64543000D02*
X29700000Y-68457000D01*
X29700000Y-69543000D02*
X29700000Y-73457000D01*
X29700000Y-74543000D02*
X29700000Y-78457000D01*
X29700000Y-79543000D02*
X29700000Y-83457000D01*
X29700000Y-84543000D02*
X29700000Y-88457000D01*
X29700000Y-89543000D02*
X29700000Y-93457000D01*
X29700000Y-94543000D02*
X29700000Y-98457000D01*
X29700000Y-99543000D02*
X29700000Y-103457000D01*
X29700000Y-104543000D02*
X29700000Y-106620000D01*
X30057000Y-47795000D02*
X30014000Y-47752000D01*
X30057000Y-52795000D02*
X30014000Y-52752000D01*
X30057000Y-57795000D02*
X30014000Y-57752000D01*
X30057000Y-62795000D02*
X30014000Y-62752000D01*
X30057000Y-67795000D02*
X30014000Y-67752000D01*
X30057000Y-72795000D02*
X30014000Y-72752000D01*
X30057000Y-77795000D02*
X30014000Y-77752000D01*
X30057000Y-82795000D02*
X30014000Y-82752000D01*
X30057000Y-87795000D02*
X30014000Y-87752000D01*
X30057000Y-92795000D02*
X30014000Y-92752000D01*
X30057000Y-97795000D02*
X30014000Y-97752000D01*
X30057000Y-102795000D02*
X30014000Y-102752000D01*
X30296000Y-47556000D02*
X30253000Y-47513000D01*
X30296000Y-52556000D02*
X30253000Y-52513000D01*
X30296000Y-57556000D02*
X30253000Y-57513000D01*
X30296000Y-62556000D02*
X30253000Y-62513000D01*
X30296000Y-67556000D02*
X30253000Y-67513000D01*
X30296000Y-72556000D02*
X30253000Y-72513000D01*
X30296000Y-77556000D02*
X30253000Y-77513000D01*
X30296000Y-82556000D02*
X30253000Y-82513000D01*
X30296000Y-87556000D02*
X30253000Y-87513000D01*
X30296000Y-92556000D02*
X30253000Y-92513000D01*
X30296000Y-97556000D02*
X30253000Y-97513000D01*
X30296000Y-102556000D02*
X30253000Y-102513000D01*
X31000000Y-40880000D02*
X31000000Y-42120000D01*
X31000000Y-45880000D02*
X31000000Y-47188000D01*
X31000000Y-50812000D02*
X31000000Y-52188000D01*
X31000000Y-55812000D02*
X31000000Y-57188000D01*
X31000000Y-60812000D02*
X31000000Y-62188000D01*
X31000000Y-65812000D02*
X31000000Y-67188000D01*
X31000000Y-70812000D02*
X31000000Y-72188000D01*
X31000000Y-75812000D02*
X31000000Y-77188000D01*
X31000000Y-80812000D02*
X31000000Y-82188000D01*
X31000000Y-85812000D02*
X31000000Y-87188000D01*
X31000000Y-90812000D02*
X31000000Y-92188000D01*
X31000000Y-95812000D02*
X31000000Y-97188000D01*
X31000000Y-100812000D02*
X31000000Y-102188000D01*
X31000000Y-105812000D02*
X31000000Y-106620000D01*
X32000000Y-40880000D02*
X32000000Y-42120000D01*
X32000000Y-45880000D02*
X32000000Y-47188000D01*
X32000000Y-50812000D02*
X32000000Y-52188000D01*
X32000000Y-55812000D02*
X32000000Y-57188000D01*
X32000000Y-60812000D02*
X32000000Y-62188000D01*
X32000000Y-65812000D02*
X32000000Y-67188000D01*
X32000000Y-70812000D02*
X32000000Y-72188000D01*
X32000000Y-75812000D02*
X32000000Y-77188000D01*
X32000000Y-80812000D02*
X32000000Y-82188000D01*
X32000000Y-85812000D02*
X32000000Y-87188000D01*
X32000000Y-90812000D02*
X32000000Y-92188000D01*
X32000000Y-95812000D02*
X32000000Y-97188000D01*
X32000000Y-100812000D02*
X32000000Y-102188000D01*
X32000000Y-105812000D02*
X32000000Y-106620000D01*
X32747000Y-50487000D02*
X32704000Y-50444000D01*
X32747000Y-55487000D02*
X32704000Y-55444000D01*
X32747000Y-60487000D02*
X32704000Y-60444000D01*
X32747000Y-65487000D02*
X32704000Y-65444000D01*
X32747000Y-70487000D02*
X32704000Y-70444000D01*
X32747000Y-75487000D02*
X32704000Y-75444000D01*
X32747000Y-80487000D02*
X32704000Y-80444000D01*
X32747000Y-85487000D02*
X32704000Y-85444000D01*
X32747000Y-90487000D02*
X32704000Y-90444000D01*
X32747000Y-95487000D02*
X32704000Y-95444000D01*
X32747000Y-100487000D02*
X32704000Y-100444000D01*
X32747000Y-105487000D02*
X32704000Y-105444000D01*
X32986000Y-50247000D02*
X32943000Y-50204000D01*
X32986000Y-55247000D02*
X32943000Y-55204000D01*
X32986000Y-60247000D02*
X32943000Y-60204000D01*
X32986000Y-65247000D02*
X32943000Y-65204000D01*
X32986000Y-70247000D02*
X32943000Y-70204000D01*
X32986000Y-75247000D02*
X32943000Y-75204000D01*
X32986000Y-80247000D02*
X32943000Y-80204000D01*
X32986000Y-85247000D02*
X32943000Y-85204000D01*
X32986000Y-90247000D02*
X32943000Y-90204000D01*
X32986000Y-95247000D02*
X32943000Y-95204000D01*
X32986000Y-100247000D02*
X32943000Y-100204000D01*
X32986000Y-105247000D02*
X32943000Y-105204000D01*
X35620000Y-40880000D02*
X27580000Y-40880000D01*
X35620000Y-40880000D02*
X35620000Y-106620000D01*
X35620000Y-106620000D02*
X27580000Y-106620000D01*
X29620000Y-44554000D02*
G75*
G02*
X29620139Y-43445528I1879990J554000D01*
G01*
X30946000Y-42120000D02*
G75*
G02*
X32054472Y-42120139I554000J-1879990D01*
G01*
X32054000Y-45880000D02*
G75*
G02*
X30945528Y-45879861I-554000J1880000D01*
G01*
X33380000Y-43446000D02*
G75*
G02*
X33379861Y-44554472I-1880000J-554000D01*
G01*
X33460000Y-49000000D02*
G75*
G02*
X29540000Y-49000000I-1960000J0D01*
G01*
X29540000Y-49000000D02*
G75*
G02*
X33460000Y-49000000I1960000J0D01*
G01*
X33460000Y-54000000D02*
G75*
G02*
X29540000Y-54000000I-1960000J0D01*
G01*
X29540000Y-54000000D02*
G75*
G02*
X33460000Y-54000000I1960000J0D01*
G01*
X33460000Y-59000000D02*
G75*
G02*
X29540000Y-59000000I-1960000J0D01*
G01*
X29540000Y-59000000D02*
G75*
G02*
X33460000Y-59000000I1960000J0D01*
G01*
X33460000Y-64000000D02*
G75*
G02*
X29540000Y-64000000I-1960000J0D01*
G01*
X29540000Y-64000000D02*
G75*
G02*
X33460000Y-64000000I1960000J0D01*
G01*
X33460000Y-69000000D02*
G75*
G02*
X29540000Y-69000000I-1960000J0D01*
G01*
X29540000Y-69000000D02*
G75*
G02*
X33460000Y-69000000I1960000J0D01*
G01*
X33460000Y-74000000D02*
G75*
G02*
X29540000Y-74000000I-1960000J0D01*
G01*
X29540000Y-74000000D02*
G75*
G02*
X33460000Y-74000000I1960000J0D01*
G01*
X33460000Y-79000000D02*
G75*
G02*
X29540000Y-79000000I-1960000J0D01*
G01*
X29540000Y-79000000D02*
G75*
G02*
X33460000Y-79000000I1960000J0D01*
G01*
X33460000Y-84000000D02*
G75*
G02*
X29540000Y-84000000I-1960000J0D01*
G01*
X29540000Y-84000000D02*
G75*
G02*
X33460000Y-84000000I1960000J0D01*
G01*
X33460000Y-89000000D02*
G75*
G02*
X29540000Y-89000000I-1960000J0D01*
G01*
X29540000Y-89000000D02*
G75*
G02*
X33460000Y-89000000I1960000J0D01*
G01*
X33460000Y-94000000D02*
G75*
G02*
X29540000Y-94000000I-1960000J0D01*
G01*
X29540000Y-94000000D02*
G75*
G02*
X33460000Y-94000000I1960000J0D01*
G01*
X33460000Y-99000000D02*
G75*
G02*
X29540000Y-99000000I-1960000J0D01*
G01*
X29540000Y-99000000D02*
G75*
G02*
X33460000Y-99000000I1960000J0D01*
G01*
X33460000Y-104000000D02*
G75*
G02*
X29540000Y-104000000I-1960000J0D01*
G01*
X29540000Y-104000000D02*
G75*
G02*
X33460000Y-104000000I1960000J0D01*
G01*
X27580000Y-44000000D02*
X26970000Y-44440000D01*
X26970000Y-43560000D01*
X27580000Y-44000000D01*
G36*
X27580000Y-44000000D02*
G01*
X26970000Y-44440000D01*
X26970000Y-43560000D01*
X27580000Y-44000000D01*
G37*
%TO.C,R5*%
X38820095Y-80049359D02*
G75*
G02*
X38917133Y-78600000I-320095J749359D01*
G01*
%TO.C,R9*%
X38820095Y-92649359D02*
G75*
G02*
X38917133Y-91200000I-320095J749359D01*
G01*
%TO.C,R7*%
X38820095Y-86349359D02*
G75*
G02*
X38917133Y-84900000I-320095J749359D01*
G01*
%TO.C,R8*%
X38820095Y-89499359D02*
G75*
G02*
X38917133Y-88050000I-320095J749359D01*
G01*
%TD*%
M02*
