%TF.GenerationSoftware,KiCad,Pcbnew,8.0.8*%
%TF.CreationDate,2025-03-16T18:45:55-07:00*%
%TF.ProjectId,PhonePiHat,50686f6e-6550-4694-9861-742e6b696361,rev?*%
%TF.SameCoordinates,Original*%
%TF.FileFunction,Copper,L1,Top*%
%TF.FilePolarity,Positive*%
%FSLAX46Y46*%
G04 Gerber Fmt 4.6, Leading zero omitted, Abs format (unit mm)*
G04 Created by KiCad (PCBNEW 8.0.8) date 2025-03-16 18:45:55*
%MOMM*%
%LPD*%
G01*
G04 APERTURE LIST*
G04 Aperture macros list*
%AMRoundRect*
0 Rectangle with rounded corners*
0 $1 Rounding radius*
0 $2 $3 $4 $5 $6 $7 $8 $9 X,Y pos of 4 corners*
0 Add a 4 corners polygon primitive as box body*
4,1,4,$2,$3,$4,$5,$6,$7,$8,$9,$2,$3,0*
0 Add four circle primitives for the rounded corners*
1,1,$1+$1,$2,$3*
1,1,$1+$1,$4,$5*
1,1,$1+$1,$6,$7*
1,1,$1+$1,$8,$9*
0 Add four rect primitives between the rounded corners*
20,1,$1+$1,$2,$3,$4,$5,0*
20,1,$1+$1,$4,$5,$6,$7,0*
20,1,$1+$1,$6,$7,$8,$9,0*
20,1,$1+$1,$8,$9,$2,$3,0*%
G04 Aperture macros list end*
%TA.AperFunction,ComponentPad*%
%ADD10C,1.400000*%
%TD*%
%TA.AperFunction,ComponentPad*%
%ADD11O,1.400000X1.400000*%
%TD*%
%TA.AperFunction,ComponentPad*%
%ADD12R,2.000000X1.905000*%
%TD*%
%TA.AperFunction,ComponentPad*%
%ADD13O,2.000000X1.905000*%
%TD*%
%TA.AperFunction,ComponentPad*%
%ADD14RoundRect,0.250001X-1.149999X1.149999X-1.149999X-1.149999X1.149999X-1.149999X1.149999X1.149999X0*%
%TD*%
%TA.AperFunction,ComponentPad*%
%ADD15C,2.800000*%
%TD*%
%TA.AperFunction,ComponentPad*%
%ADD16R,1.700000X1.700000*%
%TD*%
%TA.AperFunction,ComponentPad*%
%ADD17O,1.700000X1.700000*%
%TD*%
%TA.AperFunction,ViaPad*%
%ADD18C,0.600000*%
%TD*%
%TA.AperFunction,Conductor*%
%ADD19C,0.200000*%
%TD*%
G04 APERTURE END LIST*
D10*
%TO.P,R1,1*%
%TO.N,Net-(J1-GPIO17{slash}SPI1_~{CE1})*%
X38095000Y-56000000D03*
D11*
%TO.P,R1,2*%
%TO.N,Net-(Q1-S)*%
X39995000Y-56000000D03*
%TD*%
D10*
%TO.P,R10,1*%
%TO.N,Net-(J1-GPIO19{slash}SPI1_MISO{slash}PCM_FS)*%
X38600000Y-97350000D03*
D11*
%TO.P,R10,2*%
%TO.N,Net-(Q1-S)*%
X40500000Y-97350000D03*
%TD*%
D12*
%TO.P,Q1,1,G*%
%TO.N,Net-(J1-GPIO17{slash}SPI1_~{CE1})*%
X40000000Y-50080000D03*
D13*
%TO.P,Q1,2,D*%
%TO.N,Net-(J2-Pin_1)*%
X40000000Y-47540000D03*
%TO.P,Q1,3,S*%
%TO.N,Net-(Q1-S)*%
X40000000Y-45000000D03*
%TD*%
D10*
%TO.P,R3,1*%
%TO.N,Net-(J1-GPIO22{slash}SDIO_CLK)*%
X38500000Y-73000000D03*
D11*
%TO.P,R3,2*%
%TO.N,Net-(Q1-S)*%
X40400000Y-73000000D03*
%TD*%
D10*
%TO.P,R4,1*%
%TO.N,Net-(J1-GPIO23{slash}SDIO_CMD)*%
X38500000Y-76150000D03*
D11*
%TO.P,R4,2*%
%TO.N,Net-(Q1-S)*%
X40400000Y-76150000D03*
%TD*%
D10*
%TO.P,R6,1*%
%TO.N,Net-(J1-GPIO25{slash}SDIO_DAT1)*%
X38500000Y-82450000D03*
D11*
%TO.P,R6,2*%
%TO.N,Net-(Q1-S)*%
X40400000Y-82450000D03*
%TD*%
D14*
%TO.P,J2,1,Pin_1*%
%TO.N,Net-(J2-Pin_1)*%
X31500000Y-44000000D03*
D15*
%TO.P,J2,2,Pin_2*%
%TO.N,Net-(J2-Pin_2)*%
X31500000Y-49000000D03*
%TO.P,J2,3,Pin_3*%
%TO.N,Net-(J1-GPIO21{slash}SPI1_SCLK{slash}PCM_DOUT)*%
X31500000Y-54000000D03*
%TO.P,J2,4,Pin_4*%
%TO.N,Net-(J2-Pin_4)*%
X31500000Y-59000000D03*
%TO.P,J2,5,Pin_5*%
X31500000Y-64000000D03*
%TO.P,J2,6,Pin_6*%
%TO.N,Net-(J1-GPIO22{slash}SDIO_CLK)*%
X31500000Y-69000000D03*
%TO.P,J2,7,Pin_7*%
%TO.N,Net-(J1-GPIO23{slash}SDIO_CMD)*%
X31500000Y-74000000D03*
%TO.P,J2,8,Pin_8*%
%TO.N,Net-(J1-GPIO24{slash}SDIO_DAT0)*%
X31500000Y-79000000D03*
%TO.P,J2,9,Pin_9*%
%TO.N,Net-(J1-GPIO25{slash}SDIO_DAT1)*%
X31500000Y-84000000D03*
%TO.P,J2,10,Pin_10*%
%TO.N,Net-(J1-GPIO26{slash}SDIO_DAT2)*%
X31500000Y-89000000D03*
%TO.P,J2,11,Pin_11*%
%TO.N,Net-(J1-GPIO27{slash}SDIO_DAT3)*%
X31500000Y-94000000D03*
%TO.P,J2,12,Pin_12*%
%TO.N,Net-(J1-GPIO20{slash}SPI1_MOSI{slash}PCM_DIN{slash}PWM1)*%
X31500000Y-99000000D03*
%TO.P,J2,13,Pin_13*%
%TO.N,Net-(J1-GPIO19{slash}SPI1_MISO{slash}PCM_FS)*%
X31500000Y-104000000D03*
%TD*%
D10*
%TO.P,R5,1*%
%TO.N,Net-(J1-GPIO24{slash}SDIO_DAT0)*%
X38500000Y-79300000D03*
D11*
%TO.P,R5,2*%
%TO.N,Net-(Q1-S)*%
X40400000Y-79300000D03*
%TD*%
D10*
%TO.P,R9,1*%
%TO.N,Net-(J1-GPIO20{slash}SPI1_MOSI{slash}PCM_DIN{slash}PWM1)*%
X38500000Y-91900000D03*
D11*
%TO.P,R9,2*%
%TO.N,Net-(Q1-S)*%
X40400000Y-91900000D03*
%TD*%
D10*
%TO.P,R7,1*%
%TO.N,Net-(J1-GPIO26{slash}SDIO_DAT2)*%
X38500000Y-85600000D03*
D11*
%TO.P,R7,2*%
%TO.N,Net-(Q1-S)*%
X40400000Y-85600000D03*
%TD*%
D10*
%TO.P,R8,1*%
%TO.N,Net-(J1-GPIO27{slash}SDIO_DAT3)*%
X38500000Y-88750000D03*
D11*
%TO.P,R8,2*%
%TO.N,Net-(Q1-S)*%
X40400000Y-88750000D03*
%TD*%
D16*
%TO.P,J1,1,3V3*%
%TO.N,Net-(J2-Pin_4)*%
X45230000Y-48870000D03*
D17*
%TO.P,J1,2,5V*%
%TO.N,Net-(J2-Pin_2)*%
X47770000Y-48870000D03*
%TO.P,J1,3,SDA_I2C1/GPIO02*%
%TO.N,unconnected-(J1-SDA_I2C1{slash}GPIO02-Pad3)*%
X45230000Y-51410000D03*
%TO.P,J1,4,5V*%
%TO.N,Net-(J2-Pin_2)*%
X47770000Y-51410000D03*
%TO.P,J1,5,SCL_I2C1/GPIO03*%
%TO.N,unconnected-(J1-SCL_I2C1{slash}GPIO03-Pad5)*%
X45230000Y-53950000D03*
%TO.P,J1,6,GND*%
%TO.N,Net-(Q1-S)*%
X47770000Y-53950000D03*
%TO.P,J1,7,GPCLK0/GPIO04*%
%TO.N,unconnected-(J1-GPCLK0{slash}GPIO04-Pad7)*%
X45230000Y-56490000D03*
%TO.P,J1,8,GPIO14/UART_TXD*%
%TO.N,unconnected-(J1-GPIO14{slash}UART_TXD-Pad8)*%
X47770000Y-56490000D03*
%TO.P,J1,9,GND*%
%TO.N,Net-(Q1-S)*%
X45230000Y-59030000D03*
%TO.P,J1,10,GPIO15/UART_RXD*%
%TO.N,unconnected-(J1-GPIO15{slash}UART_RXD-Pad10)*%
X47770000Y-59030000D03*
%TO.P,J1,11,GPIO17/SPI1_~{CE1}*%
%TO.N,Net-(J1-GPIO17{slash}SPI1_~{CE1})*%
X45230000Y-61570000D03*
%TO.P,J1,12,GPIO18/SPI1_~{CE0}/PCM_CLK/PWM0*%
%TO.N,unconnected-(J1-GPIO18{slash}SPI1_~{CE0}{slash}PCM_CLK{slash}PWM0-Pad12)*%
X47770000Y-61570000D03*
%TO.P,J1,13,GPIO27/SDIO_DAT3*%
%TO.N,Net-(J1-GPIO27{slash}SDIO_DAT3)*%
X45230000Y-64110000D03*
%TO.P,J1,14,GND*%
%TO.N,Net-(Q1-S)*%
X47770000Y-64110000D03*
%TO.P,J1,15,GPIO22/SDIO_CLK*%
%TO.N,Net-(J1-GPIO22{slash}SDIO_CLK)*%
X45230000Y-66650000D03*
%TO.P,J1,16,GPIO23/SDIO_CMD*%
%TO.N,Net-(J1-GPIO23{slash}SDIO_CMD)*%
X47770000Y-66650000D03*
%TO.P,J1,17,3V3*%
%TO.N,Net-(J2-Pin_4)*%
X45230000Y-69190000D03*
%TO.P,J1,18,GPIO24/SDIO_DAT0*%
%TO.N,Net-(J1-GPIO24{slash}SDIO_DAT0)*%
X47770000Y-69190000D03*
%TO.P,J1,19,MOSI_SPI0/GPIO10*%
%TO.N,unconnected-(J1-MOSI_SPI0{slash}GPIO10-Pad19)*%
X45230000Y-71730000D03*
%TO.P,J1,20,GND*%
%TO.N,Net-(Q1-S)*%
X47770000Y-71730000D03*
%TO.P,J1,21,MISO_SPI0/GPIO09*%
%TO.N,unconnected-(J1-MISO_SPI0{slash}GPIO09-Pad21)*%
X45230000Y-74270000D03*
%TO.P,J1,22,GPIO25/SDIO_DAT1*%
%TO.N,Net-(J1-GPIO25{slash}SDIO_DAT1)*%
X47770000Y-74270000D03*
%TO.P,J1,23,SCLK_SPI0/GPIO11*%
%TO.N,unconnected-(J1-SCLK_SPI0{slash}GPIO11-Pad23)*%
X45230000Y-76810000D03*
%TO.P,J1,24,~{CE0}_SPI0/GPIO08*%
%TO.N,unconnected-(J1-~{CE0}_SPI0{slash}GPIO08-Pad24)*%
X47770000Y-76810000D03*
%TO.P,J1,25,GND*%
%TO.N,Net-(Q1-S)*%
X45230000Y-79350000D03*
%TO.P,J1,26,~{CE1}_SPI0/GPIO07*%
%TO.N,unconnected-(J1-~{CE1}_SPI0{slash}GPIO07-Pad26)*%
X47770000Y-79350000D03*
%TO.P,J1,27,ID_SD_I2C0/GPIO00*%
%TO.N,unconnected-(J1-ID_SD_I2C0{slash}GPIO00-Pad27)*%
X45230000Y-81890000D03*
%TO.P,J1,28,ID_SC_I2C0/GPIO01*%
%TO.N,unconnected-(J1-ID_SC_I2C0{slash}GPIO01-Pad28)*%
X47770000Y-81890000D03*
%TO.P,J1,29,GPCLK1/GPIO05*%
%TO.N,unconnected-(J1-GPCLK1{slash}GPIO05-Pad29)*%
X45230000Y-84430000D03*
%TO.P,J1,30,GND*%
%TO.N,Net-(Q1-S)*%
X47770000Y-84430000D03*
%TO.P,J1,31,GPCLK2/GPIO06*%
%TO.N,unconnected-(J1-GPCLK2{slash}GPIO06-Pad31)*%
X45230000Y-86970000D03*
%TO.P,J1,32,GPIO12/PWM0*%
%TO.N,unconnected-(J1-GPIO12{slash}PWM0-Pad32)*%
X47770000Y-86970000D03*
%TO.P,J1,33,GPIO13/PWM1*%
%TO.N,unconnected-(J1-GPIO13{slash}PWM1-Pad33)*%
X45230000Y-89510000D03*
%TO.P,J1,34,GND*%
%TO.N,Net-(Q1-S)*%
X47770000Y-89510000D03*
%TO.P,J1,35,GPIO19/SPI1_MISO/PCM_FS*%
%TO.N,Net-(J1-GPIO19{slash}SPI1_MISO{slash}PCM_FS)*%
X45230000Y-92050000D03*
%TO.P,J1,36,GPIO16/SPI1_~{CE2}*%
%TO.N,unconnected-(J1-GPIO16{slash}SPI1_~{CE2}-Pad36)*%
X47770000Y-92050000D03*
%TO.P,J1,37,GPIO26/SDIO_DAT2*%
%TO.N,Net-(J1-GPIO26{slash}SDIO_DAT2)*%
X45230000Y-94590000D03*
%TO.P,J1,38,GPIO20/SPI1_MOSI/PCM_DIN/PWM1*%
%TO.N,Net-(J1-GPIO20{slash}SPI1_MOSI{slash}PCM_DIN{slash}PWM1)*%
X47770000Y-94590000D03*
%TO.P,J1,39,GND*%
%TO.N,Net-(Q1-S)*%
X45230000Y-97130000D03*
%TO.P,J1,40,GPIO21/SPI1_SCLK/PCM_DOUT*%
%TO.N,Net-(J1-GPIO21{slash}SPI1_SCLK{slash}PCM_DOUT)*%
X47770000Y-97130000D03*
%TD*%
D18*
%TO.N,Net-(J2-Pin_4)*%
X46381700Y-62840000D03*
%TO.N,Net-(J1-GPIO26{slash}SDIO_DAT2)*%
X38005800Y-90109800D03*
%TO.N,Net-(J1-GPIO21{slash}SPI1_SCLK{slash}PCM_DOUT)*%
X37193300Y-99160000D03*
%TD*%
D19*
%TO.N,Net-(J2-Pin_4)*%
X46381700Y-62840000D02*
X46381700Y-50885400D01*
X45230000Y-69190000D02*
X45230000Y-68038300D01*
X46381700Y-67174500D02*
X46381700Y-62840000D01*
X45230000Y-68038300D02*
X45517900Y-68038300D01*
X45230000Y-48870000D02*
X45230000Y-50021700D01*
X45517900Y-68038300D02*
X46381700Y-67174500D01*
X45518000Y-50021700D02*
X45230000Y-50021700D01*
X31500000Y-59000000D02*
X31500000Y-64000000D01*
X46381700Y-50885400D02*
X45518000Y-50021700D01*
%TO.N,Net-(J2-Pin_2)*%
X47770000Y-51410000D02*
X47770000Y-48870000D01*
%TO.N,Net-(J1-GPIO26{slash}SDIO_DAT2)*%
X38500000Y-85600000D02*
X37497900Y-86602100D01*
X37497900Y-86602100D02*
X37497900Y-89601900D01*
X37497900Y-89601900D02*
X38005800Y-90109800D01*
%TO.N,Net-(J1-GPIO19{slash}SPI1_MISO{slash}PCM_FS)*%
X40898700Y-98382000D02*
X43840200Y-95440500D01*
X43840200Y-94323000D02*
X44961500Y-93201700D01*
X45230000Y-92050000D02*
X45230000Y-93201700D01*
X44961500Y-93201700D02*
X45230000Y-93201700D01*
X39632000Y-98382000D02*
X40898700Y-98382000D01*
X38600000Y-97350000D02*
X39632000Y-98382000D01*
X43840200Y-95440500D02*
X43840200Y-94323000D01*
%TO.N,Net-(J1-GPIO21{slash}SPI1_SCLK{slash}PCM_DOUT)*%
X37026900Y-59526900D02*
X37026900Y-98993600D01*
X37026900Y-98993600D02*
X37193300Y-99160000D01*
X31500000Y-54000000D02*
X37026900Y-59526900D01*
%TO.N,Net-(J1-GPIO27{slash}SDIO_DAT3)*%
X44078300Y-66125400D02*
X44078300Y-83350100D01*
X44078300Y-83350100D02*
X38678400Y-88750000D01*
X44942000Y-65261700D02*
X44078300Y-66125400D01*
X38678400Y-88750000D02*
X38500000Y-88750000D01*
X45230000Y-65261700D02*
X44942000Y-65261700D01*
X45230000Y-64110000D02*
X45230000Y-65261700D01*
%TO.N,Net-(Q1-S)*%
X46500000Y-72698800D02*
X46500000Y-77196800D01*
X40400000Y-79300000D02*
X40400000Y-76150000D01*
X40000000Y-46254200D02*
X39451300Y-46254200D01*
X40400000Y-92901700D02*
X40500000Y-93001700D01*
X38698300Y-53701600D02*
X39995000Y-54998300D01*
X40400000Y-76150000D02*
X40400000Y-73000000D01*
X40000000Y-45000000D02*
X40000000Y-46254200D01*
X40400000Y-88750000D02*
X40400000Y-91900000D01*
X40400000Y-85600000D02*
X40400000Y-82450000D01*
X47770000Y-71154100D02*
X47770000Y-71428800D01*
X45230000Y-79350000D02*
X45230000Y-78198300D01*
X47770000Y-70578300D02*
X48057900Y-70578300D01*
X38698300Y-47007200D02*
X38698300Y-53701600D01*
X47770000Y-64110000D02*
X47770000Y-65261700D01*
X40400000Y-91900000D02*
X40400000Y-92901700D01*
X39451300Y-46254200D02*
X38698300Y-47007200D01*
X40400000Y-82450000D02*
X40400000Y-79300000D01*
X39995000Y-56000000D02*
X39995000Y-54998300D01*
X48038500Y-65261700D02*
X47770000Y-65261700D01*
X45498500Y-78198300D02*
X45230000Y-78198300D01*
X40500000Y-93001700D02*
X40500000Y-97350000D01*
X48928100Y-69708100D02*
X48928100Y-66151300D01*
X47770000Y-71154100D02*
X47770000Y-70578300D01*
X47770000Y-71428800D02*
X46500000Y-72698800D01*
X48928100Y-66151300D02*
X48038500Y-65261700D01*
X46500000Y-77196800D02*
X45498500Y-78198300D01*
X47770000Y-71730000D02*
X47770000Y-71428800D01*
X48057900Y-70578300D02*
X48928100Y-69708100D01*
%TD*%
M02*
