%TF.GenerationSoftware,KiCad,Pcbnew,8.0.8*%
%TF.CreationDate,2025-02-15T16:15:48-08:00*%
%TF.ProjectId,PhonePiHat,50686f6e-6550-4694-9861-742e6b696361,rev?*%
%TF.SameCoordinates,Original*%
%TF.FileFunction,Soldermask,Bot*%
%TF.FilePolarity,Negative*%
%FSLAX46Y46*%
G04 Gerber Fmt 4.6, Leading zero omitted, Abs format (unit mm)*
G04 Created by KiCad (PCBNEW 8.0.8) date 2025-02-15 16:15:48*
%MOMM*%
%LPD*%
G01*
G04 APERTURE LIST*
G04 Aperture macros list*
%AMRoundRect*
0 Rectangle with rounded corners*
0 $1 Rounding radius*
0 $2 $3 $4 $5 $6 $7 $8 $9 X,Y pos of 4 corners*
0 Add a 4 corners polygon primitive as box body*
4,1,4,$2,$3,$4,$5,$6,$7,$8,$9,$2,$3,0*
0 Add four circle primitives for the rounded corners*
1,1,$1+$1,$2,$3*
1,1,$1+$1,$4,$5*
1,1,$1+$1,$6,$7*
1,1,$1+$1,$8,$9*
0 Add four rect primitives between the rounded corners*
20,1,$1+$1,$2,$3,$4,$5,0*
20,1,$1+$1,$4,$5,$6,$7,0*
20,1,$1+$1,$6,$7,$8,$9,0*
20,1,$1+$1,$8,$9,$2,$3,0*%
G04 Aperture macros list end*
%ADD10C,6.000000*%
%ADD11R,1.700000X1.700000*%
%ADD12O,1.700000X1.700000*%
%ADD13C,1.400000*%
%ADD14O,1.400000X1.400000*%
%ADD15R,2.000000X1.905000*%
%ADD16O,2.000000X1.905000*%
%ADD17RoundRect,0.250001X1.149999X-1.149999X1.149999X1.149999X-1.149999X1.149999X-1.149999X-1.149999X0*%
%ADD18C,2.800000*%
G04 APERTURE END LIST*
D10*
%TO.C,J1*%
X57700000Y-44500000D03*
X57700000Y-102500000D03*
X80700000Y-44500000D03*
X80700000Y-102500000D03*
D11*
X58970000Y-49370000D03*
D12*
X56430000Y-49370000D03*
X58970000Y-51910000D03*
X56430000Y-51910000D03*
X58970000Y-54450000D03*
X56430000Y-54450000D03*
X58970000Y-56990000D03*
X56430000Y-56990000D03*
X58970000Y-59530000D03*
X56430000Y-59530000D03*
X58970000Y-62070000D03*
X56430000Y-62070000D03*
X58970000Y-64610000D03*
X56430000Y-64610000D03*
X58970000Y-67150000D03*
X56430000Y-67150000D03*
X58970000Y-69690000D03*
X56430000Y-69690000D03*
X58970000Y-72230000D03*
X56430000Y-72230000D03*
X58970000Y-74770000D03*
X56430000Y-74770000D03*
X58970000Y-77310000D03*
X56430000Y-77310000D03*
X58970000Y-79850000D03*
X56430000Y-79850000D03*
X58970000Y-82390000D03*
X56430000Y-82390000D03*
X58970000Y-84930000D03*
X56430000Y-84930000D03*
X58970000Y-87470000D03*
X56430000Y-87470000D03*
X58970000Y-90010000D03*
X56430000Y-90010000D03*
X58970000Y-92550000D03*
X56430000Y-92550000D03*
X58970000Y-95090000D03*
X56430000Y-95090000D03*
X58970000Y-97630000D03*
X56430000Y-97630000D03*
%TD*%
D13*
%TO.C,R1*%
X64500000Y-49000000D03*
D14*
X66400000Y-49000000D03*
%TD*%
D13*
%TO.C,R10*%
X64095000Y-81500000D03*
D14*
X65995000Y-81500000D03*
%TD*%
D15*
%TO.C,Q1*%
X66500000Y-92580000D03*
D16*
X66500000Y-90040000D03*
X66500000Y-87500000D03*
%TD*%
D13*
%TO.C,R3*%
X64500000Y-52150000D03*
D14*
X66400000Y-52150000D03*
%TD*%
D13*
%TO.C,R4*%
X64500000Y-55300000D03*
D14*
X66400000Y-55300000D03*
%TD*%
D13*
%TO.C,R6*%
X64500000Y-61600000D03*
D14*
X66400000Y-61600000D03*
%TD*%
D17*
%TO.C,J2*%
X74000000Y-104000000D03*
D18*
X74000000Y-99000000D03*
X74000000Y-94000000D03*
X74000000Y-89000000D03*
X74000000Y-84000000D03*
X74000000Y-79000000D03*
X74000000Y-74000000D03*
X74000000Y-69000000D03*
X74000000Y-64000000D03*
X74000000Y-59000000D03*
X74000000Y-54000000D03*
X74000000Y-49000000D03*
X74000000Y-44000000D03*
%TD*%
D13*
%TO.C,R5*%
X64500000Y-58450000D03*
D14*
X66400000Y-58450000D03*
%TD*%
D13*
%TO.C,R9*%
X64500000Y-71050000D03*
D14*
X66400000Y-71050000D03*
%TD*%
D13*
%TO.C,R7*%
X64500000Y-64750000D03*
D14*
X66400000Y-64750000D03*
%TD*%
D13*
%TO.C,R8*%
X64500000Y-67900000D03*
D14*
X66400000Y-67900000D03*
%TD*%
M02*
